G04 ================== begin FILE IDENTIFICATION RECORD ==================*
G04 Layout Name:  C:/Users/Joser/parcial final victor/parcial2.brd*
G04 Film Name:    BOTTOM*
G04 File Format:  Gerber RS274X*
G04 File Origin:  Cadence Allegro 24.1-S006*
G04 Origin Date:  Mon Nov 10 14:00:51 2025*
G04 *
G04 Layer:  ETCH/BOTTOM*
G04 Layer:  PIN/BOTTOM*
G04 Layer:  VIA CLASS/BOTTOM*
G04 *
G04 Offset:    (0.0000 0.0000)*
G04 Mirror:    No*
G04 Mode:      Positive*
G04 Rotation:  0*
G04 FullContactRelief:  No*
G04 UndefLineWidth:     0.0000*
G04 ================== end FILE IDENTIFICATION RECORD ====================*
%FSLAX25Y25*MOMM*%
%IR0*IPPOS*OFA0.00000B0.00000*MIA0B0*SFA1.00000B1.00000*%
%ADD27R,.5001X1.1001*%
%AMMACRO33*
4,1,21,.4,.1499,
-.2499,.1499,
-.275947,.147621,
-.301203,.140854,
-.3249,.129804,
-.346318,.114807,
-.364807,.096318,
-.379804,.0749,
-.390854,.051203,
-.397621,.025947,
-.3999,-.0001,
-.397621,-.026147,
-.390854,-.051403,
-.379804,-.0751,
-.364807,-.096518,
-.346318,-.115007,
-.3249,-.130004,
-.301203,-.141054,
-.275947,-.147821,
-.2499,-.1501,
.4,-.1501,
.4,.1499,
0.0*
%
%ADD33MACRO33*%
%AMMACRO30*
4,1,21,.1499,-.4,
.1499,.2499,
.147621,.275947,
.140854,.301203,
.129804,.3249,
.114807,.346318,
.096318,.364807,
.0749,.379804,
.051203,.390854,
.025947,.397621,
-.0001,.3999,
-.026147,.397621,
-.051403,.390854,
-.0751,.379804,
-.096518,.364807,
-.115007,.346318,
-.130004,.3249,
-.141054,.301203,
-.147821,.275947,
-.1501,.2499,
-.1501,-.4,
.1499,-.4,
0.0*
%
%ADD30MACRO30*%
%ADD10C,.4*%
%ADD26R,.7X1.55*%
%ADD13R,.3X.3*%
%ADD16C,.65*%
%ADD18R,.5999X1.05*%
%AMMACRO32*
4,1,21,-.1499,.4,
-.1499,-.2499,
-.147621,-.275947,
-.140854,-.301203,
-.129804,-.3249,
-.114807,-.346318,
-.096318,-.364807,
-.0749,-.379804,
-.051203,-.390854,
-.025947,-.397621,
.0001,-.3999,
.026147,-.397621,
.051403,-.390854,
.0751,-.379804,
.096518,-.364807,
.115007,-.346318,
.130004,-.3249,
.141054,-.301203,
.147821,-.275947,
.1501,-.2499,
.1501,.4,
-.1499,.4,
0.0*
%
%ADD32MACRO32*%
%AMMACRO29*
4,1,21,-.4,-.1499,
.2499,-.1499,
.275947,-.147621,
.301203,-.140854,
.3249,-.129804,
.346318,-.114807,
.364807,-.096318,
.379804,-.0749,
.390854,-.051203,
.397621,-.025947,
.3999,.0001,
.397621,.026147,
.390854,.051403,
.379804,.0751,
.364807,.096518,
.346318,.115007,
.3249,.130004,
.301203,.141054,
.275947,.147821,
.2499,.1501,
-.4,.1501,
-.4,-.1499,
0.0*
%
%ADD29MACRO29*%
%ADD17R,2.45X2.35*%
%ADD19R,2.35X2.45*%
%ADD15C,1.1501*%
%ADD22C,2.7*%
%ADD31R,2.7501X1.7501*%
%ADD11C,1.8151*%
%ADD25C,1.286*%
%ADD21C,2.856*%
%ADD12C,2.3099*%
%ADD28R,.685X.635*%
%ADD20C,3.9291*%
%ADD23C,1.1999*%
%ADD14R,.5999X.7*%
%ADD24R,1.1999X1.1999*%
%ADD34C,.15*%
%ADD35C,.127*%
G75*
%LPD*%
G75*
G54D10*
X-205000Y-230000D03*
X-255000Y595000D03*
X-205000Y1020000D03*
X-215000Y1610000D03*
Y2635000D03*
Y3935000D03*
X-65000Y1030000D03*
X-55000Y1415000D03*
X-165000Y1490000D03*
X-40000Y1680000D03*
X-55000Y2175000D03*
X-25000Y2275000D03*
X5000Y2975000D03*
X190000Y120000D03*
X215000Y270000D03*
X179290Y985000D03*
X100710D03*
X75000Y1420000D03*
X110000Y2170000D03*
X204900Y3096320D03*
X126320D03*
X190000Y4085000D03*
X165000Y4370000D03*
X65000Y4420000D03*
X170000Y4430000D03*
X337500Y77500D03*
X300000Y480000D03*
X420000Y1605000D03*
X430000Y2600000D03*
X250000Y3775000D03*
X315000Y4865000D03*
X500000Y-183000D03*
X477500Y627500D03*
X581000Y639000D03*
X505000Y805000D03*
X535000Y1160000D03*
X540000Y2710000D03*
X600000Y4680000D03*
X510000Y4735000D03*
X652500Y52500D03*
X690000Y460000D03*
X810710Y415000D03*
X715000Y630000D03*
X640000Y795000D03*
X785000Y2730000D03*
X725710Y3175000D03*
X804290D03*
X755000Y3375000D03*
X747500Y3507500D03*
X745000Y3670000D03*
X790000Y3790000D03*
X765000Y4185000D03*
X755000Y4130000D03*
X765000Y4275000D03*
X1020000Y70000D03*
X889290Y415000D03*
X880000Y1060000D03*
X955000Y1760000D03*
X994290Y2020000D03*
X915710D03*
X994290Y2670000D03*
X915710D03*
X985000Y3205000D03*
X845000Y3675000D03*
X975000Y4535000D03*
X845000Y4420000D03*
X950000Y4660000D03*
X905000Y4850000D03*
X960000Y5120000D03*
X1100000Y-60000D03*
X1080710Y1100000D03*
X1159290D03*
X1154290Y2225000D03*
X1075710D03*
X1155000Y2490000D03*
X1185200Y2645000D03*
X1160000Y2945000D03*
X1065000Y4735000D03*
Y4950000D03*
X1135000Y5190000D03*
X1290000Y130000D03*
X1255000Y190000D03*
X1430000Y440000D03*
X1261920Y895000D03*
X1340500D03*
X1261920Y1080000D03*
X1340500D03*
X1330710Y1970000D03*
X1409290D03*
X1263780Y2645000D03*
X1260000Y3050000D03*
X1370000Y3885000D03*
X1620000Y2260000D03*
X1555000Y2660000D03*
X1620000Y3165000D03*
X1465000Y3735000D03*
X1670710Y535000D03*
X1749290D03*
X1765000Y1335000D03*
X1805000Y1395000D03*
X1810000Y1550000D03*
X1750000Y1615000D03*
X1655000Y1725000D03*
X1717500Y1982500D03*
X1810000Y1965000D03*
X1780000Y1850000D03*
X1730000Y2165000D03*
X1780000Y2205000D03*
X1795000Y2325000D03*
X1750000Y2575000D03*
X1660000Y2625000D03*
X1795000Y3080000D03*
Y3165000D03*
X1780710Y3323140D03*
X1835000Y4645000D03*
X1985000Y-115000D03*
X1845000Y85000D03*
X1975710Y585570D03*
X1950000Y1345000D03*
X1870000Y1615000D03*
X1940000Y1595000D03*
X1845000Y2645000D03*
X1971130Y2750000D03*
X1870000Y3085000D03*
X2009290Y3375000D03*
X1930710D03*
X1859290Y3323140D03*
X1955000Y3935000D03*
X1935000Y5115000D03*
X2054290Y585570D03*
X2140000Y1494800D03*
X2210000Y1515000D03*
X2115000Y1725000D03*
X2120000Y1985000D03*
X2160000Y1815000D03*
X2120000Y2165000D03*
Y2325000D03*
Y2395000D03*
X2080230Y2775000D03*
X2230000Y2610000D03*
X2070000Y2872700D03*
X2145000Y2895000D03*
X2085000Y3345000D03*
X2160000Y3210000D03*
X2200710Y3295000D03*
X2200000Y3460000D03*
X2380000Y1335000D03*
X2410000Y1651560D03*
X2353590Y2650000D03*
X2410000Y2920000D03*
X2290000Y2930000D03*
X2390000Y3275000D03*
X2279290Y3295000D03*
X2365000Y4365000D03*
X2605000Y330000D03*
X2550710Y1335000D03*
X2629290D03*
X2530000Y1450000D03*
X2525000Y1695000D03*
X2610000Y2165000D03*
X2510000Y2655000D03*
X2470000Y3250000D03*
X2605000Y3310000D03*
X2500000Y3805000D03*
X2760000Y-25000D03*
X2680000Y1270000D03*
X2805000Y1390000D03*
X2835000Y2650000D03*
X2730000Y2935000D03*
X2815710Y3680000D03*
X2795000Y4640000D03*
X2805000Y5080000D03*
X2945000Y-155000D03*
X2890000Y1370000D03*
X2990000Y1270000D03*
X3005000Y1475000D03*
X3030000Y2600000D03*
X2970000Y2950000D03*
X3015000D03*
X3045000Y3060000D03*
X2894290Y3680000D03*
X2920000Y4145000D03*
X3155000Y2730000D03*
X3055000Y2655000D03*
X3100000Y2850000D03*
X3220000Y2905000D03*
X3080000Y3335000D03*
X3115000Y3555000D03*
X3205000Y3770000D03*
X3455000Y-10000D03*
X3353250Y661750D03*
X3400000Y1585000D03*
X3335710Y1450000D03*
X3414290D03*
X3400000Y1765000D03*
X3300000Y1610000D03*
X3405000Y1965000D03*
X3440000Y1910000D03*
X3395000Y1845000D03*
X3420000Y2085000D03*
X3375000Y2265940D03*
X3420000Y2325000D03*
X3375000Y2420000D03*
X3300000Y2735000D03*
X3410000Y3415000D03*
X3330000Y3795000D03*
X3585000Y3675000D03*
X3525000Y4135000D03*
X3790000Y745000D03*
X3810000Y650000D03*
X3825000Y1050000D03*
X3785000Y1115000D03*
X3665000Y1960000D03*
X3794310Y3260000D03*
X3715730D03*
X3775000Y3865000D03*
X3755000Y4225000D03*
X3720000Y4760000D03*
X4055000Y610000D03*
X3915000Y605000D03*
X3995000D03*
X4030000Y860000D03*
X3875000Y1085000D03*
X4000000Y1380000D03*
X3925000Y1300000D03*
X3975000Y1320000D03*
X3950000Y1460000D03*
X4045000Y1880750D03*
X3950000Y2005000D03*
X4055000Y2195000D03*
X3925000Y2570000D03*
X4015000Y3375000D03*
X3960000Y3435000D03*
X3995000Y4515000D03*
X4245000Y585000D03*
X4110000Y600000D03*
X4075000Y1080000D03*
X4250000Y1295000D03*
X4195000Y1310000D03*
X4070000Y1260000D03*
X4075000Y1420000D03*
X4240000Y2320000D03*
X4225000Y2420000D03*
X4110000Y2860000D03*
X4185000Y2935000D03*
Y3335000D03*
X4195000Y4340000D03*
X4165000Y4600000D03*
X4100000Y4700000D03*
X4455000Y-88440D03*
X4375000Y290000D03*
X4330000Y490500D03*
X4285000Y540000D03*
X4430000Y585000D03*
X4390000Y815000D03*
Y1120000D03*
X4325000Y1795000D03*
X4375000Y2320000D03*
X4310000Y2580000D03*
X4395000Y2830000D03*
X4305000Y3225000D03*
X4320000Y3585000D03*
X4450000Y3550000D03*
X4400000Y3510000D03*
X4330000Y4115000D03*
X4275000Y4650000D03*
X4624500Y-240000D03*
X4470000Y-155000D03*
Y2585000D03*
X4505000Y2895000D03*
X4620000D03*
X4530000Y3375000D03*
X4545000Y3645000D03*
X4495000Y3610000D03*
X4660000Y4330000D03*
X4590000Y4965000D03*
X4505000Y4970000D03*
X4751500Y-226500D03*
X4725000Y2230000D03*
X4780000Y2470000D03*
X4765000Y3135000D03*
X4735000Y3405000D03*
X4830000Y3670000D03*
X4840000Y4060000D03*
X4835000Y4665000D03*
X4745000Y4975000D03*
X5015000Y-280000D03*
X4878500Y-216500D03*
X4910000Y2470000D03*
X4953250Y2401750D03*
X5245000Y3355000D03*
X5085000Y3410000D03*
X5095000Y4195000D03*
G54D20*
X1708000Y4445000D03*
X3022000D03*
G54D11*
X-205000Y-109000D03*
Y789000D03*
X-215000Y2796000D03*
Y3694000D03*
X390000Y-73000D03*
Y753000D03*
X380000Y2832000D03*
Y3658000D03*
G54D12*
X-115000Y1285000D03*
Y2015000D03*
X175000Y1285000D03*
Y2015000D03*
G54D21*
X1725000Y5162000D03*
X3005000D03*
G54D30*
X3995010Y690000D03*
X4045010D03*
X4095010D03*
X4145010D03*
X4195010D03*
X4245010D03*
G54D31*
X4120000Y840000D03*
G54D22*
X1813000Y-115000D03*
X3127000D03*
G54D13*
X-145000Y50000D03*
X-85000D03*
X-95000Y135000D03*
X-145000D03*
X-10000Y45000D03*
X-40000Y1610000D03*
X-90000D03*
X40000Y45000D03*
X175000D03*
X125000D03*
X1100000Y-175000D03*
Y-125000D03*
X1345000Y130000D03*
X1405000D03*
X1430000Y305000D03*
Y255000D03*
X1255000Y300000D03*
Y250000D03*
X1465000Y3685000D03*
X1515000D03*
X2565000Y1595000D03*
X2625000D03*
X2595000Y2655000D03*
X2645000D03*
X2715000Y1595000D03*
X2665000D03*
X2755000Y2640000D03*
Y2690000D03*
X2955000Y1610000D03*
X2905000D03*
X2935000Y2660000D03*
X2885000D03*
X3840000Y860000D03*
X3780000D03*
X3825000Y930000D03*
Y980000D03*
X3995000Y1135000D03*
Y1085000D03*
X4200000Y585000D03*
Y525000D03*
X4135000Y1155000D03*
X4070000D03*
X4135000Y1205000D03*
X4070000D03*
X4455000Y860000D03*
X4460000Y930000D03*
X4515000Y860000D03*
X4565000Y930000D03*
X4625000D03*
X4510000D03*
G54D14*
X-160000Y315000D03*
X30000D03*
X-65000Y515000D03*
G54D23*
X2070000Y235000D03*
X2270000D03*
X2370000Y85000D03*
X2470000Y235000D03*
X2570000Y85000D03*
X2670000Y235000D03*
X2820000Y85000D03*
X2870000Y235000D03*
G54D32*
X4044990Y990000D03*
X3994990D03*
X4244990D03*
X4194990D03*
X4144990D03*
X4094990D03*
G54D24*
X2015000Y4095000D03*
X2120000Y85000D03*
G54D15*
X515000Y-20000D03*
X505000Y2885000D03*
G54D33*
X4320000Y765010D03*
Y815010D03*
Y865010D03*
Y915010D03*
G54D34*
G01X889290Y415000D02*
X865000Y439290D01*
Y765000D01*
X735000Y895000D01*
X199490D01*
X155000Y939490D01*
Y960710D01*
X179290Y985000D01*
G01X810710Y415000D02*
X835000Y439290D01*
Y752570D01*
X722570Y865000D01*
X187060D01*
X125000Y927060D01*
Y960710D01*
X100710Y985000D01*
G01X204900Y3096320D02*
X191220Y3110000D01*
Y3131210D01*
X301220Y3241210D01*
X735000D01*
X750000Y3226210D01*
Y3199290D01*
X725710Y3175000D01*
G01X126320Y3096320D02*
X150610Y3120610D01*
Y3133040D01*
X288780Y3271210D01*
X747430D01*
X780000Y3238640D01*
Y3199290D01*
X804290Y3175000D01*
G01X810710Y415000D02*
X835000Y390710D01*
Y357060D01*
X887060Y305000D01*
X1019990D01*
X1135000Y420010D01*
Y1075710D01*
X1159290Y1100000D01*
G01X885000Y2925000D02*
X750000Y3060000D01*
Y3150710D01*
X725710Y3175000D01*
G01X804290D02*
X780000Y3150710D01*
Y3072430D01*
X1117430Y2735000D01*
X1206920D01*
X1239490Y2702430D01*
Y2669290D01*
X1263780Y2645000D01*
G01X889290Y415000D02*
X865000Y390710D01*
Y369490D01*
X899490Y335000D01*
X1007560D01*
X1105000Y432440D01*
Y1075710D01*
X1080710Y1100000D01*
G01X994290Y2020000D02*
X970000Y2044290D01*
Y2645710D01*
X994290Y2670000D01*
G01X915710Y2020000D02*
X940000Y2044290D01*
Y2645710D01*
X915710Y2670000D01*
G01X1185200Y2645000D02*
X1209490Y2669290D01*
Y2690000D01*
X1194490Y2705000D01*
X1105000D01*
X900000Y2909990D01*
G01D02*
Y2910000D01*
X885000Y2925000D01*
G01X900000Y2909990D02*
X885000Y2925000D01*
G01X1330710Y1970000D02*
X1355000Y1994290D01*
Y2036720D01*
X1370000Y2051720D01*
Y2270510D01*
X1355000Y2285510D01*
X1145000D01*
X1130000Y2270510D01*
Y2249290D01*
X1154290Y2225000D01*
G01X1409290Y1970000D02*
X1385000Y1994290D01*
Y2024290D01*
X1400000Y2039290D01*
Y2282940D01*
X1367430Y2315510D01*
X1132570D01*
X1100000Y2282940D01*
Y2249290D01*
X1075710Y2225000D01*
G01X1261920Y1080000D02*
X1286210Y1055710D01*
Y919290D01*
X1261920Y895000D01*
G01X1340500Y1080000D02*
X1316210Y1055710D01*
Y919290D01*
X1340500Y895000D01*
G01X2550710Y1335000D02*
X2575000Y1310710D01*
Y950000D01*
X2550000Y925000D01*
X1869280D01*
X1695000Y750720D01*
Y559290D01*
X1670710Y535000D01*
G01X2629290Y1335000D02*
X2605000Y1310710D01*
Y937570D01*
X2562430Y895000D01*
X1881710D01*
X1725000Y738290D01*
Y559290D01*
X1749290Y535000D01*
G01X3794310Y3260000D02*
X3770020Y3284290D01*
Y3704970D01*
X3594990Y3880000D01*
X2215000D01*
X1805000Y3470000D01*
Y3347430D01*
X1780710Y3323140D01*
G01X3414290Y1450000D02*
X3390000Y1425710D01*
Y1270000D01*
X2880000Y760000D01*
X2500000D01*
X2370000Y630000D01*
Y525000D01*
X2240000Y395000D01*
X2120000D01*
X2000000Y515000D01*
Y561280D01*
X1975710Y585570D01*
G01X2894290Y3680000D02*
X2870000Y3655710D01*
Y3565000D01*
X2815000Y3510000D01*
X2074490D01*
X1985000Y3420510D01*
Y3399290D01*
X2009290Y3375000D01*
G01X2815710Y3680000D02*
X2840000Y3655710D01*
Y3577430D01*
X2802570Y3540000D01*
X2062060D01*
X1955000Y3432940D01*
Y3399290D01*
X1930710Y3375000D01*
G01X3715730Y3260000D02*
X3740020Y3284290D01*
Y3692540D01*
X3582560Y3850000D01*
X2227430D01*
X1835000Y3457570D01*
Y3347430D01*
X1859290Y3323140D01*
G01X3335710Y1450000D02*
X3360000Y1425710D01*
Y1282430D01*
X2867570Y790000D01*
X2487570D01*
X2340000Y642430D01*
Y537430D01*
X2227570Y425000D01*
X2132430D01*
X2030000Y527430D01*
Y561280D01*
X2054290Y585570D01*
G01X2200710Y3295000D02*
Y3256890D01*
X2225000Y3232600D01*
Y3195850D01*
X2320650Y3100200D01*
X3061660D01*
X3061860Y3100000D01*
X3697570D01*
X3820000Y2977570D01*
Y1277430D01*
X3005000Y462430D01*
Y77430D01*
X2752570Y-175000D01*
X2602430D01*
X2485000Y-57570D01*
Y70000D01*
X2500000Y85000D01*
X2570000D01*
G01X2279290Y3295000D02*
Y3256890D01*
X2255000Y3232600D01*
Y3208280D01*
X2333080Y3130200D01*
X3074090D01*
X3074290Y3130000D01*
X3710000D01*
X3850000Y2990000D01*
Y1265000D01*
X3035000Y450000D01*
Y65000D01*
X2765000Y-205000D01*
X2590000D01*
X2455000Y-70000D01*
Y70000D01*
X2440000Y85000D01*
X2370000D01*
G54D25*
X1965000Y4245000D03*
X2265000Y4095000D03*
X2165000Y4245000D03*
X2465000Y4095000D03*
X2365000Y4245000D03*
X2565000D03*
X2715000Y4095000D03*
X2765000Y4245000D03*
G54D16*
X515000Y700000D03*
X505000Y3605000D03*
G54D35*
G01X-255000Y595000D02*
Y525000D01*
X-45000Y315000D01*
X30000D01*
G01X-90000Y1610000D02*
X-215000D01*
G01X190000Y120000D02*
X56010D01*
X-10000Y53990D01*
Y45000D01*
G01X-160000Y315000D02*
Y150000D01*
X-145000Y135000D01*
G01Y50000D02*
Y135000D01*
G01X-65000Y515000D02*
X-55000Y525000D01*
X80000D01*
X115000Y490000D01*
Y308050D01*
X-58050Y135000D01*
X-95000D01*
G01X-85000Y50000D02*
Y125000D01*
X-95000Y135000D01*
G01X40000Y45000D02*
Y36010D01*
X3990Y0D01*
X-75000D01*
X-85000Y10000D01*
Y50000D01*
G01X-65000Y1030000D02*
Y515000D01*
G01X-115000Y1285000D02*
Y1355000D01*
X-55000Y1415000D01*
G01X-40000Y1610000D02*
Y1680000D01*
G01X-25000Y2275000D02*
X210000D01*
X535000Y1950000D01*
G01X805000Y-150000D02*
X700000Y-255000D01*
X275000D01*
X125000Y-105000D01*
Y45000D01*
G01X190000Y120000D02*
Y60000D01*
X175000Y45000D01*
G01X300000Y480000D02*
X30000Y750000D01*
Y1020000D01*
X50000Y1040000D01*
X670000D01*
X955000Y1325000D01*
Y1430000D01*
G01X745000Y3670000D02*
X615000D01*
X440000Y3845000D01*
X275000D01*
X65000Y4055000D01*
Y4420000D01*
G01X535000Y1330000D02*
Y1160000D01*
G01Y1950000D02*
Y1813440D01*
X595000Y1753440D01*
Y1675000D01*
X525000Y1605000D01*
X420000D01*
G01X1370000Y3885000D02*
Y2567700D01*
X1357300Y2555000D01*
X1250000D01*
X1199050Y2605950D01*
X1169020D01*
X1146150Y2628820D01*
Y2658850D01*
X1126550Y2678450D01*
X1094000D01*
X996420Y2776020D01*
X896020D01*
X535000Y2415000D01*
Y1950000D01*
G01X755000Y3375000D02*
X1000000D01*
G01X1010000Y3960000D02*
Y3955000D01*
X845000Y3790000D01*
X790000D01*
G01X765000Y4275000D02*
Y4185000D01*
G01X1100000Y-175000D02*
X1059020Y-215980D01*
X1038480D01*
X995000Y-172500D01*
Y-150000D01*
G01X900000Y70000D02*
X1020000D01*
G01X880000Y1060000D02*
X1395000Y1575000D01*
X1715000D01*
X1890000Y1400000D01*
X2140000D01*
X2210000Y1470000D01*
Y1515000D01*
G01X955000Y1430000D02*
Y1760000D01*
G01X845000Y3675000D02*
Y3535000D01*
X1000000Y3380000D01*
Y3375000D01*
G01X1100000Y-175000D02*
X1134060D01*
X1296020Y-13040D01*
Y38980D01*
X1240000Y95000D01*
X1142700D01*
X1130000Y107700D01*
Y240000D01*
X1380000Y490000D01*
X1790000D01*
X2160000Y860000D01*
X2705000D01*
X2890000Y1045000D01*
Y1370000D01*
G01X1100000Y-125000D02*
Y-60000D01*
G01X1155000Y2490000D02*
X1525000D01*
X1660000Y2625000D01*
G01X3525000Y4135000D02*
Y4525000D01*
X3060000Y4990000D01*
X1320000D01*
X1065000Y4735000D01*
G01X1845000Y85000D02*
X1800000Y130000D01*
X1405000D01*
G01D02*
Y230000D01*
X1430000Y255000D01*
G01X1345000Y130000D02*
X1290000D01*
G01X1255000Y300000D02*
X1425000D01*
X1430000Y305000D01*
G01X1255000Y250000D02*
Y190000D01*
G01X1430000Y440000D02*
Y305000D01*
G01X1575000Y1430000D02*
X1670000D01*
X1765000Y1335000D01*
G01X1620000Y2260000D02*
X1687380Y2192620D01*
X1702380D01*
X1730000Y2165000D01*
G01X1515000Y3685000D02*
X1630000Y3800000D01*
Y3960000D01*
G01X1465000Y3685000D02*
Y3735000D01*
G01X1810000Y1550000D02*
X1860000Y1500000D01*
X2089970D01*
X2123820Y1533850D01*
X2173620D01*
X2193820Y1554050D01*
X2226180D01*
X2280230Y1500000D01*
X2762000D01*
X2888500Y1626500D01*
G01X2120000Y2165000D02*
X1900000D01*
X1717500Y1982500D01*
G01X3375000Y2265940D02*
Y2350000D01*
X3360000Y2365000D01*
X2182870D01*
X2159050Y2341180D01*
Y2308820D01*
X2136180Y2285950D01*
X2103820D01*
X2080950Y2308820D01*
Y2341180D01*
X2057130Y2365000D01*
X1960000D01*
X1750000Y2575000D01*
G01X1795000Y3080000D02*
X2060000Y3345000D01*
X2085000D01*
G01X1795000Y3165000D02*
X1898340Y3268340D01*
Y3339320D01*
X1890000Y3347660D01*
Y3440000D01*
X2255000Y3805000D01*
X2500000D01*
G01X1620000Y3375000D02*
Y3165000D01*
G01X1955000Y3935000D02*
X1655000D01*
X1630000Y3960000D01*
G01X1940000Y1595000D02*
X2565000D01*
G01X2160000Y3210000D02*
X2110000D01*
X2000000Y3100000D01*
Y2800000D01*
X2035000Y2765000D01*
X2070230D01*
X2080230Y2775000D01*
G01X1870000Y3085000D02*
X1930000D01*
X2290000Y3445000D01*
X2880000D01*
X3205000Y3770000D01*
G01X2120000Y2395000D02*
Y2555230D01*
X2214770Y2650000D01*
X2353590D01*
G01D02*
X2412300D01*
X2440000Y2677700D01*
Y2745000D01*
X2410000Y2775000D01*
X2080230D01*
G01X2200000Y3460000D02*
X2085000Y3345000D01*
G01X2230000Y2610000D02*
Y2535000D01*
X2305000Y2460000D01*
X2550440D01*
X2580440Y2490000D01*
X2634500D01*
G01X2390000Y3275000D02*
X2515000Y3400000D01*
X2575000D01*
X2640000Y3335000D01*
X3080000D01*
G01X2625000Y1595000D02*
Y1630000D01*
X2658450Y1663450D01*
X2665000D01*
G01X2625000Y1595000D02*
X2525000Y1695000D01*
G01X2595000Y2655000D02*
X2510000D01*
G01X2665000Y1595000D02*
Y1663450D01*
G01D02*
Y1729500D01*
X2634500Y1760000D01*
G01X2715000Y1595000D02*
Y1713500D01*
X2761500Y1760000D01*
G01X2634500Y2490000D02*
Y2635510D01*
X2645000Y2646010D01*
Y2655000D01*
G01X2761500Y2490000D02*
Y2633500D01*
X2755000Y2640000D01*
G01X3155000Y2730000D02*
X3075000Y2810000D01*
X2775000D01*
X2755000Y2790000D01*
Y2690000D01*
G01D02*
X2855000D01*
X2885000Y2660000D01*
G01X3220000Y2905000D02*
X2775000D01*
X2685000Y2815000D01*
Y2675940D01*
X2720940Y2640000D01*
X2755000D01*
G01X3300000Y2735000D02*
X3630000D01*
X3760000Y2605000D01*
Y1960000D01*
X3480000Y1680000D01*
X3305000D01*
X3225000Y1760000D01*
X3015500D01*
G01X2888500D02*
Y1626500D01*
G01D02*
X2905000Y1610000D01*
G01X2955000D02*
X3300000D01*
G01X2888500Y2490000D02*
Y2604510D01*
X2935000Y2651010D01*
Y2660000D01*
G01X3015500Y2490000D02*
Y2585500D01*
X3030000Y2600000D01*
G01X3640000Y-30000D02*
X3475000D01*
X3455000Y-10000D01*
G01X3440000Y1910000D02*
X3490000Y1960000D01*
X3665000D01*
G01X4375000Y290000D02*
X4135000D01*
X3860000Y565000D01*
X3645000D01*
G01X3790000Y745000D02*
Y760000D01*
X3830000Y800000D01*
X3650000D01*
G01X3880000D02*
X3845000D01*
X3790000Y745000D01*
G01X3880000Y750000D02*
X3880030D01*
X3810000Y679970D01*
Y650000D01*
G01X3705000Y923250D02*
Y855000D01*
X3650000Y800000D01*
G01D02*
X3645000Y795000D01*
G01X3880000Y900000D02*
X3855000D01*
X3825000Y930000D01*
G01X3780000Y860000D02*
Y1005000D01*
X3825000Y1050000D01*
G01Y980000D02*
Y1050000D01*
G01X3705000Y1016750D02*
X3707500D01*
X3785000Y1094250D01*
Y1115000D01*
G01X3995000Y4515000D02*
X3750000Y4760000D01*
X3720000D01*
G01X4010000Y650000D02*
Y620000D01*
X3995000Y605000D01*
G01X3880000Y850000D02*
X3850000D01*
X3840000Y860000D01*
G01X4120000Y840000D02*
X4050000D01*
X4030000Y860000D01*
G01X3995000Y1135000D02*
Y1230000D01*
X3925000Y1300000D01*
G01X3995000Y1085000D02*
Y1045000D01*
X3980000Y1030000D01*
G01X3995000Y1085000D02*
X3875000D01*
G01X4030000Y1030000D02*
Y1035000D01*
X4075000Y1080000D01*
G01X3975000Y1320000D02*
X4080000D01*
X4135000Y1265000D01*
Y1205000D01*
G01X4000000Y1380000D02*
X4240000D01*
X4345000Y1275000D01*
Y1129940D01*
X4303310Y1088250D01*
X4250000D01*
G01X3950000Y2005000D02*
Y1550000D01*
X4005000Y1495000D01*
X4280000D01*
X4485000Y1290000D01*
Y1055030D01*
X4359970Y930000D01*
X4360000D01*
G01X4240000Y2320000D02*
X3885000Y2675000D01*
Y3665000D01*
X4280000Y4060000D01*
G01X3960000Y3435000D02*
Y3010000D01*
X4110000Y2860000D01*
G01X5015000Y-280000D02*
X4565000D01*
X4520000Y-235000D01*
Y360000D01*
X4465000Y415000D01*
X4253050D01*
X4160000Y508050D01*
Y650000D01*
G01X4285000Y540000D02*
X4215000D01*
X4200000Y525000D01*
G01Y585000D02*
Y640000D01*
X4210000Y650000D01*
G01X4245000Y585000D02*
X4200000D01*
G01X4110000Y650000D02*
Y600000D01*
G01X4060000Y650000D02*
Y615000D01*
X4055000Y610000D01*
G01X4230000Y1030000D02*
Y1068250D01*
X4250000Y1088250D01*
G01X4135000Y1155000D02*
Y1035000D01*
X4130000Y1030000D01*
G01X4070000Y1155000D02*
X4135000D01*
G01X4180000Y1030000D02*
Y1295000D01*
X4195000Y1310000D01*
G01X4080000Y1030000D02*
Y1075000D01*
X4075000Y1080000D01*
G01X4070000Y1205000D02*
Y1260000D01*
G01X4390000Y1120000D02*
Y1295000D01*
X4265000Y1420000D01*
X4075000D01*
G01X4260000Y-30000D02*
X4396560D01*
X4455000Y-88440D01*
G01X4360000Y780000D02*
X4369770D01*
X4373820Y775950D01*
X4406180D01*
X4410230Y780000D01*
X4425000D01*
X4445000Y760000D01*
Y725000D01*
X4360000Y640000D01*
Y610000D01*
X4330000Y580000D01*
Y490500D01*
G01X4260000Y650000D02*
X4285000Y625000D01*
Y540000D01*
G01X4430000Y628640D02*
Y667700D01*
X4515000Y752700D01*
Y860000D01*
G01X4430000Y628640D02*
X4625000Y823640D01*
Y930000D01*
G01X4430000Y585000D02*
Y628640D01*
G01X4360000Y830000D02*
X4375000D01*
X4390000Y815000D01*
G01X4360000Y880000D02*
X4380000Y860000D01*
X4455000D01*
G01X4250000Y1181750D02*
Y1295000D01*
G01X4320000Y3585000D02*
X4415000D01*
X4450000Y3550000D01*
G01X4280000Y4060000D02*
X4840000D01*
G01X4330000Y4115000D02*
X4280000Y4065000D01*
Y4060000D01*
G01X4565000Y930000D02*
X4510000D01*
G01X4455000Y860000D02*
Y925000D01*
X4460000Y930000D01*
G01X4545000Y3645000D02*
X4805000D01*
X4830000Y3670000D01*
G01X4780000Y2470000D02*
X4910000D01*
G01X5095000Y4195000D02*
X4975000D01*
X4840000Y4060000D01*
G54D17*
X535000Y1330000D03*
Y1950000D03*
G54D26*
X2634500Y1760000D03*
Y2490000D03*
X2761500Y1760000D03*
Y2490000D03*
X2888500Y1760000D03*
X3015500D03*
Y2490000D03*
X2888500D03*
G54D18*
X805000Y-150000D03*
X995000D03*
X900000Y70000D03*
G54D27*
X3645000Y565000D03*
Y795000D03*
G54D28*
X3705000Y923250D03*
Y1016750D03*
X4250000Y1088250D03*
Y1181750D03*
G54D19*
X955000Y1430000D03*
X1000000Y3375000D03*
X1010000Y3960000D03*
X1575000Y1430000D03*
X1620000Y3375000D03*
X1630000Y3960000D03*
X3640000Y-30000D03*
X4260000D03*
G54D29*
X3920000Y764990D03*
Y914990D03*
Y864990D03*
Y814990D03*
M02*
