G04 ================== begin FILE IDENTIFICATION RECORD ==================*
G04 Layout Name:  C:/Users/Joser/parcial final victor/parcial2.brd*
G04 Film Name:    INTERNAL1*
G04 File Format:  Gerber RS274X*
G04 File Origin:  Cadence Allegro 24.1-S006*
G04 Origin Date:  Mon Nov 10 14:00:51 2025*
G04 *
G04 Layer:  ETCH/INTERNAL1*
G04 Layer:  PIN/INTERNAL1*
G04 Layer:  VIA CLASS/INTERNAL1*
G04 *
G04 Offset:    (0.0000 0.0000)*
G04 Mirror:    No*
G04 Mode:      Positive*
G04 Rotation:  0*
G04 FullContactRelief:  No*
G04 UndefLineWidth:     0.0000*
G04 ================== end FILE IDENTIFICATION RECORD ====================*
%FSLAX25Y25*MOMM*%
%IR0*IPPOS*OFA0.00000B0.00000*MIA0B0*SFA1.00000B1.00000*%
%ADD10C,.4*%
%ADD14C,.65*%
%ADD13C,1.1501*%
%ADD17C,2.7*%
%ADD11C,1.8151*%
%ADD19C,1.286*%
%ADD16C,2.856*%
%ADD12C,2.3099*%
%ADD15C,3.9291*%
%ADD18C,1.1999*%
%ADD20C,.127*%
%ADD22C,.6544*%
%ADD25C,1.5404*%
%ADD23C,1.4544*%
%ADD24C,2.5644*%
%ADD26C,4.1836*%
%ADD21C,2.9544*%
G75*
%LPD*%
G75*
G36*
G01X3110400Y5299990D02*
X5299990D01*
Y-299990D01*
X5056740D01*
G02X5046850Y-287500I-2J10159D01*
G03X5047720Y-280000I-31851J7495D01*
G03X4982280I-32720J0D01*
G03X4983150Y-287500I32721J-5D01*
G02X4973260Y-299990I-9888J-2331D01*
G01X-299990D01*
Y-184620D01*
G02X-282250Y-177860I10158J0D01*
G03X-205000Y-212480I77244J68863D01*
G03Y-5520I0J103480D01*
G03X-282250Y-40140I-6J-103483D01*
G02X-299990Y-33380I-7582J6760D01*
G01Y713380D01*
G02X-282250Y720140I10158J0D01*
G03X-205000Y685520I77244J68863D01*
G03Y892480I0J103480D01*
G03X-282250Y857860I-6J-103483D01*
G02X-299990Y864620I-7582J6760D01*
G01Y2710480D01*
G02X-283140Y2718120I10159J-5D01*
G03X-215000Y2692520I68140J77885D01*
G03Y2899480I0J103480D01*
G03X-283140Y2873880I0J-103485D01*
G02X-299990Y2881520I-6691J7645D01*
G01Y3608480D01*
G02X-283140Y3616120I10159J-5D01*
G03X-215000Y3590520I68140J77885D01*
G03Y3797480I0J103480D01*
G03X-283140Y3771880I0J-103485D01*
G02X-299990Y3779520I-6691J7645D01*
G01Y5299990D01*
X1619600D01*
G02X1626060Y5281990I-1J-10159D01*
G03X1569480Y5162000I98942J-119990D01*
G03X1880520I155520J0D01*
G03X1823940Y5281990I-155522J0D01*
G02X1830400Y5299990I6461J7841D01*
G01X2899600D01*
G02X2906060Y5281990I-1J-10159D01*
G03X2849480Y5162000I98942J-119990D01*
G03X3160520I155520J0D01*
G03X3103940Y5281990I-155522J0D01*
G02X3110400Y5299990I6461J7841D01*
G37*
%LPC*%
G75*
G36*
G01X496250Y-95560D02*
G03X490110Y-99200I-1227J-4928D01*
G02X390000Y-176480I-100110J26202D01*
G02Y30480I0J103480D01*
G02X440770Y17170I0J-103484D01*
G03X447650Y19050I2487J4429D01*
G02X515000Y57850I67350J-39054D01*
G02Y-97850I0J-77850D01*
G02X496250Y-95560I-7J77851D01*
G37*
G36*
G01X4084580Y579400D02*
G03X4071550Y581770I-7894J-6395D01*
G02X4055000Y577280I-16543J28232D01*
G02Y642720I0J32720D01*
G02X4080420Y630600I0J-32717D01*
G03X4093450Y628230I7894J6395D01*
G02X4110000Y632720I16543J-28232D01*
G02Y567280I0J-32720D01*
G02X4084580Y579400I0J32717D01*
G37*
G36*
G01X470850Y670960D02*
G03X455900Y673210I-8484J-5583D01*
G02X390000Y649520I-65892J79793D01*
G02Y856480I0J103480D01*
G02X493160Y761110I0J-103478D01*
G03X505180Y751920I10129J793D01*
G02X515000Y752840I9817J-51920D01*
G02Y647160I0J-52840D01*
G02X470850Y670960I0J52850D01*
G37*
G36*
G01X4222580Y1277140D02*
G03X4209550Y1280690I-8510J-5546D01*
G02X4195000Y1277280I-14544J29311D01*
G02Y1342720I0J32720D01*
G02X4222420Y1327860I0J-32728D01*
G03X4235450Y1324310I8510J5546D01*
G02X4250000Y1327720I14544J-29311D01*
G02Y1262280I0J-32720D01*
G02X4222580Y1277140I0J32728D01*
G37*
G36*
G01X3964840Y1351100D02*
G03X3970760Y1365320I-3159J9658D01*
G02X3967280Y1380000I29239J14684D01*
G02X4032720I32720J0D01*
G02X4010160Y1348900I-32716J0D01*
G03X4004240Y1334680I3159J-9658D01*
G02X4007720Y1320000I-29239J-14684D01*
G02X3975000Y1287280I-32720J0D01*
G02X3961890Y1290020I0J32734D01*
G03X3955170Y1287330I-2036J-4653D01*
G02X3925000Y1267280I-30170J12674D01*
G02Y1332720I0J32720D01*
G02X3938110Y1329980I0J-32734D01*
G03X3944830Y1332670I2036J4653D01*
G02X3964840Y1351100I30166J-12674D01*
G37*
G36*
G01X3408710Y1919570D02*
G03X3400420Y1932600I-9714J2972D01*
G02X3372280Y1965000I4582J32400D01*
G02X3437720I32720J0D01*
G02X3436290Y1955430I-32720J-3D01*
G03X3444580Y1942400I9714J-2972D01*
G02X3472720Y1910000I-4582J-32400D01*
G02X3407280I-32720J0D01*
G02X3408710Y1919570I32720J3D01*
G37*
G36*
G01X1735480Y2197260D02*
G03X1747330Y2206740I1704J10016D01*
G02X1780000Y2237720I32670J-1736D01*
G02Y2172280I0J-32720D01*
G02X1774520Y2172740I-13J32721D01*
G03X1762670Y2163260I-1704J-10016D01*
G02X1730000Y2132280I-32670J1736D01*
G02Y2197720I0J32720D01*
G02X1735480Y2197260I13J-32721D01*
G37*
G36*
G01X486250Y2809440D02*
G03X480110Y2805800I-1227J-4928D01*
G02X380000Y2728520I-100110J26202D01*
G02Y2935480I0J103480D01*
G02X430770Y2922170I0J-103484D01*
G03X437650Y2924050I2487J4429D01*
G02X505000Y2962850I67350J-39054D01*
G02Y2807150I0J-77850D01*
G02X486250Y2809440I-7J77851D01*
G37*
G36*
G01X460850Y3575960D02*
G03X445900Y3578210I-8484J-5583D01*
G02X380000Y3554520I-65892J79793D01*
G02Y3761480I0J103480D01*
G02X483160Y3666110I0J-103478D01*
G03X495180Y3656920I10129J793D01*
G02X505000Y3657840I9817J-51920D01*
G02Y3552160I0J-52840D01*
G02X460850Y3575960I0J52850D01*
G37*
G36*
G01X4242850Y552350D02*
G02X4212280Y585000I2151J32650D01*
G02X4277720I32720J0D01*
G02X4277680Y583310I-32722J-71D01*
G03X4287150Y572650I10145J-524D01*
G02X4317720Y540000I-2151J-32650D01*
G02X4317320Y534890I-32721J-9D01*
G03X4327980Y523160I10033J-1591D01*
G02X4330000Y523220I1981J-32661D01*
G02X4297280Y490500I0J-32720D01*
G02X4297680Y495610I32721J9D01*
G03X4287020Y507340I-10033J1591D01*
G02X4285000Y507280I-1981J32661D01*
G02X4252280Y540000I0J32720D01*
G02X4252320Y541690I32722J71D01*
G03X4242850Y552350I-10145J524D01*
G37*
G36*
G01X2178510Y1523880D02*
G02X2210000Y1547720I31490J-8877D01*
G02Y1482280I0J-32720D01*
G02X2188080Y1490710I0J32714D01*
G03X2171490Y1485920I-6809J-7542D01*
G02X2140000Y1462080I-31490J8877D01*
G02Y1527520I0J32720D01*
G02X2161920Y1519090I0J-32714D01*
G03X2178510Y1523880I6809J7542D01*
G37*
G36*
G01X2101100Y2368290D02*
G02X2087280Y2395000I18901J26710D01*
G02X2152720I32720J0D01*
G02X2138900Y2368290I-32721J0D01*
G03Y2351710I5872J-8290D01*
G02X2152720Y2325000I-18901J-26710D01*
G02X2087280I-32720J0D01*
G02X2101100Y2351710I32721J0D01*
G03Y2368290I-5872J8290D01*
G37*
G36*
G01X1824660Y3066190D02*
G02X1795000Y3047280I-29660J13806D01*
G02Y3112720I0J32720D01*
G02X1822570Y3097630I0J-32731D01*
G03X1840340Y3098810I8561J5469D01*
G02X1870000Y3117720I29660J-13806D01*
G02Y3052280I0J-32720D01*
G02X1842430Y3067370I0J32731D01*
G03X1824660Y3066190I-8561J-5469D01*
G37*
G36*
G01X1961500Y4168060D02*
G02X1887980Y4245000I3500J76940D01*
G02X2042020I77020J0D01*
G02X2013960Y4185550I-77008J0D01*
G03X2019760Y4167560I6456J-7849D01*
G02X2087720Y4095000I-4756J-72560D01*
G02X1942280I-72720J0D01*
G02X1967660Y4150200I72718J0D01*
G03X1961500Y4168060I-6617J7710D01*
G37*
G36*
G01X2712120Y4189010D02*
G02X2687980Y4245000I52877J55997D01*
G02X2842020I77020J0D01*
G02X2773710Y4168470I-77025J0D01*
G03X2767880Y4150990I1148J-10095D01*
G02X2792020Y4095000I-52877J-55997D01*
G02X2637980I-77020J0D01*
G02X2706290Y4171530I77025J0D01*
G03X2712120Y4189010I-1148J10095D01*
G37*
G54D22*
X4455000Y-88440D03*
X190000Y120000D03*
X1845000Y85000D03*
X215000Y270000D03*
X4375000Y290000D03*
X300000Y480000D03*
X690000Y460000D03*
X810710Y415000D03*
X889290D03*
X1430000Y440000D03*
X1670710Y535000D03*
X1749290D03*
X-255000Y595000D03*
X715000Y630000D03*
X1975710Y585570D03*
X2054290D03*
X3790000Y745000D03*
X3810000Y650000D03*
X3915000Y605000D03*
X640000Y795000D03*
X1261920Y895000D03*
X1340500D03*
X4390000Y815000D03*
X-65000Y1030000D03*
X179290Y985000D03*
X100710D03*
X880000Y1060000D03*
X1080710Y1100000D03*
X1159290D03*
X1261920Y1080000D03*
X1340500D03*
X3875000Y1085000D03*
X4390000Y1120000D03*
X2550710Y1335000D03*
X2629290D03*
X2680000Y1270000D03*
X2890000Y1370000D03*
X1805000Y1395000D03*
X1810000Y1550000D03*
X2530000Y1450000D03*
X3005000Y1475000D03*
X3400000Y1585000D03*
X3335710Y1450000D03*
X3414290D03*
X3950000Y1460000D03*
X4075000Y1420000D03*
X-215000Y1610000D03*
X420000Y1605000D03*
X955000Y1760000D03*
X1750000Y1615000D03*
X2115000Y1725000D03*
X2410000Y1651560D03*
X2525000Y1695000D03*
X1330710Y1970000D03*
X1409290D03*
X1717500Y1982500D03*
X2120000Y1985000D03*
X2160000Y1815000D03*
X3665000Y1960000D03*
X4325000Y1795000D03*
X994290Y2020000D03*
X915710D03*
X2120000Y2165000D03*
X3950000Y2005000D03*
X-25000Y2275000D03*
X1154290Y2225000D03*
X1075710D03*
X1620000Y2260000D03*
X3375000Y2265940D03*
X4240000Y2320000D03*
X1155000Y2490000D03*
X1750000Y2575000D03*
X3375000Y2420000D03*
X4310000Y2580000D03*
X4780000Y2470000D03*
X4910000D03*
X430000Y2600000D03*
X994290Y2670000D03*
X915710D03*
X1185200Y2645000D03*
X1263780D03*
X1660000Y2625000D03*
X2080230Y2775000D03*
X2230000Y2610000D03*
X2353590Y2650000D03*
X2835000D03*
X3155000Y2730000D03*
X3055000Y2655000D03*
X3300000Y2735000D03*
X5000Y2975000D03*
X1160000Y2945000D03*
X3100000Y2850000D03*
X3220000Y2905000D03*
X4110000Y2860000D03*
X4185000Y2935000D03*
X204900Y3096320D03*
X126320D03*
X725710Y3175000D03*
X804290D03*
X1260000Y3050000D03*
X1795000Y3165000D03*
X3045000Y3060000D03*
X755000Y3375000D03*
X985000Y3205000D03*
X1780710Y3323140D03*
X2009290Y3375000D03*
X1930710D03*
X1859290Y3323140D03*
X2085000Y3345000D03*
X2160000Y3210000D03*
X2200710Y3295000D03*
X2390000Y3275000D03*
X2279290Y3295000D03*
X2470000Y3250000D03*
X3080000Y3335000D03*
X3794310Y3260000D03*
X3715730D03*
X4015000Y3375000D03*
X4530000D03*
X5245000Y3355000D03*
X2200000Y3460000D03*
X3115000Y3555000D03*
X3410000Y3415000D03*
X3960000Y3435000D03*
X4320000Y3585000D03*
X4450000Y3550000D03*
X745000Y3670000D03*
X845000Y3675000D03*
X2500000Y3805000D03*
X2815710Y3680000D03*
X2894290D03*
X3205000Y3770000D03*
X3330000Y3795000D03*
X3585000Y3675000D03*
X4545000Y3645000D03*
X4830000Y3670000D03*
X1370000Y3885000D03*
X1955000Y3935000D03*
X3775000Y3865000D03*
X765000Y4185000D03*
X3525000Y4135000D03*
X4330000Y4115000D03*
X4840000Y4060000D03*
X5095000Y4195000D03*
X765000Y4275000D03*
X3755000Y4225000D03*
X65000Y4420000D03*
X975000Y4535000D03*
X3995000Y4515000D03*
X950000Y4660000D03*
X1065000Y4735000D03*
X3720000Y4760000D03*
X4100000Y4700000D03*
X315000Y4865000D03*
X1065000Y4950000D03*
X4745000Y4975000D03*
X1135000Y5190000D03*
G54D25*
X2265000Y4095000D03*
X2465000D03*
X2165000Y4245000D03*
X2365000D03*
X2565000D03*
G54D23*
X2120000Y85000D03*
X2370000D03*
X2570000D03*
X2820000D03*
X2070000Y235000D03*
X2270000D03*
X2470000D03*
X2670000D03*
X2870000D03*
G54D24*
X-115000Y1285000D03*
X175000D03*
X-115000Y2015000D03*
X175000D03*
G54D26*
X1708000Y4445000D03*
X3022000D03*
G54D21*
X1813000Y-115000D03*
X3127000D03*
%LPD*%
G75*
G54D10*
X-205000Y-230000D03*
X-255000Y595000D03*
X-205000Y1020000D03*
X-215000Y1610000D03*
Y2635000D03*
Y3935000D03*
X-65000Y1030000D03*
X-55000Y1415000D03*
X-165000Y1490000D03*
X-40000Y1680000D03*
X-55000Y2175000D03*
X-25000Y2275000D03*
X5000Y2975000D03*
X190000Y120000D03*
X215000Y270000D03*
X179290Y985000D03*
X100710D03*
X75000Y1420000D03*
X110000Y2170000D03*
X204900Y3096320D03*
X126320D03*
X190000Y4085000D03*
X165000Y4370000D03*
X65000Y4420000D03*
X170000Y4430000D03*
X337500Y77500D03*
X300000Y480000D03*
X420000Y1605000D03*
X430000Y2600000D03*
X250000Y3775000D03*
X315000Y4865000D03*
X500000Y-183000D03*
X477500Y627500D03*
X581000Y639000D03*
X505000Y805000D03*
X535000Y1160000D03*
X540000Y2710000D03*
X600000Y4680000D03*
X510000Y4735000D03*
X652500Y52500D03*
X690000Y460000D03*
X810710Y415000D03*
X715000Y630000D03*
X640000Y795000D03*
X785000Y2730000D03*
X725710Y3175000D03*
X804290D03*
X755000Y3375000D03*
X747500Y3507500D03*
X745000Y3670000D03*
X790000Y3790000D03*
X765000Y4185000D03*
X755000Y4130000D03*
X765000Y4275000D03*
X1020000Y70000D03*
X889290Y415000D03*
X880000Y1060000D03*
X955000Y1760000D03*
X994290Y2020000D03*
X915710D03*
X994290Y2670000D03*
X915710D03*
X985000Y3205000D03*
X845000Y3675000D03*
X975000Y4535000D03*
X845000Y4420000D03*
X950000Y4660000D03*
X905000Y4850000D03*
X960000Y5120000D03*
X1100000Y-60000D03*
X1080710Y1100000D03*
X1159290D03*
X1154290Y2225000D03*
X1075710D03*
X1155000Y2490000D03*
X1185200Y2645000D03*
X1160000Y2945000D03*
X1065000Y4735000D03*
Y4950000D03*
X1135000Y5190000D03*
X1290000Y130000D03*
X1255000Y190000D03*
X1430000Y440000D03*
X1261920Y895000D03*
X1340500D03*
X1261920Y1080000D03*
X1340500D03*
X1330710Y1970000D03*
X1409290D03*
X1263780Y2645000D03*
X1260000Y3050000D03*
X1370000Y3885000D03*
X1620000Y2260000D03*
X1555000Y2660000D03*
X1620000Y3165000D03*
X1465000Y3735000D03*
X1670710Y535000D03*
X1749290D03*
X1765000Y1335000D03*
X1805000Y1395000D03*
X1810000Y1550000D03*
X1750000Y1615000D03*
X1655000Y1725000D03*
X1717500Y1982500D03*
X1810000Y1965000D03*
X1780000Y1850000D03*
X1730000Y2165000D03*
X1780000Y2205000D03*
X1795000Y2325000D03*
X1750000Y2575000D03*
X1660000Y2625000D03*
X1795000Y3080000D03*
Y3165000D03*
X1780710Y3323140D03*
X1835000Y4645000D03*
X1985000Y-115000D03*
X1845000Y85000D03*
X1975710Y585570D03*
X1950000Y1345000D03*
X1870000Y1615000D03*
X1940000Y1595000D03*
X1845000Y2645000D03*
X1971130Y2750000D03*
X1870000Y3085000D03*
X2009290Y3375000D03*
X1930710D03*
X1859290Y3323140D03*
X1955000Y3935000D03*
X1935000Y5115000D03*
X2054290Y585570D03*
X2140000Y1494800D03*
X2210000Y1515000D03*
X2115000Y1725000D03*
X2120000Y1985000D03*
X2160000Y1815000D03*
X2120000Y2165000D03*
Y2325000D03*
Y2395000D03*
X2080230Y2775000D03*
X2230000Y2610000D03*
X2070000Y2872700D03*
X2145000Y2895000D03*
X2085000Y3345000D03*
X2160000Y3210000D03*
X2200710Y3295000D03*
X2200000Y3460000D03*
X2380000Y1335000D03*
X2410000Y1651560D03*
X2353590Y2650000D03*
X2410000Y2920000D03*
X2290000Y2930000D03*
X2390000Y3275000D03*
X2279290Y3295000D03*
X2365000Y4365000D03*
X2605000Y330000D03*
X2550710Y1335000D03*
X2629290D03*
X2530000Y1450000D03*
X2525000Y1695000D03*
X2610000Y2165000D03*
X2510000Y2655000D03*
X2470000Y3250000D03*
X2605000Y3310000D03*
X2500000Y3805000D03*
X2760000Y-25000D03*
X2680000Y1270000D03*
X2805000Y1390000D03*
X2835000Y2650000D03*
X2730000Y2935000D03*
X2815710Y3680000D03*
X2795000Y4640000D03*
X2805000Y5080000D03*
X2945000Y-155000D03*
X2890000Y1370000D03*
X2990000Y1270000D03*
X3005000Y1475000D03*
X3030000Y2600000D03*
X2970000Y2950000D03*
X3015000D03*
X3045000Y3060000D03*
X2894290Y3680000D03*
X2920000Y4145000D03*
X3155000Y2730000D03*
X3055000Y2655000D03*
X3100000Y2850000D03*
X3220000Y2905000D03*
X3080000Y3335000D03*
X3115000Y3555000D03*
X3205000Y3770000D03*
X3455000Y-10000D03*
X3353250Y661750D03*
X3400000Y1585000D03*
X3335710Y1450000D03*
X3414290D03*
X3400000Y1765000D03*
X3300000Y1610000D03*
X3405000Y1965000D03*
X3440000Y1910000D03*
X3395000Y1845000D03*
X3420000Y2085000D03*
X3375000Y2265940D03*
X3420000Y2325000D03*
X3375000Y2420000D03*
X3300000Y2735000D03*
X3410000Y3415000D03*
X3330000Y3795000D03*
X3585000Y3675000D03*
X3525000Y4135000D03*
X3790000Y745000D03*
X3810000Y650000D03*
X3825000Y1050000D03*
X3785000Y1115000D03*
X3665000Y1960000D03*
X3794310Y3260000D03*
X3715730D03*
X3775000Y3865000D03*
X3755000Y4225000D03*
X3720000Y4760000D03*
X4055000Y610000D03*
X3915000Y605000D03*
X3995000D03*
X4030000Y860000D03*
X3875000Y1085000D03*
X4000000Y1380000D03*
X3925000Y1300000D03*
X3975000Y1320000D03*
X3950000Y1460000D03*
X4045000Y1880750D03*
X3950000Y2005000D03*
X4055000Y2195000D03*
X3925000Y2570000D03*
X4015000Y3375000D03*
X3960000Y3435000D03*
X3995000Y4515000D03*
X4245000Y585000D03*
X4110000Y600000D03*
X4075000Y1080000D03*
X4250000Y1295000D03*
X4195000Y1310000D03*
X4070000Y1260000D03*
X4075000Y1420000D03*
X4240000Y2320000D03*
X4225000Y2420000D03*
X4110000Y2860000D03*
X4185000Y2935000D03*
Y3335000D03*
X4195000Y4340000D03*
X4165000Y4600000D03*
X4100000Y4700000D03*
X4455000Y-88440D03*
X4375000Y290000D03*
X4330000Y490500D03*
X4285000Y540000D03*
X4430000Y585000D03*
X4390000Y815000D03*
Y1120000D03*
X4325000Y1795000D03*
X4375000Y2320000D03*
X4310000Y2580000D03*
X4395000Y2830000D03*
X4305000Y3225000D03*
X4320000Y3585000D03*
X4450000Y3550000D03*
X4400000Y3510000D03*
X4330000Y4115000D03*
X4275000Y4650000D03*
X4624500Y-240000D03*
X4470000Y-155000D03*
Y2585000D03*
X4505000Y2895000D03*
X4620000D03*
X4530000Y3375000D03*
X4545000Y3645000D03*
X4495000Y3610000D03*
X4660000Y4330000D03*
X4590000Y4965000D03*
X4505000Y4970000D03*
X4751500Y-226500D03*
X4725000Y2230000D03*
X4780000Y2470000D03*
X4765000Y3135000D03*
X4735000Y3405000D03*
X4830000Y3670000D03*
X4840000Y4060000D03*
X4835000Y4665000D03*
X4745000Y4975000D03*
X5015000Y-280000D03*
X4878500Y-216500D03*
X4910000Y2470000D03*
X4953250Y2401750D03*
X5245000Y3355000D03*
X5085000Y3410000D03*
X5095000Y4195000D03*
G54D20*
G01X-205000Y-217560D02*
Y-109000D01*
G01D02*
Y-440D01*
G01Y-109000D02*
X-96440D01*
G01X-205000Y680440D02*
Y789000D01*
G01D02*
Y897560D01*
G01Y789000D02*
X-96440D01*
G01X-248300Y1285000D02*
X-115000D01*
G01X-248300Y2015000D02*
X-115000D01*
G01X-215000Y2687440D02*
Y2796000D01*
G01D02*
Y2904560D01*
G01Y2796000D02*
X-106440D01*
G01X-215000Y3585440D02*
Y3694000D01*
G01D02*
Y3802560D01*
G01Y3694000D02*
X-106440D01*
G01X-115000Y1151700D02*
Y1285000D01*
G01D02*
Y1418300D01*
G01Y1285000D02*
X18300D01*
G01X-115000Y1881700D02*
Y2015000D01*
G01D02*
Y2148300D01*
G01Y2015000D02*
X18300D01*
G01X175000Y1151700D02*
Y1285000D01*
G01D02*
Y1418300D01*
G01X41700Y1285000D02*
X175000D01*
G01D02*
X308300D01*
G01X175000Y1881700D02*
Y2015000D01*
G01D02*
Y2148300D01*
G01X41700Y2015000D02*
X175000D01*
G01D02*
X308300D01*
G01X390000Y-181560D02*
Y-73000D01*
G01D02*
Y35560D01*
G01X281440Y-73000D02*
X390000D01*
G01Y644440D02*
Y753000D01*
G01D02*
Y861560D01*
G01X281440Y753000D02*
X390000D01*
G01X380000Y2723440D02*
Y2832000D01*
G01D02*
Y2940560D01*
G01X271440Y2832000D02*
X380000D01*
G01Y3549440D02*
Y3658000D01*
G01D02*
Y3766560D01*
G01X271440Y3658000D02*
X380000D01*
G01X1493740Y4445000D02*
X1708000D01*
G01X1564400Y5162000D02*
X1725000D01*
G01X1813000Y-267800D02*
Y-115000D01*
G01D02*
Y37800D01*
G01X1660200Y-115000D02*
X1813000D01*
G01D02*
X1965800D01*
G01X1708000Y4230740D02*
Y4445000D01*
G01D02*
Y4659260D01*
G01Y4445000D02*
X1922260D01*
G01X1725000Y5001400D02*
Y5162000D01*
G01D02*
X1885600D01*
G01X2392200Y235000D02*
X2470000D01*
G01X2365000Y4162900D02*
Y4245000D01*
G01D02*
Y4327100D01*
G01X2282900Y4245000D02*
X2365000D01*
G01D02*
X2447100D01*
G01X2470000Y157200D02*
Y235000D01*
G01D02*
Y312800D01*
G01Y235000D02*
X2547800D01*
G01X2820000Y7200D02*
Y85000D01*
G01D02*
Y162800D01*
G01X2742200Y85000D02*
X2820000D01*
G01D02*
X2897800D01*
G01X2715000Y4012900D02*
Y4095000D01*
G01X2632900D02*
X2715000D01*
G01D02*
X2797100D01*
G01X2807740Y4445000D02*
X3022000D01*
G01X2974200Y-115000D02*
X3127000D01*
G01X3022000Y4230740D02*
Y4445000D01*
G01D02*
Y4659260D01*
G01Y4445000D02*
X3236260D01*
G01X3005000Y5001400D02*
Y5162000D01*
G01X2844400D02*
X3005000D01*
G01D02*
X3165600D01*
G01X3127000Y-267800D02*
Y-115000D01*
G01Y72000D02*
Y-115000D01*
G01D02*
X3279800D01*
G01X3165000Y110000D02*
X3127000Y72000D01*
G54D11*
X-205000Y-109000D03*
Y789000D03*
X-215000Y2796000D03*
Y3694000D03*
X390000Y-73000D03*
Y753000D03*
X380000Y2832000D03*
Y3658000D03*
G54D12*
X-115000Y1285000D03*
Y2015000D03*
X175000Y1285000D03*
Y2015000D03*
G54D13*
X515000Y-20000D03*
X505000Y2885000D03*
G54D14*
X515000Y700000D03*
X505000Y3605000D03*
G54D15*
X1708000Y4445000D03*
X3022000D03*
G54D16*
X1725000Y5162000D03*
X3005000D03*
G54D17*
X1813000Y-115000D03*
X3127000D03*
G54D18*
X2070000Y235000D03*
X2015000Y4095000D03*
X2120000Y85000D03*
X2270000Y235000D03*
X2370000Y85000D03*
X2470000Y235000D03*
X2570000Y85000D03*
X2670000Y235000D03*
X2820000Y85000D03*
X2870000Y235000D03*
G54D19*
X1965000Y4245000D03*
X2265000Y4095000D03*
X2165000Y4245000D03*
X2465000Y4095000D03*
X2365000Y4245000D03*
X2565000D03*
X2715000Y4095000D03*
X2765000Y4245000D03*
M02*
