G04 ================== begin FILE IDENTIFICATION RECORD ==================*
G04 Layout Name:  C:/Users/Joser/parcial final victor/parcial2.brd*
G04 Film Name:    INTERNAL2*
G04 File Format:  Gerber RS274X*
G04 File Origin:  Cadence Allegro 24.1-S006*
G04 Origin Date:  Mon Nov 10 14:00:51 2025*
G04 *
G04 Layer:  ETCH/INTERNAL2*
G04 Layer:  PIN/INTERNAL2*
G04 Layer:  VIA CLASS/INTERNAL2*
G04 *
G04 Offset:    (0.0000 0.0000)*
G04 Mirror:    No*
G04 Mode:      Positive*
G04 Rotation:  0*
G04 FullContactRelief:  No*
G04 UndefLineWidth:     0.0000*
G04 ================== end FILE IDENTIFICATION RECORD ====================*
%FSLAX25Y25*MOMM*%
%IR0*IPPOS*OFA0.00000B0.00000*MIA0B0*SFA1.00000B1.00000*%
%ADD10C,.4*%
%ADD14C,.65*%
%ADD13C,1.1501*%
%ADD17C,2.7*%
%ADD11C,1.8151*%
%ADD19C,1.286*%
%ADD16C,2.856*%
%ADD12C,2.3099*%
%ADD15C,3.9291*%
%ADD18C,1.1999*%
%ADD20C,.127*%
G75*
%LPD*%
G75*
G54D10*
X-205000Y-230000D03*
X-255000Y595000D03*
X-205000Y1020000D03*
X-215000Y1610000D03*
Y2635000D03*
Y3935000D03*
X-65000Y1030000D03*
X-55000Y1415000D03*
X-165000Y1490000D03*
X-40000Y1680000D03*
X-55000Y2175000D03*
X-25000Y2275000D03*
X5000Y2975000D03*
X190000Y120000D03*
X215000Y270000D03*
X179290Y985000D03*
X100710D03*
X75000Y1420000D03*
X110000Y2170000D03*
X204900Y3096320D03*
X126320D03*
X190000Y4085000D03*
X165000Y4370000D03*
X65000Y4420000D03*
X170000Y4430000D03*
X337500Y77500D03*
X300000Y480000D03*
X420000Y1605000D03*
X430000Y2600000D03*
X250000Y3775000D03*
X315000Y4865000D03*
X500000Y-183000D03*
X477500Y627500D03*
X581000Y639000D03*
X505000Y805000D03*
X535000Y1160000D03*
X540000Y2710000D03*
X600000Y4680000D03*
X510000Y4735000D03*
X652500Y52500D03*
X690000Y460000D03*
X810710Y415000D03*
X715000Y630000D03*
X640000Y795000D03*
X785000Y2730000D03*
X725710Y3175000D03*
X804290D03*
X755000Y3375000D03*
X747500Y3507500D03*
X745000Y3670000D03*
X790000Y3790000D03*
X765000Y4185000D03*
X755000Y4130000D03*
X765000Y4275000D03*
X1020000Y70000D03*
X889290Y415000D03*
X880000Y1060000D03*
X955000Y1760000D03*
X994290Y2020000D03*
X915710D03*
X994290Y2670000D03*
X915710D03*
X985000Y3205000D03*
X845000Y3675000D03*
X975000Y4535000D03*
X845000Y4420000D03*
X950000Y4660000D03*
X905000Y4850000D03*
X960000Y5120000D03*
X1100000Y-60000D03*
X1080710Y1100000D03*
X1159290D03*
X1154290Y2225000D03*
X1075710D03*
X1155000Y2490000D03*
X1185200Y2645000D03*
X1160000Y2945000D03*
X1065000Y4735000D03*
Y4950000D03*
X1135000Y5190000D03*
X1290000Y130000D03*
X1255000Y190000D03*
X1430000Y440000D03*
X1261920Y895000D03*
X1340500D03*
X1261920Y1080000D03*
X1340500D03*
X1330710Y1970000D03*
X1409290D03*
X1263780Y2645000D03*
X1260000Y3050000D03*
X1370000Y3885000D03*
X1620000Y2260000D03*
X1555000Y2660000D03*
X1620000Y3165000D03*
X1465000Y3735000D03*
X1670710Y535000D03*
X1749290D03*
X1765000Y1335000D03*
X1805000Y1395000D03*
X1810000Y1550000D03*
X1750000Y1615000D03*
X1655000Y1725000D03*
X1717500Y1982500D03*
X1810000Y1965000D03*
X1780000Y1850000D03*
X1730000Y2165000D03*
X1780000Y2205000D03*
X1795000Y2325000D03*
X1750000Y2575000D03*
X1660000Y2625000D03*
X1795000Y3080000D03*
Y3165000D03*
X1780710Y3323140D03*
X1835000Y4645000D03*
X1985000Y-115000D03*
X1845000Y85000D03*
X1975710Y585570D03*
X1950000Y1345000D03*
X1870000Y1615000D03*
X1940000Y1595000D03*
X1845000Y2645000D03*
X1971130Y2750000D03*
X1870000Y3085000D03*
X2009290Y3375000D03*
X1930710D03*
X1859290Y3323140D03*
X1955000Y3935000D03*
X1935000Y5115000D03*
X2054290Y585570D03*
X2140000Y1494800D03*
X2210000Y1515000D03*
X2115000Y1725000D03*
X2120000Y1985000D03*
X2160000Y1815000D03*
X2120000Y2165000D03*
Y2325000D03*
Y2395000D03*
X2080230Y2775000D03*
X2230000Y2610000D03*
X2070000Y2872700D03*
X2145000Y2895000D03*
X2085000Y3345000D03*
X2160000Y3210000D03*
X2200710Y3295000D03*
X2200000Y3460000D03*
X2380000Y1335000D03*
X2410000Y1651560D03*
X2353590Y2650000D03*
X2410000Y2920000D03*
X2290000Y2930000D03*
X2390000Y3275000D03*
X2279290Y3295000D03*
X2365000Y4365000D03*
X2605000Y330000D03*
X2550710Y1335000D03*
X2629290D03*
X2530000Y1450000D03*
X2525000Y1695000D03*
X2610000Y2165000D03*
X2510000Y2655000D03*
X2470000Y3250000D03*
X2605000Y3310000D03*
X2500000Y3805000D03*
X2760000Y-25000D03*
X2680000Y1270000D03*
X2805000Y1390000D03*
X2835000Y2650000D03*
X2730000Y2935000D03*
X2815710Y3680000D03*
X2795000Y4640000D03*
X2805000Y5080000D03*
X2945000Y-155000D03*
X2890000Y1370000D03*
X2990000Y1270000D03*
X3005000Y1475000D03*
X3030000Y2600000D03*
X2970000Y2950000D03*
X3015000D03*
X3045000Y3060000D03*
X2894290Y3680000D03*
X2920000Y4145000D03*
X3155000Y2730000D03*
X3055000Y2655000D03*
X3100000Y2850000D03*
X3220000Y2905000D03*
X3080000Y3335000D03*
X3115000Y3555000D03*
X3205000Y3770000D03*
X3455000Y-10000D03*
X3353250Y661750D03*
X3400000Y1585000D03*
X3335710Y1450000D03*
X3414290D03*
X3400000Y1765000D03*
X3300000Y1610000D03*
X3405000Y1965000D03*
X3440000Y1910000D03*
X3395000Y1845000D03*
X3420000Y2085000D03*
X3375000Y2265940D03*
X3420000Y2325000D03*
X3375000Y2420000D03*
X3300000Y2735000D03*
X3410000Y3415000D03*
X3330000Y3795000D03*
X3585000Y3675000D03*
X3525000Y4135000D03*
X3790000Y745000D03*
X3810000Y650000D03*
X3825000Y1050000D03*
X3785000Y1115000D03*
X3665000Y1960000D03*
X3794310Y3260000D03*
X3715730D03*
X3775000Y3865000D03*
X3755000Y4225000D03*
X3720000Y4760000D03*
X4055000Y610000D03*
X3915000Y605000D03*
X3995000D03*
X4030000Y860000D03*
X3875000Y1085000D03*
X4000000Y1380000D03*
X3925000Y1300000D03*
X3975000Y1320000D03*
X3950000Y1460000D03*
X4045000Y1880750D03*
X3950000Y2005000D03*
X4055000Y2195000D03*
X3925000Y2570000D03*
X4015000Y3375000D03*
X3960000Y3435000D03*
X3995000Y4515000D03*
X4245000Y585000D03*
X4110000Y600000D03*
X4075000Y1080000D03*
X4250000Y1295000D03*
X4195000Y1310000D03*
X4070000Y1260000D03*
X4075000Y1420000D03*
X4240000Y2320000D03*
X4225000Y2420000D03*
X4110000Y2860000D03*
X4185000Y2935000D03*
Y3335000D03*
X4195000Y4340000D03*
X4165000Y4600000D03*
X4100000Y4700000D03*
X4455000Y-88440D03*
X4375000Y290000D03*
X4330000Y490500D03*
X4285000Y540000D03*
X4430000Y585000D03*
X4390000Y815000D03*
Y1120000D03*
X4325000Y1795000D03*
X4375000Y2320000D03*
X4310000Y2580000D03*
X4395000Y2830000D03*
X4305000Y3225000D03*
X4320000Y3585000D03*
X4450000Y3550000D03*
X4400000Y3510000D03*
X4330000Y4115000D03*
X4275000Y4650000D03*
X4624500Y-240000D03*
X4470000Y-155000D03*
Y2585000D03*
X4505000Y2895000D03*
X4620000D03*
X4530000Y3375000D03*
X4545000Y3645000D03*
X4495000Y3610000D03*
X4660000Y4330000D03*
X4590000Y4965000D03*
X4505000Y4970000D03*
X4751500Y-226500D03*
X4725000Y2230000D03*
X4780000Y2470000D03*
X4765000Y3135000D03*
X4735000Y3405000D03*
X4830000Y3670000D03*
X4840000Y4060000D03*
X4835000Y4665000D03*
X4745000Y4975000D03*
X5015000Y-280000D03*
X4878500Y-216500D03*
X4910000Y2470000D03*
X4953250Y2401750D03*
X5245000Y3355000D03*
X5085000Y3410000D03*
X5095000Y4195000D03*
G54D20*
G01X1155000Y2490000D02*
X1080000Y2415000D01*
X-120000D01*
X-260000Y2275000D01*
Y1220000D01*
X-129450Y1089450D01*
Y914450D01*
X-45000Y830000D01*
Y630000D01*
X-80000Y595000D01*
X-255000D01*
G01X420000Y1605000D02*
X205000Y1820000D01*
X-115000D01*
X-215000Y1720000D01*
Y1610000D01*
G01X690000Y460000D02*
X630950Y519050D01*
X255950D01*
X-19600Y794600D01*
Y879600D01*
X-104050Y964050D01*
Y1090950D01*
X-55000Y1140000D01*
X285000D01*
X640000Y1495000D01*
X2100740D01*
X2100940Y1494800D01*
X2140000D01*
G01X2530000Y1450000D02*
X2490940D01*
X2485940Y1455000D01*
X650000D01*
X305000Y1110000D01*
X15000D01*
X-65000Y1030000D01*
G01X5000Y2975000D02*
Y2820000D01*
X225000Y2600000D01*
X430000D01*
G01X315000Y4865000D02*
X-105000Y4445000D01*
Y3420000D01*
X40000Y3275000D01*
X830000D01*
X1160000Y2945000D01*
G01X215000Y270000D02*
X700000D01*
X775000Y345000D01*
Y395480D01*
X771660Y398820D01*
Y431180D01*
X775000Y434520D01*
Y570000D01*
X715000Y630000D01*
G01X640000Y795000D02*
Y940000D01*
X760000Y1060000D01*
X880000D01*
G01X1260000Y3050000D02*
X1200000Y3110000D01*
Y3215000D01*
X745000Y3670000D01*
G01X3005000Y1475000D02*
Y1975000D01*
X3420000Y2390000D01*
Y2685000D01*
X3280000Y2825000D01*
Y2900230D01*
X3236180Y2944050D01*
X3064280D01*
X3031180Y2910950D01*
X2809280D01*
X2590230Y3130000D01*
X1815230D01*
X1811180Y3125950D01*
X1778820D01*
X1774770Y3130000D01*
X1640230D01*
X1636180Y3125950D01*
X1603820D01*
X800000Y3929770D01*
Y4164770D01*
X804050Y4168820D01*
Y4201180D01*
X800000Y4205230D01*
Y4255000D01*
X905000Y4360000D01*
Y4710000D01*
X1065000Y4870000D01*
Y4950000D01*
G01X1870000Y3085000D02*
Y2920000D01*
X2175000Y2615000D01*
Y2535940D01*
X2094600Y2455540D01*
Y2424830D01*
X2080950Y2411180D01*
Y2410950D01*
X1430000Y1760000D01*
X955000D01*
G01X985000Y3205000D02*
X1345000Y2845000D01*
Y2640000D01*
X1780000Y2205000D01*
G01X3405000Y1965000D02*
Y2044770D01*
X3380950Y2068820D01*
Y2216660D01*
X3414050Y2249760D01*
Y2263820D01*
X3460000Y2309770D01*
Y2810000D01*
X3294050Y2975950D01*
X3044280D01*
X2625230Y3395000D01*
X2175000D01*
X1880000Y3690000D01*
X1670000D01*
X975000Y4385000D01*
Y4535000D01*
G01X950000Y4660000D02*
X1460000Y4150000D01*
X1750000D01*
X1925950Y3974050D01*
X2695950D01*
X3115000Y3555000D01*
G01X1135000Y5190000D02*
X1140000Y5195000D01*
X1175000D01*
X1610000Y4760000D01*
X3720000D01*
G01X3045000Y3060000D02*
X3355000D01*
X3485400Y2929600D01*
Y1020400D01*
X3240000Y775000D01*
X1765000D01*
X1430000Y440000D01*
G01X1717500Y1982500D02*
X1600000Y1865000D01*
Y1835000D01*
X1565000Y1800000D01*
Y1730000D01*
X1680000Y1615000D01*
X1750000D01*
G01X1805000Y1395000D02*
X2035000Y1165000D01*
X2980000D01*
X3400000Y1585000D01*
G01X3375000Y2420000D02*
Y2515000D01*
X3325000Y2565000D01*
X3050230D01*
X3046180Y2560950D01*
X3013820D01*
X3009770Y2565000D01*
X2390000D01*
X2165000Y2340000D01*
Y1905000D01*
X1914050Y1654050D01*
X1853820D01*
X1810000Y1610230D01*
Y1550000D01*
G01X2115000Y1725000D02*
Y1770000D01*
X2160000Y1815000D01*
G01X2115000Y1725000D02*
X2154060D01*
X2164060Y1735000D01*
X2385000D01*
X2410000Y1710000D01*
Y1651560D01*
G01X2160000Y1815000D02*
X2220230D01*
X2680000Y1355230D01*
Y1270000D01*
G01X2120000Y1985000D02*
Y2165000D01*
G01D02*
Y2325000D01*
G01Y2395000D02*
Y2325000D01*
G01X2835000Y2650000D02*
X2800950Y2615950D01*
X2291180D01*
X2120000Y2444770D01*
Y2395000D01*
G01X2080230Y2775000D02*
X2186180Y2880950D01*
X3037110D01*
X3051160Y2895000D01*
X3140000D01*
X3185000Y2850000D01*
Y2800000D01*
X3160000Y2775000D01*
X3135940D01*
X3055000Y2694060D01*
Y2655000D01*
G01X2470000Y3250000D02*
X2429050Y3290950D01*
Y3291180D01*
X2406180Y3314050D01*
X2405950D01*
X2375000Y3345000D01*
X2085000D01*
G01X2160000Y3210000D02*
X2190000Y3180000D01*
X2295000D01*
X2390000Y3275000D01*
G01X2200000Y3460000D02*
X2365000Y3625000D01*
X2660000D01*
X3050000Y3235000D01*
X3390000D01*
X3585000Y3430000D01*
Y3675000D01*
G01X2230000Y2610000D02*
Y2675000D01*
X2405000Y2850000D01*
X3100000D01*
G01X3330000Y3795000D02*
Y3585000D01*
X3080000Y3335000D01*
G01X4745000Y4975000D02*
X4785000Y5015000D01*
Y5075000D01*
X4720000Y5140000D01*
X4375000D01*
X3410000Y4175000D01*
Y3415000D01*
G01X3790000Y745000D02*
X3735000Y690000D01*
Y650000D01*
X3819050Y565950D01*
X4075950D01*
X4110000Y600000D01*
G01X3790000Y745000D02*
X3645000Y890000D01*
Y1030230D01*
X3768820Y1154050D01*
X3805950D01*
X3875000Y1085000D01*
G01X4000000Y1380000D02*
X4027620Y1352380D01*
Y1317390D01*
X3910230Y1200000D01*
X3860000D01*
X3835000Y1225000D01*
Y1415000D01*
X3880000Y1460000D01*
X3950000D01*
G01X4100000Y4700000D02*
X3665000Y4265000D01*
Y1960000D01*
G01X3775000Y3865000D02*
X3900000Y3740000D01*
Y3240000D01*
X3820000Y3160000D01*
X3755000D01*
X3705000Y3110000D01*
Y2910000D01*
X4035000Y2580000D01*
X4310000D01*
G01X3960000Y3435000D02*
Y4020000D01*
X3755000Y4225000D01*
G01X4530000Y3375000D02*
X4015000D01*
G01X4325000Y1795000D02*
Y1210000D01*
X4295000Y1180000D01*
Y1040000D01*
X4055000Y800000D01*
Y610000D01*
G01X4195000Y1310000D02*
Y1665000D01*
X4250000Y1720000D01*
G01X5245000Y3355000D02*
X4605000D01*
X4185000Y2935000D01*
G01X4375000Y290000D02*
Y505230D01*
X4295230Y585000D01*
X4245000D01*
G01X4250000Y1295000D02*
Y1720000D01*
G01D02*
X4325000Y1795000D01*
G54D11*
X-205000Y-109000D03*
Y789000D03*
X-215000Y2796000D03*
Y3694000D03*
X390000Y-73000D03*
Y753000D03*
X380000Y2832000D03*
Y3658000D03*
G54D12*
X-115000Y1285000D03*
Y2015000D03*
X175000Y1285000D03*
Y2015000D03*
G54D13*
X515000Y-20000D03*
X505000Y2885000D03*
G54D14*
X515000Y700000D03*
X505000Y3605000D03*
G54D15*
X1708000Y4445000D03*
X3022000D03*
G54D16*
X1725000Y5162000D03*
X3005000D03*
G54D17*
X1813000Y-115000D03*
X3127000D03*
G54D18*
X2070000Y235000D03*
X2015000Y4095000D03*
X2120000Y85000D03*
X2270000Y235000D03*
X2370000Y85000D03*
X2470000Y235000D03*
X2570000Y85000D03*
X2670000Y235000D03*
X2820000Y85000D03*
X2870000Y235000D03*
G54D19*
X1965000Y4245000D03*
X2265000Y4095000D03*
X2165000Y4245000D03*
X2465000Y4095000D03*
X2365000Y4245000D03*
X2565000D03*
X2715000Y4095000D03*
X2765000Y4245000D03*
M02*
