G04 ================== begin FILE IDENTIFICATION RECORD ==================*
G04 Layout Name:  C:/Users/Joser/parcial final victor/parcial2.brd*
G04 Film Name:    NCLEGEND-1-4*
G04 File Format:  Gerber RS274X*
G04 File Origin:  Cadence Allegro 24.1-S006*
G04 Origin Date:  Mon Nov 10 14:40:56 2025*
G04 *
G04 Layer:  MANUFACTURING/NCLEGEND-1-4*
G04 Layer:  BOARD GEOMETRY/CUTOUT*
G04 Layer:  BOARD GEOMETRY/DESIGN_OUTLINE*
G04 Layer:  BOARD GEOMETRY/DIMENSION*
G04 *
G04 Offset:    (0.0000 0.0000)*
G04 Mirror:    No*
G04 Mode:      Positive*
G04 Rotation:  0*
G04 FullContactRelief:  No*
G04 UndefLineWidth:     0.1524*
G04 ================== end FILE IDENTIFICATION RECORD ====================*
%FSLAX25Y25*MOMM*%
%IR0*IPPOS*OFA0.00000B0.00000*MIA0B0*SFA1.00000B1.00000*%
%AMMACRO10*
1,1,.1524,.635,0.0*
20,1,.1524,.635,0.0,.625353,-.110267,0.0*
1,1,.1524,.625353,-.110267*
20,1,.1524,.625353,-.110267,.596705,-.217183,0.0*
1,1,.1524,.596705,-.217183*
20,1,.1524,.596705,-.217183,.549926,-.3175,0.0*
1,1,.1524,.549926,-.3175*
20,1,.1524,.549926,-.3175,.486438,-.40817,0.0*
1,1,.1524,.486438,-.40817*
20,1,.1524,.486438,-.40817,.40817,-.486438,0.0*
1,1,.1524,.40817,-.486438*
20,1,.1524,.40817,-.486438,.3175,-.549926,0.0*
1,1,.1524,.3175,-.549926*
20,1,.1524,.3175,-.549926,.217183,-.596705,0.0*
1,1,.1524,.217183,-.596705*
20,1,.1524,.217183,-.596705,.110267,-.625353,0.0*
1,1,.1524,.110267,-.625353*
20,1,.1524,.110267,-.625353,0.0,-.635,0.0*
1,1,.1524,0.0,-.635*
20,1,.1524,0.0,-.635,-.110267,-.625353,0.0*
1,1,.1524,-.110267,-.625353*
20,1,.1524,-.110267,-.625353,-.217183,-.596705,0.0*
1,1,.1524,-.217183,-.596705*
20,1,.1524,-.217183,-.596705,-.3175,-.549926,0.0*
1,1,.1524,-.3175,-.549926*
20,1,.1524,-.3175,-.549926,-.40817,-.486438,0.0*
1,1,.1524,-.40817,-.486438*
20,1,.1524,-.40817,-.486438,-.486438,-.40817,0.0*
1,1,.1524,-.486438,-.40817*
20,1,.1524,-.486438,-.40817,-.549926,-.3175,0.0*
1,1,.1524,-.549926,-.3175*
20,1,.1524,-.549926,-.3175,-.596705,-.217183,0.0*
1,1,.1524,-.596705,-.217183*
20,1,.1524,-.596705,-.217183,-.625353,-.110267,0.0*
1,1,.1524,-.625353,-.110267*
20,1,.1524,-.625353,-.110267,-.635,0.0,0.0*
1,1,.1524,-.635,0.0*
20,1,.1524,-.635,0.0,-.625353,.110267,0.0*
1,1,.1524,-.625353,.110267*
20,1,.1524,-.625353,.110267,-.596705,.217183,0.0*
1,1,.1524,-.596705,.217183*
20,1,.1524,-.596705,.217183,-.549926,.3175,0.0*
1,1,.1524,-.549926,.3175*
20,1,.1524,-.549926,.3175,-.486438,.40817,0.0*
1,1,.1524,-.486438,.40817*
20,1,.1524,-.486438,.40817,-.40817,.486438,0.0*
1,1,.1524,-.40817,.486438*
20,1,.1524,-.40817,.486438,-.3175,.549926,0.0*
1,1,.1524,-.3175,.549926*
20,1,.1524,-.3175,.549926,-.217183,.596705,0.0*
1,1,.1524,-.217183,.596705*
20,1,.1524,-.217183,.596705,-.110267,.625353,0.0*
1,1,.1524,-.110267,.625353*
20,1,.1524,-.110267,.625353,0.0,.635,0.0*
1,1,.1524,0.0,.635*
20,1,.1524,0.0,.635,.110267,.625353,0.0*
1,1,.1524,.110267,.625353*
20,1,.1524,.110267,.625353,.217183,.596705,0.0*
1,1,.1524,.217183,.596705*
20,1,.1524,.217183,.596705,.3175,.549926,0.0*
1,1,.1524,.3175,.549926*
20,1,.1524,.3175,.549926,.40817,.486438,0.0*
1,1,.1524,.40817,.486438*
20,1,.1524,.40817,.486438,.486438,.40817,0.0*
1,1,.1524,.486438,.40817*
20,1,.1524,.486438,.40817,.549926,.3175,0.0*
1,1,.1524,.549926,.3175*
20,1,.1524,.549926,.3175,.596705,.217183,0.0*
1,1,.1524,.596705,.217183*
20,1,.1524,.596705,.217183,.625353,.110267,0.0*
1,1,.1524,.625353,.110267*
20,1,.1524,.625353,.110267,.635,0.0,0.0*
1,1,.1524,.635,0.0*
1,1,.1524,.3175,0.0*
20,1,.1524,.3175,0.0,-.3175,0.0,0.0*
1,1,.1524,-.3175,0.0*
1,1,.1524,0.0,.3175*
20,1,.1524,0.0,.3175,0.0,-.3175,0.0*
1,1,.1524,0.0,-.3175*
%
%ADD10MACRO10*%
%AMMACRO17*
1,1,.1524,1.15,0.0*
20,1,.1524,1.15,0.0,0.0,-1.15,0.0*
1,1,.1524,0.0,-1.15*
20,1,.1524,0.0,-1.15,-1.15,0.0,0.0*
1,1,.1524,-1.15,0.0*
20,1,.1524,-1.15,0.0,0.0,1.15,0.0*
1,1,.1524,0.0,1.15*
20,1,.1524,0.0,1.15,1.15,0.0,0.0*
1,1,.1524,1.15,0.0*
1,1,.1524,.4217,.4792*
20,1,.1524,.4217,.4792,.3067,.5367,0.0*
1,1,.1524,.3067,.5367*
20,1,.1524,.3067,.5367,.1725,.575,0.0*
1,1,.1524,.1725,.575*
20,1,.1524,.1725,.575,.0192,.575,0.0*
1,1,.1524,.0192,.575*
20,1,.1524,.0192,.575,-.1534,.5175,0.0*
1,1,.1524,-.1534,.5175*
20,1,.1524,-.1534,.5175,-.2875,.4217,0.0*
1,1,.1524,-.2875,.4217*
20,1,.1524,-.2875,.4217,-.3833,.3067,0.0*
1,1,.1524,-.3833,.3067*
20,1,.1524,-.3833,.3067,-.46,.115,0.0*
1,1,.1524,-.46,.115*
20,1,.1524,-.46,.115,-.4792,-.0575,0.0*
1,1,.1524,-.4792,-.0575*
20,1,.1524,-.4792,-.0575,-.4408,-.23,0.0*
1,1,.1524,-.4408,-.23*
20,1,.1524,-.4408,-.23,-.3833,-.345,0.0*
1,1,.1524,-.3833,-.345*
20,1,.1524,-.3833,-.345,-.2683,-.46,0.0*
1,1,.1524,-.2683,-.46*
20,1,.1524,-.2683,-.46,-.1342,-.5367,0.0*
1,1,.1524,-.1342,-.5367*
20,1,.1524,-.1342,-.5367,0.0,-.575,0.0*
1,1,.1524,0.0,-.575*
20,1,.1524,0.0,-.575,.1342,-.575,0.0*
1,1,.1524,.1342,-.575*
20,1,.1524,.1342,-.575,.2683,-.5367,0.0*
1,1,.1524,.2683,-.5367*
20,1,.1524,.2683,-.5367,.3833,-.4792,0.0*
1,1,.1524,.3833,-.4792*
20,1,.1524,.3833,-.4792,.4792,-.4025,0.0*
1,1,.1524,.4792,-.4025*
%
%ADD17MACRO17*%
%AMMACRO11*
1,1,.1524,.60505,0.0*
20,1,.1524,.60505,0.0,0.0,-.60505,0.0*
1,1,.1524,0.0,-.60505*
20,1,.1524,0.0,-.60505,-.60505,0.0,0.0*
1,1,.1524,-.60505,0.0*
20,1,.1524,-.60505,0.0,0.0,.60505,0.0*
1,1,.1524,0.0,.60505*
20,1,.1524,0.0,.60505,.60505,0.0,0.0*
1,1,.1524,.60505,0.0*
1,1,.1524,.2218,.2521*
20,1,.1524,.2218,.2521,.1613,.2823,0.0*
1,1,.1524,.1613,.2823*
20,1,.1524,.1613,.2823,.0908,.3025,0.0*
1,1,.1524,.0908,.3025*
20,1,.1524,.0908,.3025,.0101,.3025,0.0*
1,1,.1524,.0101,.3025*
20,1,.1524,.0101,.3025,-.0807,.2722,0.0*
1,1,.1524,-.0807,.2722*
20,1,.1524,-.0807,.2722,-.1512,.2218,0.0*
1,1,.1524,-.1512,.2218*
20,1,.1524,-.1512,.2218,-.2017,.1613,0.0*
1,1,.1524,-.2017,.1613*
20,1,.1524,-.2017,.1613,-.242,.0605,0.0*
1,1,.1524,-.242,.0605*
20,1,.1524,-.242,.0605,-.2521,-.0303,0.0*
1,1,.1524,-.2521,-.0303*
20,1,.1524,-.2521,-.0303,-.2319,-.121,0.0*
1,1,.1524,-.2319,-.121*
20,1,.1524,-.2319,-.121,-.2017,-.1815,0.0*
1,1,.1524,-.2017,-.1815*
20,1,.1524,-.2017,-.1815,-.1412,-.242,0.0*
1,1,.1524,-.1412,-.242*
20,1,.1524,-.1412,-.242,-.0706,-.2823,0.0*
1,1,.1524,-.0706,-.2823*
20,1,.1524,-.0706,-.2823,0.0,-.3025,0.0*
1,1,.1524,0.0,-.3025*
20,1,.1524,0.0,-.3025,.0706,-.3025,0.0*
1,1,.1524,.0706,-.3025*
20,1,.1524,.0706,-.3025,.1412,-.2823,0.0*
1,1,.1524,.1412,-.2823*
20,1,.1524,.1412,-.2823,.2017,-.2521,0.0*
1,1,.1524,.2017,-.2521*
20,1,.1524,.2017,-.2521,.2521,-.2118,0.0*
1,1,.1524,.2521,-.2118*
%
%ADD11MACRO11*%
%AMMACRO13*
1,1,.1524,.57505,0.0*
20,1,.1524,.57505,0.0,0.0,-.57505,0.0*
1,1,.1524,0.0,-.57505*
20,1,.1524,0.0,-.57505,-.57505,0.0,0.0*
1,1,.1524,-.57505,0.0*
20,1,.1524,-.57505,0.0,0.0,.57505,0.0*
1,1,.1524,0.0,.57505*
20,1,.1524,0.0,.57505,.57505,0.0,0.0*
1,1,.1524,.57505,0.0*
1,1,.1524,.0767,.0192*
20,1,.1524,.0767,.0192,.115,.0479,0.0*
1,1,.1524,.115,.0479*
20,1,.1524,.115,.0479,.1437,.0958,0.0*
1,1,.1524,.1437,.0958*
20,1,.1524,.1437,.0958,.1629,.1629,0.0*
1,1,.1524,.1629,.1629*
20,1,.1524,.1629,.1629,.1437,.2204,0.0*
1,1,.1524,.1437,.2204*
20,1,.1524,.1437,.2204,.1054,.2587,0.0*
1,1,.1524,.1054,.2587*
20,1,.1524,.1054,.2587,.0383,.2875,0.0*
1,1,.1524,.0383,.2875*
20,1,.1524,.0383,.2875,-.2204,.2875,0.0*
1,1,.1524,-.2204,.2875*
20,1,.1524,-.2204,.2875,-.2204,-.2875,0.0*
1,1,.1524,-.2204,-.2875*
20,1,.1524,-.2204,-.2875,.0958,-.2875,0.0*
1,1,.1524,.0958,-.2875*
20,1,.1524,.0958,-.2875,.1629,-.2492,0.0*
1,1,.1524,.1629,-.2492*
20,1,.1524,.1629,-.2492,.2013,-.1917,0.0*
1,1,.1524,.2013,-.1917*
20,1,.1524,.2013,-.1917,.2204,-.1246,0.0*
1,1,.1524,.2204,-.1246*
20,1,.1524,.2204,-.1246,.2013,-.0575,0.0*
1,1,.1524,.2013,-.0575*
20,1,.1524,.2013,-.0575,.1437,0.0,0.0*
1,1,.1524,.1437,0.0*
20,1,.1524,.1437,0.0,.0767,.0192,0.0*
1,1,.1524,.0767,.0192*
20,1,.1524,.0767,.0192,-.2204,.0192,0.0*
1,1,.1524,-.2204,.0192*
%
%ADD13MACRO13*%
%AMMACRO18*
1,1,.1524,.35,0.0*
20,1,.1524,.35,0.0,0.0,-.35,0.0*
1,1,.1524,0.0,-.35*
20,1,.1524,0.0,-.35,-.35,0.0,0.0*
1,1,.1524,-.35,0.0*
20,1,.1524,-.35,0.0,0.0,.35,0.0*
1,1,.1524,0.0,.35*
20,1,.1524,0.0,.35,.35,0.0,0.0*
1,1,.1524,.35,0.0*
1,1,.1524,-.1458,-.175*
20,1,.1524,-.1458,-.175,0.0,.175,0.0*
1,1,.1524,0.0,.175*
20,1,.1524,0.0,.175,.1458,-.175,0.0*
1,1,.1524,.1458,-.175*
1,1,.1524,.0933,-.0525*
20,1,.1524,.0933,-.0525,-.0933,-.0525,0.0*
1,1,.1524,-.0933,-.0525*
%
%ADD18MACRO18*%
%AMMACRO21*
1,1,.1524,.35,0.0*
20,1,.1524,.35,0.0,0.0,-.35,0.0*
1,1,.1524,0.0,-.35*
20,1,.1524,0.0,-.35,-.35,0.0,0.0*
1,1,.1524,-.35,0.0*
20,1,.1524,-.35,0.0,0.0,.35,0.0*
1,1,.1524,0.0,.35*
20,1,.1524,0.0,.35,.35,0.0,0.0*
1,1,.1524,.35,0.0*
1,1,.1524,.0467,.0117*
20,1,.1524,.0467,.0117,.07,.0292,0.0*
1,1,.1524,.07,.0292*
20,1,.1524,.07,.0292,.0875,.0583,0.0*
1,1,.1524,.0875,.0583*
20,1,.1524,.0875,.0583,.0992,.0992,0.0*
1,1,.1524,.0992,.0992*
20,1,.1524,.0992,.0992,.0875,.1342,0.0*
1,1,.1524,.0875,.1342*
20,1,.1524,.0875,.1342,.0642,.1575,0.0*
1,1,.1524,.0642,.1575*
20,1,.1524,.0642,.1575,.0233,.175,0.0*
1,1,.1524,.0233,.175*
20,1,.1524,.0233,.175,-.1342,.175,0.0*
1,1,.1524,-.1342,.175*
20,1,.1524,-.1342,.175,-.1342,-.175,0.0*
1,1,.1524,-.1342,-.175*
20,1,.1524,-.1342,-.175,.0583,-.175,0.0*
1,1,.1524,.0583,-.175*
20,1,.1524,.0583,-.175,.0992,-.1517,0.0*
1,1,.1524,.0992,-.1517*
20,1,.1524,.0992,-.1517,.1225,-.1167,0.0*
1,1,.1524,.1225,-.1167*
20,1,.1524,.1225,-.1167,.1342,-.0758,0.0*
1,1,.1524,.1342,-.0758*
20,1,.1524,.1342,-.0758,.1225,-.035,0.0*
1,1,.1524,.1225,-.035*
20,1,.1524,.1225,-.035,.0875,0.0,0.0*
1,1,.1524,.0875,0.0*
20,1,.1524,.0875,0.0,.0467,.0117,0.0*
1,1,.1524,.0467,.0117*
20,1,.1524,.0467,.0117,-.1342,.0117,0.0*
1,1,.1524,-.1342,.0117*
%
%ADD21MACRO21*%
%AMMACRO12*
1,1,.1524,.77,0.0*
20,1,.1524,.77,0.0,0.0,-.77,0.0*
1,1,.1524,0.0,-.77*
20,1,.1524,0.0,-.77,-.77,0.0,0.0*
1,1,.1524,-.77,0.0*
20,1,.1524,-.77,0.0,0.0,.77,0.0*
1,1,.1524,0.0,.77*
20,1,.1524,0.0,.77,.77,0.0,0.0*
1,1,.1524,.77,0.0*
1,1,.1524,-.3208,-.385*
20,1,.1524,-.3208,-.385,0.0,.385,0.0*
1,1,.1524,0.0,.385*
20,1,.1524,0.0,.385,.3208,-.385,0.0*
1,1,.1524,.3208,-.385*
1,1,.1524,.2053,-.1155*
20,1,.1524,.2053,-.1155,-.2053,-.1155,0.0*
1,1,.1524,-.2053,-.1155*
%
%ADD12MACRO12*%
%AMMACRO14*
1,1,.1524,.325,0.0*
20,1,.1524,.325,0.0,0.0,-.325,0.0*
1,1,.1524,0.0,-.325*
20,1,.1524,0.0,-.325,-.325,0.0,0.0*
1,1,.1524,-.325,0.0*
20,1,.1524,-.325,0.0,0.0,.325,0.0*
1,1,.1524,0.0,.325*
20,1,.1524,0.0,.325,.325,0.0,0.0*
1,1,.1524,.325,0.0*
1,1,.1524,-.1354,-.1625*
20,1,.1524,-.1354,-.1625,0.0,.1625,0.0*
1,1,.1524,0.0,.1625*
20,1,.1524,0.0,.1625,.1354,-.1625,0.0*
1,1,.1524,.1354,-.1625*
1,1,.1524,.0867,-.0488*
20,1,.1524,.0867,-.0488,-.0867,-.0488,0.0*
1,1,.1524,-.0867,-.0488*
%
%ADD14MACRO14*%
%AMMACRO20*
1,1,.1524,.37505,0.0*
20,1,.1524,.37505,0.0,0.0,-.37505,0.0*
1,1,.1524,0.0,-.37505*
20,1,.1524,0.0,-.37505,-.37505,0.0,0.0*
1,1,.1524,-.37505,0.0*
20,1,.1524,-.37505,0.0,0.0,.37505,0.0*
1,1,.1524,0.0,.37505*
20,1,.1524,0.0,.37505,.37505,0.0,0.0*
1,1,.1524,.37505,0.0*
1,1,.1524,-.1563,-.1875*
20,1,.1524,-.1563,-.1875,0.0,.1875,0.0*
1,1,.1524,0.0,.1875*
20,1,.1524,0.0,.1875,.1563,-.1875,0.0*
1,1,.1524,.1563,-.1875*
1,1,.1524,.1,-.0563*
20,1,.1524,.1,-.0563,-.1,-.0563,0.0*
1,1,.1524,-.1,-.0563*
%
%ADD20MACRO20*%
%AMMACRO16*
1,1,.1524,.952,0.0*
20,1,.1524,.952,0.0,0.0,-.952,0.0*
1,1,.1524,0.0,-.952*
20,1,.1524,0.0,-.952,-.952,0.0,0.0*
1,1,.1524,-.952,0.0*
20,1,.1524,-.952,0.0,0.0,.952,0.0*
1,1,.1524,0.0,.952*
20,1,.1524,0.0,.952,.952,0.0,0.0*
1,1,.1524,.952,0.0*
1,1,.1524,-.3491,-.476*
20,1,.1524,-.3491,-.476,-.3491,.476,0.0*
1,1,.1524,-.3491,.476*
20,1,.1524,-.3491,.476,-.0317,.476,0.0*
1,1,.1524,-.0317,.476*
20,1,.1524,-.0317,.476,.0952,.4284,0.0*
1,1,.1524,.0952,.4284*
20,1,.1524,.0952,.4284,.1904,.3649,0.0*
1,1,.1524,.1904,.3649*
20,1,.1524,.1904,.3649,.2697,.2697,0.0*
1,1,.1524,.2697,.2697*
20,1,.1524,.2697,.2697,.3332,.1586,0.0*
1,1,.1524,.3332,.1586*
20,1,.1524,.3332,.1586,.3491,0.0,0.0*
1,1,.1524,.3491,0.0*
20,1,.1524,.3491,0.0,.3332,-.1587,0.0*
1,1,.1524,.3332,-.1587*
20,1,.1524,.3332,-.1587,.2697,-.2697,0.0*
1,1,.1524,.2697,-.2697*
20,1,.1524,.2697,-.2697,.1904,-.365,0.0*
1,1,.1524,.1904,-.365*
20,1,.1524,.1904,-.365,.0952,-.4284,0.0*
1,1,.1524,.0952,-.4284*
20,1,.1524,.0952,-.4284,-.0317,-.476,0.0*
1,1,.1524,-.0317,-.476*
20,1,.1524,-.0317,-.476,-.3491,-.476,0.0*
1,1,.1524,-.3491,-.476*
%
%ADD16MACRO16*%
%AMMACRO19*
1,1,.1524,.37505,0.0*
20,1,.1524,.37505,0.0,0.0,-.37505,0.0*
1,1,.1524,0.0,-.37505*
20,1,.1524,0.0,-.37505,-.37505,0.0,0.0*
1,1,.1524,-.37505,0.0*
20,1,.1524,-.37505,0.0,0.0,.37505,0.0*
1,1,.1524,0.0,.37505*
20,1,.1524,0.0,.37505,.37505,0.0,0.0*
1,1,.1524,.37505,0.0*
1,1,.1524,.05,.0125*
20,1,.1524,.05,.0125,.075,.0312,0.0*
1,1,.1524,.075,.0312*
20,1,.1524,.075,.0312,.0937,.0625,0.0*
1,1,.1524,.0937,.0625*
20,1,.1524,.0937,.0625,.1063,.1063,0.0*
1,1,.1524,.1063,.1063*
20,1,.1524,.1063,.1063,.0937,.1437,0.0*
1,1,.1524,.0937,.1437*
20,1,.1524,.0937,.1437,.0688,.1687,0.0*
1,1,.1524,.0688,.1687*
20,1,.1524,.0688,.1687,.025,.1875,0.0*
1,1,.1524,.025,.1875*
20,1,.1524,.025,.1875,-.1437,.1875,0.0*
1,1,.1524,-.1437,.1875*
20,1,.1524,-.1437,.1875,-.1437,-.1875,0.0*
1,1,.1524,-.1437,-.1875*
20,1,.1524,-.1437,-.1875,.0625,-.1875,0.0*
1,1,.1524,.0625,-.1875*
20,1,.1524,.0625,-.1875,.1063,-.1625,0.0*
1,1,.1524,.1063,-.1625*
20,1,.1524,.1063,-.1625,.1313,-.125,0.0*
1,1,.1524,.1313,-.125*
20,1,.1524,.1313,-.125,.1437,-.0812,0.0*
1,1,.1524,.1437,-.0812*
20,1,.1524,.1437,-.0812,.1313,-.0375,0.0*
1,1,.1524,.1313,-.0375*
20,1,.1524,.1313,-.0375,.0937,0.0,0.0*
1,1,.1524,.0937,0.0*
20,1,.1524,.0937,0.0,.05,.0125,0.0*
1,1,.1524,.05,.0125*
20,1,.1524,.05,.0125,-.1437,.0125,0.0*
1,1,.1524,-.1437,.0125*
%
%ADD19MACRO19*%
%AMMACRO15*
1,1,.1524,1.30975,0.0*
20,1,.1524,1.30975,0.0,0.0,-1.30975,0.0*
1,1,.1524,0.0,-1.30975*
20,1,.1524,0.0,-1.30975,-1.30975,0.0,0.0*
1,1,.1524,-1.30975,0.0*
20,1,.1524,-1.30975,0.0,0.0,1.30975,0.0*
1,1,.1524,0.0,1.30975*
20,1,.1524,0.0,1.30975,1.30975,0.0,0.0*
1,1,.1524,1.30975,0.0*
1,1,.1524,.4803,.5457*
20,1,.1524,.4803,.5457,.3493,.6113,0.0*
1,1,.1524,.3493,.6113*
20,1,.1524,.3493,.6113,.1965,.6549,0.0*
1,1,.1524,.1965,.6549*
20,1,.1524,.1965,.6549,.0219,.6549,0.0*
1,1,.1524,.0219,.6549*
20,1,.1524,.0219,.6549,-.1746,.5894,0.0*
1,1,.1524,-.1746,.5894*
20,1,.1524,-.1746,.5894,-.3274,.4803,0.0*
1,1,.1524,-.3274,.4803*
20,1,.1524,-.3274,.4803,-.4365,.3493,0.0*
1,1,.1524,-.4365,.3493*
20,1,.1524,-.4365,.3493,-.5239,.131,0.0*
1,1,.1524,-.5239,.131*
20,1,.1524,-.5239,.131,-.5457,-.0654,0.0*
1,1,.1524,-.5457,-.0654*
20,1,.1524,-.5457,-.0654,-.502,-.2619,0.0*
1,1,.1524,-.502,-.2619*
20,1,.1524,-.502,-.2619,-.4365,-.3929,0.0*
1,1,.1524,-.4365,-.3929*
20,1,.1524,-.4365,-.3929,-.3055,-.5239,0.0*
1,1,.1524,-.3055,-.5239*
20,1,.1524,-.3055,-.5239,-.1527,-.6112,0.0*
1,1,.1524,-.1527,-.6112*
20,1,.1524,-.1527,-.6112,0.0,-.6548,0.0*
1,1,.1524,0.0,-.6548*
20,1,.1524,0.0,-.6548,.1528,-.6548,0.0*
1,1,.1524,.1528,-.6548*
20,1,.1524,.1528,-.6548,.3056,-.6112,0.0*
1,1,.1524,.3056,-.6112*
20,1,.1524,.3056,-.6112,.4366,-.5457,0.0*
1,1,.1524,.4366,-.5457*
20,1,.1524,.4366,-.5457,.5458,-.4584,0.0*
1,1,.1524,.5458,-.4584*
%
%ADD15MACRO15*%
%ADD22C,.1524*%
G75*
%LPD*%
G75*
G54D10*
X-205000Y-230000D03*
X-255000Y595000D03*
X-205000Y1020000D03*
X-215000Y1610000D03*
Y2635000D03*
Y3935000D03*
X-65000Y1030000D03*
X-55000Y1415000D03*
X-165000Y1490000D03*
X-40000Y1680000D03*
X-55000Y2175000D03*
X-25000Y2275000D03*
X5000Y2975000D03*
X190000Y120000D03*
X215000Y270000D03*
X179290Y985000D03*
X100710D03*
X75000Y1420000D03*
X110000Y2170000D03*
X204900Y3096320D03*
X126320D03*
X190000Y4085000D03*
X165000Y4370000D03*
X65000Y4420000D03*
X170000Y4430000D03*
X337500Y77500D03*
X300000Y480000D03*
X420000Y1605000D03*
X430000Y2600000D03*
X250000Y3775000D03*
X315000Y4865000D03*
X500000Y-183000D03*
X477500Y627500D03*
X581000Y639000D03*
X505000Y805000D03*
X535000Y1160000D03*
X540000Y2710000D03*
X600000Y4680000D03*
X510000Y4735000D03*
X652500Y52500D03*
X690000Y460000D03*
X810710Y415000D03*
X715000Y630000D03*
X640000Y795000D03*
X785000Y2730000D03*
X725710Y3175000D03*
X804290D03*
X755000Y3375000D03*
X747500Y3507500D03*
X745000Y3670000D03*
X790000Y3790000D03*
X765000Y4185000D03*
X755000Y4130000D03*
X765000Y4275000D03*
X1020000Y70000D03*
X889290Y415000D03*
X880000Y1060000D03*
X955000Y1760000D03*
X994290Y2020000D03*
X915710D03*
X994290Y2670000D03*
X915710D03*
X985000Y3205000D03*
X845000Y3675000D03*
X975000Y4535000D03*
X845000Y4420000D03*
X950000Y4660000D03*
X905000Y4850000D03*
X960000Y5120000D03*
X1100000Y-60000D03*
X1080710Y1100000D03*
X1159290D03*
X1154290Y2225000D03*
X1075710D03*
X1155000Y2490000D03*
X1185200Y2645000D03*
X1160000Y2945000D03*
X1065000Y4735000D03*
Y4950000D03*
X1135000Y5190000D03*
X1290000Y130000D03*
X1255000Y190000D03*
X1430000Y440000D03*
X1261920Y895000D03*
X1340500D03*
X1261920Y1080000D03*
X1340500D03*
X1330710Y1970000D03*
X1409290D03*
X1263780Y2645000D03*
X1260000Y3050000D03*
X1370000Y3885000D03*
X1620000Y2260000D03*
X1555000Y2660000D03*
X1620000Y3165000D03*
X1465000Y3735000D03*
X1670710Y535000D03*
X1749290D03*
X1765000Y1335000D03*
X1805000Y1395000D03*
X1810000Y1550000D03*
X1750000Y1615000D03*
X1655000Y1725000D03*
X1717500Y1982500D03*
X1810000Y1965000D03*
X1780000Y1850000D03*
X1730000Y2165000D03*
X1780000Y2205000D03*
X1795000Y2325000D03*
X1750000Y2575000D03*
X1660000Y2625000D03*
X1795000Y3080000D03*
Y3165000D03*
X1780710Y3323140D03*
X1835000Y4645000D03*
X1985000Y-115000D03*
X1845000Y85000D03*
X1975710Y585570D03*
X1950000Y1345000D03*
X1870000Y1615000D03*
X1940000Y1595000D03*
X1845000Y2645000D03*
X1971130Y2750000D03*
X1870000Y3085000D03*
X2009290Y3375000D03*
X1930710D03*
X1859290Y3323140D03*
X1955000Y3935000D03*
X1935000Y5115000D03*
X2054290Y585570D03*
X2140000Y1494800D03*
X2210000Y1515000D03*
X2115000Y1725000D03*
X2120000Y1985000D03*
X2160000Y1815000D03*
X2120000Y2165000D03*
Y2325000D03*
Y2395000D03*
X2080230Y2775000D03*
X2230000Y2610000D03*
X2070000Y2872700D03*
X2145000Y2895000D03*
X2085000Y3345000D03*
X2160000Y3210000D03*
X2200710Y3295000D03*
X2200000Y3460000D03*
X2380000Y1335000D03*
X2410000Y1651560D03*
X2353590Y2650000D03*
X2410000Y2920000D03*
X2290000Y2930000D03*
X2390000Y3275000D03*
X2279290Y3295000D03*
X2365000Y4365000D03*
X2605000Y330000D03*
X2550710Y1335000D03*
X2629290D03*
X2530000Y1450000D03*
X2525000Y1695000D03*
X2610000Y2165000D03*
X2510000Y2655000D03*
X2470000Y3250000D03*
X2605000Y3310000D03*
X2500000Y3805000D03*
X2760000Y-25000D03*
X2680000Y1270000D03*
X2805000Y1390000D03*
X2835000Y2650000D03*
X2730000Y2935000D03*
X2815710Y3680000D03*
X2795000Y4640000D03*
X2805000Y5080000D03*
X2945000Y-155000D03*
X2890000Y1370000D03*
X2990000Y1270000D03*
X3005000Y1475000D03*
X3030000Y2600000D03*
X2970000Y2950000D03*
X3015000D03*
X3045000Y3060000D03*
X2894290Y3680000D03*
X2920000Y4145000D03*
X3155000Y2730000D03*
X3055000Y2655000D03*
X3100000Y2850000D03*
X3220000Y2905000D03*
X3080000Y3335000D03*
X3115000Y3555000D03*
X3205000Y3770000D03*
X3455000Y-10000D03*
X3353250Y661750D03*
X3400000Y1585000D03*
X3335710Y1450000D03*
X3414290D03*
X3400000Y1765000D03*
X3300000Y1610000D03*
X3405000Y1965000D03*
X3440000Y1910000D03*
X3395000Y1845000D03*
X3420000Y2085000D03*
X3375000Y2265940D03*
X3420000Y2325000D03*
X3375000Y2420000D03*
X3300000Y2735000D03*
X3410000Y3415000D03*
X3330000Y3795000D03*
X3585000Y3675000D03*
X3525000Y4135000D03*
X3790000Y745000D03*
X3810000Y650000D03*
X3825000Y1050000D03*
X3785000Y1115000D03*
X3665000Y1960000D03*
X3794310Y3260000D03*
X3715730D03*
X3775000Y3865000D03*
X3755000Y4225000D03*
X3720000Y4760000D03*
X4055000Y610000D03*
X3915000Y605000D03*
X3995000D03*
X4030000Y860000D03*
X3875000Y1085000D03*
X4000000Y1380000D03*
X3925000Y1300000D03*
X3975000Y1320000D03*
X3950000Y1460000D03*
X4045000Y1880750D03*
X3950000Y2005000D03*
X4055000Y2195000D03*
X3925000Y2570000D03*
X4015000Y3375000D03*
X3960000Y3435000D03*
X3995000Y4515000D03*
X4245000Y585000D03*
X4110000Y600000D03*
X4075000Y1080000D03*
X4250000Y1295000D03*
X4195000Y1310000D03*
X4070000Y1260000D03*
X4075000Y1420000D03*
X4240000Y2320000D03*
X4225000Y2420000D03*
X4110000Y2860000D03*
X4185000Y2935000D03*
Y3335000D03*
X4195000Y4340000D03*
X4165000Y4600000D03*
X4100000Y4700000D03*
X4455000Y-88440D03*
X4375000Y290000D03*
X4330000Y490500D03*
X4285000Y540000D03*
X4430000Y585000D03*
X4390000Y815000D03*
Y1120000D03*
X4325000Y1795000D03*
X4375000Y2320000D03*
X4310000Y2580000D03*
X4395000Y2830000D03*
X4305000Y3225000D03*
X4320000Y3585000D03*
X4450000Y3550000D03*
X4400000Y3510000D03*
X4330000Y4115000D03*
X4275000Y4650000D03*
X4624500Y-240000D03*
X4470000Y-155000D03*
Y2585000D03*
X4505000Y2895000D03*
X4620000D03*
X4530000Y3375000D03*
X4545000Y3645000D03*
X4495000Y3610000D03*
X4660000Y4330000D03*
X4590000Y4965000D03*
X4505000Y4970000D03*
X4751500Y-226500D03*
X4725000Y2230000D03*
X4780000Y2470000D03*
X4765000Y3135000D03*
X4735000Y3405000D03*
X4830000Y3670000D03*
X4840000Y4060000D03*
X4835000Y4665000D03*
X4745000Y4975000D03*
X5015000Y-280000D03*
X4878500Y-216500D03*
X4910000Y2470000D03*
X4953250Y2401750D03*
X5245000Y3355000D03*
X5085000Y3410000D03*
X5095000Y4195000D03*
X6551730Y5326500D03*
G54D20*
X1965000Y4245000D03*
X2265000Y4095000D03*
X2165000Y4245000D03*
X2465000Y4095000D03*
X2365000Y4245000D03*
X2565000D03*
X2715000Y4095000D03*
X2765000Y4245000D03*
X6551730Y3421500D03*
G54D11*
X-205000Y-109000D03*
Y789000D03*
X-215000Y2796000D03*
Y3694000D03*
X390000Y-73000D03*
Y753000D03*
X380000Y2832000D03*
Y3658000D03*
X6551730Y2151500D03*
G54D12*
X-115000Y1285000D03*
Y2015000D03*
X175000Y1285000D03*
Y2015000D03*
X6551730Y1516500D03*
G54D21*
X2120000Y85000D03*
X6551730Y4056500D03*
G54D22*
G01X5410000Y-1976000D02*
Y7564000D01*
X23126500D01*
Y-1976000D01*
X5410000D01*
G01Y-1341000D02*
X23126500D01*
G01X5410000Y-706000D02*
X23126500D01*
G01X5410000Y-71000D02*
X23126500D01*
G01X5410000Y564000D02*
X23126500D01*
G01X5410000Y1199000D02*
X23126500D01*
G01X5410000Y1834000D02*
X23126500D01*
G01X5410000Y2469000D02*
X23126500D01*
G01X5410000Y3104000D02*
X23126500D01*
G01X5410000Y3739000D02*
X23126500D01*
G01X5410000Y4374000D02*
X23126500D01*
G01X5410000Y5009000D02*
X23126500D01*
G01X5410000Y5644000D02*
X23126500D01*
G01X5410000Y6279000D02*
X23126500D01*
G01X5410000Y6914000D02*
X23126500D01*
G01X5689520Y5802750D02*
Y6120250D01*
X5839140D01*
G01X5784010Y5966800D02*
X5689520D01*
G01X6032050Y6120250D02*
X6126530D01*
G01X6079290D02*
Y5802750D01*
G01X6032050D02*
X6126530D01*
G01X6417870Y5961500D02*
X6496620D01*
Y5866250D01*
X6472990Y5834490D01*
X6445430Y5813330D01*
X6406060Y5802750D01*
X6366690Y5813330D01*
X6339130Y5834490D01*
X6315510Y5866250D01*
X6299760Y5903290D01*
X6291880Y5945620D01*
Y5982670D01*
X6299760Y6014410D01*
X6315510Y6051460D01*
X6339130Y6083210D01*
X6362750Y6104370D01*
X6394250Y6120250D01*
X6421810D01*
X6453300Y6109670D01*
X6476930Y6088500D01*
G01X6622600Y6120250D02*
Y5892710D01*
X6638340Y5845070D01*
X6669840Y5813330D01*
X6709210Y5802750D01*
X6748580Y5813330D01*
X6780080Y5845070D01*
X6795820Y5892710D01*
Y6120250D01*
G01X6945430Y5802750D02*
Y6120250D01*
X7043850D01*
X7075350Y6104370D01*
X7095040Y6083210D01*
X7102910Y6040870D01*
X7095040Y5998540D01*
X7071410Y5972090D01*
X7043850Y5956200D01*
X6945430D01*
G01X7043850D02*
X7102910Y5802750D01*
G01X7417870D02*
X7260390D01*
Y6120250D01*
X7417870D01*
G01X7354880Y5966800D02*
X7260390D01*
G01X7693460Y6279000D02*
Y-1976000D01*
G01X8287940Y5802750D02*
Y6120250D01*
X8437560D01*
G01X8382430Y5966800D02*
X8287940D01*
G01X8630470Y6120250D02*
X8724950D01*
G01X8677710D02*
Y5802750D01*
G01X8630470D02*
X8724950D01*
G01X8902120D02*
Y6120250D01*
X9083220Y5802750D01*
Y6120250D01*
G01X9260390D02*
X9354870D01*
G01X9307630D02*
Y5802750D01*
G01X9260390D02*
X9354870D01*
G01X9539910Y5845070D02*
X9571410Y5818620D01*
X9606840Y5802750D01*
X9638340D01*
X9669830Y5818620D01*
X9693460Y5845070D01*
X9705270Y5882130D01*
X9697400Y5919160D01*
X9677710Y5950910D01*
X9642270Y5972090D01*
X9595030Y5982670D01*
X9567470Y6003830D01*
X9555660Y6040870D01*
X9563540Y6077920D01*
X9583220Y6104370D01*
X9610780Y6120250D01*
X9638340D01*
X9665900Y6109670D01*
X9689520Y6083210D01*
G01X9854870Y5802750D02*
Y6120250D01*
G01X10020230D02*
Y5802750D01*
G01Y5961500D02*
X9854870D01*
G01X10331250Y5802750D02*
X10173770D01*
Y6120250D01*
X10331250D01*
G01X10268260Y5966800D02*
X10173770D01*
G01X10480860Y5802750D02*
Y6120250D01*
X10559590D01*
X10591090Y6104370D01*
X10614710Y6083210D01*
X10634400Y6051460D01*
X10650150Y6014410D01*
X10654080Y5961500D01*
X10650150Y5908580D01*
X10634400Y5871540D01*
X10614710Y5839780D01*
X10591090Y5818620D01*
X10559590Y5802750D01*
X10480860D01*
G01X10764320Y5696920D02*
X11000540D01*
G01X11114710Y5845070D02*
X11146210Y5818620D01*
X11181640Y5802750D01*
X11213140D01*
X11244630Y5818620D01*
X11268260Y5845070D01*
X11280070Y5882130D01*
X11272200Y5919160D01*
X11252510Y5950910D01*
X11217070Y5972090D01*
X11169830Y5982670D01*
X11142270Y6003830D01*
X11130460Y6040870D01*
X11138340Y6077920D01*
X11158020Y6104370D01*
X11185580Y6120250D01*
X11213140D01*
X11240700Y6109670D01*
X11264320Y6083210D01*
G01X11465110Y6120250D02*
X11559590D01*
G01X11512350D02*
Y5802750D01*
G01X11465110D02*
X11559590D01*
G01X11752500Y6120250D02*
X11902120D01*
X11752500Y5802750D01*
X11902120D01*
G01X12221010D02*
X12063530D01*
Y6120250D01*
X12221010D01*
G01X12158020Y5966800D02*
X12063530D01*
G01X9465110Y-1817250D02*
Y-1499750D01*
X9417870Y-1563250D01*
G01Y-1817250D02*
X9512350D01*
G01X9780070Y-1827830D02*
X9772190Y-1822540D01*
Y-1811960D01*
X9780070Y-1806670D01*
X9787950Y-1811960D01*
Y-1822540D01*
X9780070Y-1827830D01*
G01X10095030Y-1817250D02*
Y-1499750D01*
X10047790Y-1563250D01*
G01Y-1817250D02*
X10142270D01*
G01X10323380Y-1769640D02*
X10346990Y-1796090D01*
X10374550Y-1811960D01*
X10409990Y-1817250D01*
X10445430Y-1806670D01*
X10472980Y-1785510D01*
X10492670Y-1748460D01*
X10496600Y-1706130D01*
X10488730Y-1663800D01*
X10469040Y-1637330D01*
X10441480Y-1616170D01*
X10413930Y-1610880D01*
X10386370Y-1616170D01*
X10350940Y-1637330D01*
X10362750Y-1499750D01*
X10469040D01*
G01X10724950D02*
X10693450Y-1510330D01*
X10669830Y-1536790D01*
X10654080Y-1568540D01*
X10642270Y-1610880D01*
X10638340Y-1658500D01*
X10642270Y-1706130D01*
X10654080Y-1748460D01*
X10669830Y-1780220D01*
X10693450Y-1806670D01*
X10724950Y-1817250D01*
X10756440Y-1806670D01*
X10780070Y-1780220D01*
X10795820Y-1748460D01*
X10807630Y-1706130D01*
X10811560Y-1658500D01*
X10807630Y-1610880D01*
X10795820Y-1568540D01*
X10780070Y-1536790D01*
X10756440Y-1510330D01*
X10724950Y-1499750D01*
G01X11039910Y-1817250D02*
Y-1499750D01*
X10992670Y-1563250D01*
G01Y-1817250D02*
X11087150D01*
G01X9390300Y-282670D02*
X9413930Y-250920D01*
X9441490Y-235040D01*
X9472990Y-229750D01*
X9512350Y-240330D01*
X9539920Y-266790D01*
X9547790Y-298540D01*
X9543850Y-330300D01*
X9528100Y-356750D01*
X9449360Y-409670D01*
X9413930Y-446710D01*
X9390300Y-499640D01*
X9382430Y-547250D01*
X9547790D01*
G01X9780070Y-557830D02*
X9772190Y-552540D01*
Y-541960D01*
X9780070Y-536670D01*
X9787950Y-541960D01*
Y-552540D01*
X9780070Y-557830D01*
G01X10020220Y-414970D02*
X10047790Y-377910D01*
X10071410Y-356750D01*
X10102910Y-346170D01*
X10130470Y-356750D01*
X10150150Y-377910D01*
X10165900Y-409670D01*
X10169840Y-446710D01*
X10165900Y-478460D01*
X10150150Y-510220D01*
X10126520Y-536670D01*
X10098970Y-547250D01*
X10067470Y-536670D01*
X10039910Y-504930D01*
X10024160Y-457290D01*
X10020220Y-404380D01*
X10028100Y-335590D01*
X10039910Y-298540D01*
X10059590Y-261500D01*
X10087150Y-235040D01*
X10114710Y-229750D01*
X10142270Y-240330D01*
X10161960Y-266790D01*
G01X10409990Y-547250D02*
Y-229750D01*
X10362750Y-293250D01*
G01Y-547250D02*
X10457230D01*
G01X10658020Y-510220D02*
X10685580Y-536670D01*
X10717070Y-547250D01*
X10748570Y-536670D01*
X10776130Y-504930D01*
X10795820Y-457290D01*
X10803690Y-409670D01*
Y-351460D01*
X10795820Y-303840D01*
X10776130Y-261500D01*
X10752510Y-240330D01*
X10724950Y-229750D01*
X10693450Y-240330D01*
X10669830Y-261500D01*
X10654080Y-293250D01*
X10646210Y-335590D01*
X10654080Y-372620D01*
X10673770Y-409670D01*
X10697390Y-430840D01*
X10724950Y-436130D01*
X10756440Y-425550D01*
X10780070Y-399090D01*
X10803690Y-351460D01*
G01X10953300Y-499640D02*
X10976910Y-526090D01*
X11004470Y-541960D01*
X11039910Y-547250D01*
X11075350Y-536670D01*
X11102900Y-515510D01*
X11122590Y-478460D01*
X11126520Y-436130D01*
X11118650Y-393800D01*
X11098960Y-367330D01*
X11071400Y-346170D01*
X11043850Y-340880D01*
X11016290Y-346170D01*
X10980860Y-367330D01*
X10992670Y-229750D01*
X11098960D01*
G01X9465110Y1992750D02*
Y2310250D01*
X9417870Y2246750D01*
G01Y1992750D02*
X9512350D01*
G01X9780070Y1982170D02*
X9772190Y1987460D01*
Y1998040D01*
X9780070Y2003330D01*
X9787950Y1998040D01*
Y1987460D01*
X9780070Y1982170D01*
G01X10020220Y2257330D02*
X10043850Y2289080D01*
X10071410Y2304960D01*
X10102910Y2310250D01*
X10142270Y2299670D01*
X10169840Y2273210D01*
X10177710Y2241460D01*
X10173770Y2209700D01*
X10158020Y2183250D01*
X10079280Y2130330D01*
X10043850Y2093290D01*
X10020220Y2040360D01*
X10012350Y1992750D01*
X10177710D01*
G01X10409990D02*
Y2310250D01*
X10362750Y2246750D01*
G01Y1992750D02*
X10457230D01*
G01X10724950Y2310250D02*
X10693450Y2299670D01*
X10669830Y2273210D01*
X10654080Y2241460D01*
X10642270Y2199120D01*
X10638340Y2151500D01*
X10642270Y2103870D01*
X10654080Y2061540D01*
X10669830Y2029780D01*
X10693450Y2003330D01*
X10724950Y1992750D01*
X10756440Y2003330D01*
X10780070Y2029780D01*
X10795820Y2061540D01*
X10807630Y2103870D01*
X10811560Y2151500D01*
X10807630Y2199120D01*
X10795820Y2241460D01*
X10780070Y2273210D01*
X10756440Y2299670D01*
X10724950Y2310250D01*
G01X11039910Y1992750D02*
Y2310250D01*
X10992670Y2246750D01*
G01Y1992750D02*
X11087150D01*
G01X9465110Y2945250D02*
X9433610Y2934670D01*
X9409990Y2908210D01*
X9394240Y2876460D01*
X9382430Y2834120D01*
X9378500Y2786500D01*
X9382430Y2738870D01*
X9394240Y2696540D01*
X9409990Y2664780D01*
X9433610Y2638330D01*
X9465110Y2627750D01*
X9496600Y2638330D01*
X9520230Y2664780D01*
X9535980Y2696540D01*
X9547790Y2738870D01*
X9551720Y2786500D01*
X9547790Y2834120D01*
X9535980Y2876460D01*
X9520230Y2908210D01*
X9496600Y2934670D01*
X9465110Y2945250D01*
G01X9780070Y2617170D02*
X9772190Y2622460D01*
Y2633040D01*
X9780070Y2638330D01*
X9787950Y2633040D01*
Y2622460D01*
X9780070Y2617170D01*
G01X10087150Y2627750D02*
X10095030Y2696540D01*
X10106840Y2754740D01*
X10122590Y2807670D01*
X10142270Y2865870D01*
X10173770Y2945250D01*
X10016290D01*
G01X10323380Y2675360D02*
X10346990Y2648910D01*
X10374550Y2633040D01*
X10409990Y2627750D01*
X10445430Y2638330D01*
X10472980Y2659490D01*
X10492670Y2696540D01*
X10496600Y2738870D01*
X10488730Y2781200D01*
X10469040Y2807670D01*
X10441480Y2828830D01*
X10413930Y2834120D01*
X10386370Y2828830D01*
X10350940Y2807670D01*
X10362750Y2945250D01*
X10469040D01*
G01X10724950D02*
X10693450Y2934670D01*
X10669830Y2908210D01*
X10654080Y2876460D01*
X10642270Y2834120D01*
X10638340Y2786500D01*
X10642270Y2738870D01*
X10654080Y2696540D01*
X10669830Y2664780D01*
X10693450Y2638330D01*
X10724950Y2627750D01*
X10756440Y2638330D01*
X10780070Y2664780D01*
X10795820Y2696540D01*
X10807630Y2738870D01*
X10811560Y2786500D01*
X10807630Y2834120D01*
X10795820Y2876460D01*
X10780070Y2908210D01*
X10756440Y2934670D01*
X10724950Y2945250D01*
G01X11039910Y2627750D02*
Y2945250D01*
X10992670Y2881750D01*
G01Y2627750D02*
X11087150D01*
G01X9465110Y3580250D02*
X9433610Y3569670D01*
X9409990Y3543210D01*
X9394240Y3511460D01*
X9382430Y3469120D01*
X9378500Y3421500D01*
X9382430Y3373870D01*
X9394240Y3331540D01*
X9409990Y3299780D01*
X9433610Y3273330D01*
X9465110Y3262750D01*
X9496600Y3273330D01*
X9520230Y3299780D01*
X9535980Y3331540D01*
X9547790Y3373870D01*
X9551720Y3421500D01*
X9547790Y3469120D01*
X9535980Y3511460D01*
X9520230Y3543210D01*
X9496600Y3569670D01*
X9465110Y3580250D01*
G01X9780070Y3252170D02*
X9772190Y3257460D01*
Y3268040D01*
X9780070Y3273330D01*
X9787950Y3268040D01*
Y3257460D01*
X9780070Y3252170D01*
G01X10087150Y3262750D02*
X10095030Y3331540D01*
X10106840Y3389740D01*
X10122590Y3442670D01*
X10142270Y3500870D01*
X10173770Y3580250D01*
X10016290D01*
G01X10323380Y3310360D02*
X10346990Y3283910D01*
X10374550Y3268040D01*
X10409990Y3262750D01*
X10445430Y3273330D01*
X10472980Y3294490D01*
X10492670Y3331540D01*
X10496600Y3373870D01*
X10488730Y3416200D01*
X10469040Y3442670D01*
X10441480Y3463830D01*
X10413930Y3469120D01*
X10386370Y3463830D01*
X10350940Y3442670D01*
X10362750Y3580250D01*
X10469040D01*
G01X10724950D02*
X10693450Y3569670D01*
X10669830Y3543210D01*
X10654080Y3511460D01*
X10642270Y3469120D01*
X10638340Y3421500D01*
X10642270Y3373870D01*
X10654080Y3331540D01*
X10669830Y3299780D01*
X10693450Y3273330D01*
X10724950Y3262750D01*
X10756440Y3273330D01*
X10780070Y3299780D01*
X10795820Y3331540D01*
X10807630Y3373870D01*
X10811560Y3421500D01*
X10807630Y3469120D01*
X10795820Y3511460D01*
X10780070Y3543210D01*
X10756440Y3569670D01*
X10724950Y3580250D01*
G01X11039910Y3262750D02*
Y3580250D01*
X10992670Y3516750D01*
G01Y3262750D02*
X11087150D01*
G01X9780070Y-864750D02*
X9748570Y-875330D01*
X9724950Y-901790D01*
X9709200Y-933540D01*
X9697390Y-975880D01*
X9693460Y-1023500D01*
X9697390Y-1071130D01*
X9709200Y-1113460D01*
X9724950Y-1145220D01*
X9748570Y-1171670D01*
X9780070Y-1182250D01*
X9811560Y-1171670D01*
X9835190Y-1145220D01*
X9850940Y-1113460D01*
X9862750Y-1071130D01*
X9866680Y-1023500D01*
X9862750Y-975880D01*
X9850940Y-933540D01*
X9835190Y-901790D01*
X9811560Y-875330D01*
X9780070Y-864750D01*
G01X10095030Y-1192830D02*
X10087150Y-1187540D01*
Y-1176960D01*
X10095030Y-1171670D01*
X10102910Y-1176960D01*
Y-1187540D01*
X10095030Y-1192830D01*
G01X10335180Y-1049970D02*
X10362750Y-1012910D01*
X10386370Y-991750D01*
X10417870Y-981170D01*
X10445430Y-991750D01*
X10465110Y-1012910D01*
X10480860Y-1044670D01*
X10484800Y-1081710D01*
X10480860Y-1113460D01*
X10465110Y-1145220D01*
X10441480Y-1171670D01*
X10413930Y-1182250D01*
X10382430Y-1171670D01*
X10354870Y-1139930D01*
X10339120Y-1092290D01*
X10335180Y-1039380D01*
X10343060Y-970590D01*
X10354870Y-933540D01*
X10374550Y-896500D01*
X10402110Y-870040D01*
X10429670Y-864750D01*
X10457230Y-875330D01*
X10476920Y-901790D01*
G01X10638340Y-1134640D02*
X10661950Y-1161090D01*
X10689510Y-1176960D01*
X10724950Y-1182250D01*
X10760390Y-1171670D01*
X10787940Y-1150510D01*
X10807630Y-1113460D01*
X10811560Y-1071130D01*
X10803690Y-1028800D01*
X10784000Y-1002330D01*
X10756440Y-981170D01*
X10728890Y-975880D01*
X10701330Y-981170D01*
X10665900Y-1002330D01*
X10677710Y-864750D01*
X10784000D01*
G01X9622590Y722750D02*
Y1040250D01*
X9575350Y976750D01*
G01Y722750D02*
X9669830D01*
G01X9937550Y712170D02*
X9929670Y717460D01*
Y728040D01*
X9937550Y733330D01*
X9945430Y728040D01*
Y717460D01*
X9937550Y712170D01*
G01X10185580Y759780D02*
X10213140Y733330D01*
X10244630Y722750D01*
X10276130Y733330D01*
X10303690Y765070D01*
X10323380Y812710D01*
X10331250Y860330D01*
Y918540D01*
X10323380Y966160D01*
X10303690Y1008500D01*
X10280070Y1029670D01*
X10252510Y1040250D01*
X10221010Y1029670D01*
X10197390Y1008500D01*
X10181640Y976750D01*
X10173770Y934410D01*
X10181640Y897380D01*
X10201330Y860330D01*
X10224950Y839160D01*
X10252510Y833870D01*
X10284000Y844450D01*
X10307630Y870910D01*
X10331250Y918540D01*
G01X10567470Y1040250D02*
X10535970Y1029670D01*
X10512350Y1003210D01*
X10496600Y971460D01*
X10484790Y929120D01*
X10480860Y881500D01*
X10484790Y833870D01*
X10496600Y791540D01*
X10512350Y759780D01*
X10535970Y733330D01*
X10567470Y722750D01*
X10598960Y733330D01*
X10622590Y759780D01*
X10638340Y791540D01*
X10650150Y833870D01*
X10654080Y881500D01*
X10650150Y929120D01*
X10638340Y971460D01*
X10622590Y1003210D01*
X10598960Y1029670D01*
X10567470Y1040250D01*
G01X10929670Y722750D02*
Y1040250D01*
X10784000Y812710D01*
X10980860D01*
G01X9780070Y1357750D02*
Y1675250D01*
X9732830Y1611750D01*
G01Y1357750D02*
X9827310D01*
G01X10095030Y1347170D02*
X10087150Y1352460D01*
Y1363040D01*
X10095030Y1368330D01*
X10102910Y1363040D01*
Y1352460D01*
X10095030Y1347170D01*
G01X10323380Y1405360D02*
X10346990Y1378910D01*
X10374550Y1363040D01*
X10409990Y1357750D01*
X10445430Y1368330D01*
X10472980Y1389490D01*
X10492670Y1426540D01*
X10496600Y1468870D01*
X10488730Y1511200D01*
X10469040Y1537670D01*
X10441480Y1558830D01*
X10413930Y1564120D01*
X10386370Y1558830D01*
X10350940Y1537670D01*
X10362750Y1675250D01*
X10469040D01*
G01X10772190Y1357750D02*
Y1675250D01*
X10626520Y1447710D01*
X10823380D01*
G01X9862740Y352330D02*
X9886370Y384080D01*
X9913930Y399960D01*
X9945430Y405250D01*
X9984790Y394670D01*
X10012360Y368210D01*
X10020230Y336460D01*
X10016290Y304700D01*
X10000540Y278250D01*
X9921800Y225330D01*
X9886370Y188290D01*
X9862740Y135360D01*
X9854870Y87750D01*
X10020230D01*
G01X10252510Y77170D02*
X10244630Y82460D01*
Y93040D01*
X10252510Y98330D01*
X10260390Y93040D01*
Y82460D01*
X10252510Y77170D01*
G01X10480860Y151250D02*
X10504470Y114200D01*
X10535970Y93040D01*
X10571410Y87750D01*
X10602910Y93040D01*
X10634400Y119490D01*
X10654080Y151250D01*
X10658020Y183000D01*
X10650150Y220030D01*
X10622590Y246500D01*
X10595030Y257090D01*
X10559590D01*
G01X10595030D02*
X10618650Y272960D01*
X10638340Y299410D01*
X10646210Y331160D01*
X10638340Y362920D01*
X10618650Y389370D01*
X10583220Y405250D01*
X10547790Y399960D01*
X10512350Y378790D01*
G01X9937550Y4215250D02*
X9906050Y4204670D01*
X9882430Y4178210D01*
X9866680Y4146460D01*
X9854870Y4104120D01*
X9850940Y4056500D01*
X9854870Y4008870D01*
X9866680Y3966540D01*
X9882430Y3934780D01*
X9906050Y3908330D01*
X9937550Y3897750D01*
X9969040Y3908330D01*
X9992670Y3934780D01*
X10008420Y3966540D01*
X10020230Y4008870D01*
X10024160Y4056500D01*
X10020230Y4104120D01*
X10008420Y4146460D01*
X9992670Y4178210D01*
X9969040Y4204670D01*
X9937550Y4215250D01*
G01X10252510Y3887170D02*
X10244630Y3892460D01*
Y3903040D01*
X10252510Y3908330D01*
X10260390Y3903040D01*
Y3892460D01*
X10252510Y3887170D01*
G01X10559590Y3897750D02*
X10567470Y3966540D01*
X10579280Y4024740D01*
X10595030Y4077670D01*
X10614710Y4135870D01*
X10646210Y4215250D01*
X10488730D01*
G01X9937550Y4850250D02*
X9906050Y4839670D01*
X9882430Y4813210D01*
X9866680Y4781460D01*
X9854870Y4739120D01*
X9850940Y4691500D01*
X9854870Y4643870D01*
X9866680Y4601540D01*
X9882430Y4569780D01*
X9906050Y4543330D01*
X9937550Y4532750D01*
X9969040Y4543330D01*
X9992670Y4569780D01*
X10008420Y4601540D01*
X10020230Y4643870D01*
X10024160Y4691500D01*
X10020230Y4739120D01*
X10008420Y4781460D01*
X9992670Y4813210D01*
X9969040Y4839670D01*
X9937550Y4850250D01*
G01X10252510Y4522170D02*
X10244630Y4527460D01*
Y4538040D01*
X10252510Y4543330D01*
X10260390Y4538040D01*
Y4527460D01*
X10252510Y4522170D01*
G01X10559590Y4532750D02*
X10567470Y4601540D01*
X10579280Y4659740D01*
X10595030Y4712670D01*
X10614710Y4770870D01*
X10646210Y4850250D01*
X10488730D01*
G01X9937550Y5485250D02*
X9906050Y5474670D01*
X9882430Y5448210D01*
X9866680Y5416460D01*
X9854870Y5374120D01*
X9850940Y5326500D01*
X9854870Y5278870D01*
X9866680Y5236540D01*
X9882430Y5204780D01*
X9906050Y5178330D01*
X9937550Y5167750D01*
X9969040Y5178330D01*
X9992670Y5204780D01*
X10008420Y5236540D01*
X10020230Y5278870D01*
X10024160Y5326500D01*
X10020230Y5374120D01*
X10008420Y5416460D01*
X9992670Y5448210D01*
X9969040Y5474670D01*
X9937550Y5485250D01*
G01X10252510Y5157170D02*
X10244630Y5162460D01*
Y5173040D01*
X10252510Y5178330D01*
X10260390Y5173040D01*
Y5162460D01*
X10252510Y5157170D01*
G01X10492660Y5432330D02*
X10516290Y5464080D01*
X10543850Y5479960D01*
X10575350Y5485250D01*
X10614710Y5474670D01*
X10642280Y5448210D01*
X10650150Y5416460D01*
X10646210Y5384700D01*
X10630460Y5358250D01*
X10551720Y5305330D01*
X10516290Y5268290D01*
X10492660Y5215360D01*
X10484790Y5167750D01*
X10650150D01*
G01X9917860Y6437750D02*
X10016290Y6755250D01*
X10114720Y6437750D01*
G01X10079280Y6548870D02*
X9953290D01*
G01X10252510Y6755250D02*
Y6437750D01*
X10409990D01*
G01X10567470Y6755250D02*
Y6437750D01*
X10724950D01*
G01X11189520Y6755250D02*
Y6527710D01*
X11205260Y6480070D01*
X11236760Y6448330D01*
X11276130Y6437750D01*
X11315500Y6448330D01*
X11347000Y6480070D01*
X11362740Y6527710D01*
Y6755250D01*
G01X11500540Y6437750D02*
Y6755250D01*
X11681640Y6437750D01*
Y6755250D01*
G01X11858810D02*
X11953290D01*
G01X11906050D02*
Y6437750D01*
G01X11858810D02*
X11953290D01*
G01X12221010Y6755250D02*
Y6437750D01*
G01X12130460Y6755250D02*
X12311560D01*
G01X12453290Y6480070D02*
X12484790Y6453620D01*
X12520220Y6437750D01*
X12551720D01*
X12583210Y6453620D01*
X12606840Y6480070D01*
X12618650Y6517130D01*
X12610780Y6554160D01*
X12591090Y6585910D01*
X12555650Y6607090D01*
X12508410Y6617670D01*
X12480850Y6638830D01*
X12469040Y6675870D01*
X12476920Y6712920D01*
X12496600Y6739370D01*
X12524160Y6755250D01*
X12551720D01*
X12579280Y6744670D01*
X12602900Y6718210D01*
G01X13067460Y6437750D02*
X13165890Y6755250D01*
X13264320Y6437750D01*
G01X13228880Y6548870D02*
X13102890D01*
G01X13402110Y6437750D02*
Y6755250D01*
X13500530D01*
X13532030Y6739370D01*
X13551720Y6718210D01*
X13559590Y6675870D01*
X13551720Y6633540D01*
X13528090Y6607090D01*
X13500530Y6591200D01*
X13402110D01*
G01X13500530D02*
X13559590Y6437750D01*
G01X13874550D02*
X13717070D01*
Y6755250D01*
X13874550D01*
G01X13811560Y6601800D02*
X13717070D01*
G01X14378490Y6755250D02*
X14472970D01*
G01X14425730D02*
Y6437750D01*
G01X14378490D02*
X14472970D01*
G01X14650140D02*
Y6755250D01*
X14831240Y6437750D01*
Y6755250D01*
G01X15268240Y6437750D02*
Y6755250D01*
X15370610Y6490670D01*
X15472980Y6755250D01*
Y6437750D01*
G01X15638330Y6755250D02*
X15732810D01*
G01X15685570D02*
Y6437750D01*
G01X15638330D02*
X15732810D01*
G01X15921790Y6755250D02*
Y6437750D01*
X16079270D01*
G01X16236750Y6755250D02*
Y6437750D01*
X16394230D01*
G01X16583210Y6755250D02*
X16677690D01*
G01X16630450D02*
Y6437750D01*
G01X16583210D02*
X16677690D01*
G01X16843040D02*
Y6755250D01*
X16945410Y6490670D01*
X17047780Y6755250D01*
Y6437750D01*
G01X17339110D02*
X17181630D01*
Y6755250D01*
X17339110D01*
G01X17276120Y6601800D02*
X17181630D01*
G01X17575330Y6755250D02*
Y6437750D01*
G01X17484780Y6755250D02*
X17665880D01*
G01X17969030Y6437750D02*
X17811550D01*
Y6755250D01*
X17969030D01*
G01X17906040Y6601800D02*
X17811550D01*
G01X18126510Y6437750D02*
Y6755250D01*
X18224930D01*
X18256430Y6739370D01*
X18276120Y6718210D01*
X18283990Y6675870D01*
X18276120Y6633540D01*
X18252490Y6607090D01*
X18224930Y6591200D01*
X18126510D01*
G01X18224930D02*
X18283990Y6437750D01*
G01X18437530Y6480070D02*
X18469030Y6453620D01*
X18504460Y6437750D01*
X18535960D01*
X18567450Y6453620D01*
X18591080Y6480070D01*
X18602890Y6517130D01*
X18595020Y6554160D01*
X18575330Y6585910D01*
X18539890Y6607090D01*
X18492650Y6617670D01*
X18465090Y6638830D01*
X18453280Y6675870D01*
X18461160Y6712920D01*
X18480840Y6739370D01*
X18508400Y6755250D01*
X18535960D01*
X18563520Y6744670D01*
X18587140Y6718210D01*
G01X10244640Y7087750D02*
Y7405250D01*
X10323370D01*
X10354870Y7389370D01*
X10378490Y7368210D01*
X10398180Y7336460D01*
X10413930Y7299410D01*
X10417860Y7246500D01*
X10413930Y7193580D01*
X10398180Y7156540D01*
X10378490Y7124780D01*
X10354870Y7103620D01*
X10323370Y7087750D01*
X10244640D01*
G01X10567470D02*
Y7405250D01*
X10665890D01*
X10697390Y7389370D01*
X10717080Y7368210D01*
X10724950Y7325870D01*
X10717080Y7283540D01*
X10693450Y7257090D01*
X10665890Y7241200D01*
X10567470D01*
G01X10665890D02*
X10724950Y7087750D01*
G01X10913930Y7405250D02*
X11008410D01*
G01X10961170D02*
Y7087750D01*
G01X10913930D02*
X11008410D01*
G01X11197390Y7405250D02*
Y7087750D01*
X11354870D01*
G01X11512350Y7405250D02*
Y7087750D01*
X11669830D01*
G01X12307620Y7378790D02*
X12284000Y7394670D01*
X12256450Y7405250D01*
X12224950D01*
X12189510Y7389370D01*
X12161960Y7362920D01*
X12142270Y7331160D01*
X12126520Y7278250D01*
X12122580Y7230620D01*
X12130460Y7183000D01*
X12142270Y7151250D01*
X12165890Y7119490D01*
X12193450Y7098330D01*
X12221010Y7087750D01*
X12248570D01*
X12276130Y7098330D01*
X12299750Y7114200D01*
X12319440Y7135360D01*
G01X12453290Y7087750D02*
Y7405250D01*
G01X12618650D02*
Y7087750D01*
G01Y7246500D02*
X12453290D01*
G01X12752500Y7087750D02*
X12850930Y7405250D01*
X12949360Y7087750D01*
G01X12913920Y7198870D02*
X12787930D01*
G01X13087150Y7087750D02*
Y7405250D01*
X13185570D01*
X13217070Y7389370D01*
X13236760Y7368210D01*
X13244630Y7325870D01*
X13236760Y7283540D01*
X13213130Y7257090D01*
X13185570Y7241200D01*
X13087150D01*
G01X13185570D02*
X13244630Y7087750D01*
G01X13480850Y7405250D02*
Y7087750D01*
G01X13390300Y7405250D02*
X13571400D01*
G01X13795810Y7077170D02*
X13787930Y7082460D01*
Y7093040D01*
X13795810Y7098330D01*
X13803690Y7093040D01*
Y7082460D01*
X13795810Y7077170D01*
G01Y7220030D02*
X13787930Y7225330D01*
Y7235910D01*
X13795810Y7241200D01*
X13803690Y7235910D01*
Y7225330D01*
X13795810Y7220030D01*
G01X14425730Y7405250D02*
Y7087750D01*
G01X14335180Y7405250D02*
X14516280D01*
G01X14740690Y7087750D02*
X14709190Y7093040D01*
X14681640Y7114200D01*
X14658010Y7145960D01*
X14642260Y7183000D01*
X14634390Y7225330D01*
Y7267670D01*
X14642260Y7310000D01*
X14658010Y7347040D01*
X14681640Y7378790D01*
X14709190Y7399960D01*
X14740690Y7405250D01*
X14772180Y7399960D01*
X14799740Y7378790D01*
X14823370Y7347040D01*
X14839120Y7310000D01*
X14846990Y7267670D01*
Y7225330D01*
X14839120Y7183000D01*
X14823370Y7145960D01*
X14799740Y7114200D01*
X14772180Y7093040D01*
X14740690Y7087750D01*
G01X14976910D02*
Y7405250D01*
X15071400D01*
X15102890Y7389370D01*
X15126520Y7352330D01*
X15134390Y7310000D01*
X15126520Y7267670D01*
X15106830Y7235910D01*
X15071400Y7220030D01*
X14976910D01*
G01X15685570Y7405250D02*
Y7087750D01*
G01X15630450Y7299410D02*
X15740690D01*
G01X16000530Y7087750D02*
X15976910Y7093040D01*
X15953290Y7114200D01*
X15937530Y7151250D01*
X15929660Y7193580D01*
X15937530Y7235910D01*
X15953290Y7272960D01*
X15976910Y7294120D01*
X16000530Y7299410D01*
X16024150Y7294120D01*
X16047770Y7272960D01*
X16063520Y7235910D01*
X16067460Y7193580D01*
X16063520Y7151250D01*
X16047770Y7114200D01*
X16024150Y7093040D01*
X16000530Y7087750D01*
G01X16661940Y7257090D02*
X16677690Y7272960D01*
X16689500Y7299410D01*
X16697380Y7336460D01*
X16689500Y7368210D01*
X16673760Y7389370D01*
X16646200Y7405250D01*
X16539900D01*
Y7087750D01*
X16669820D01*
X16697380Y7108910D01*
X16713130Y7140670D01*
X16721000Y7177710D01*
X16713130Y7214740D01*
X16689500Y7246500D01*
X16661940Y7257090D01*
X16539900D01*
G01X16945410Y7087750D02*
X16913910Y7093040D01*
X16886360Y7114200D01*
X16862730Y7145960D01*
X16846980Y7183000D01*
X16839110Y7225330D01*
Y7267670D01*
X16846980Y7310000D01*
X16862730Y7347040D01*
X16886360Y7378790D01*
X16913910Y7399960D01*
X16945410Y7405250D01*
X16976900Y7399960D01*
X17004460Y7378790D01*
X17028090Y7347040D01*
X17043840Y7310000D01*
X17051710Y7267670D01*
Y7225330D01*
X17043840Y7183000D01*
X17028090Y7145960D01*
X17004460Y7114200D01*
X16976900Y7093040D01*
X16945410Y7087750D01*
G01X17260370Y7405250D02*
Y7087750D01*
G01X17169820Y7405250D02*
X17350920D01*
G01X17575330D02*
Y7087750D01*
G01X17484780Y7405250D02*
X17665880D01*
G01X17890290Y7087750D02*
X17858790Y7093040D01*
X17831240Y7114200D01*
X17807610Y7145960D01*
X17791860Y7183000D01*
X17783990Y7225330D01*
Y7267670D01*
X17791860Y7310000D01*
X17807610Y7347040D01*
X17831240Y7378790D01*
X17858790Y7399960D01*
X17890290Y7405250D01*
X17921780Y7399960D01*
X17949340Y7378790D01*
X17972970Y7347040D01*
X17988720Y7310000D01*
X17996590Y7267670D01*
Y7225330D01*
X17988720Y7183000D01*
X17972970Y7145960D01*
X17949340Y7114200D01*
X17921780Y7093040D01*
X17890290Y7087750D01*
G01X18102880D02*
Y7405250D01*
X18205250Y7140670D01*
X18307620Y7405250D01*
Y7087750D01*
G01X12811560Y6279000D02*
Y-1976000D01*
G01X13551720Y5802750D02*
Y6120250D01*
X13630450D01*
X13661950Y6104370D01*
X13685570Y6083210D01*
X13705260Y6051460D01*
X13721010Y6014410D01*
X13724940Y5961500D01*
X13721010Y5908580D01*
X13705260Y5871540D01*
X13685570Y5839780D01*
X13661950Y5818620D01*
X13630450Y5802750D01*
X13551720D01*
G01X13874550D02*
Y6120250D01*
X13972970D01*
X14004470Y6104370D01*
X14024160Y6083210D01*
X14032030Y6040870D01*
X14024160Y5998540D01*
X14000530Y5972090D01*
X13972970Y5956200D01*
X13874550D01*
G01X13972970D02*
X14032030Y5802750D01*
G01X14221010Y6120250D02*
X14315490D01*
G01X14268250D02*
Y5802750D01*
G01X14221010D02*
X14315490D01*
G01X14504470Y6120250D02*
Y5802750D01*
X14661950D01*
G01X14819430Y6120250D02*
Y5802750D01*
X14976910D01*
G01X15291870D02*
X15134390D01*
Y6120250D01*
X15291870D01*
G01X15228880Y5966800D02*
X15134390D01*
G01X15441480Y5802750D02*
Y6120250D01*
X15520210D01*
X15551710Y6104370D01*
X15575330Y6083210D01*
X15595020Y6051460D01*
X15610770Y6014410D01*
X15614700Y5961500D01*
X15610770Y5908580D01*
X15595020Y5871540D01*
X15575330Y5839780D01*
X15551710Y5818620D01*
X15520210Y5802750D01*
X15441480D01*
G01X15724940Y5696920D02*
X15961160D01*
G01X16075330Y5845070D02*
X16106830Y5818620D01*
X16142260Y5802750D01*
X16173760D01*
X16205250Y5818620D01*
X16228880Y5845070D01*
X16240690Y5882130D01*
X16232820Y5919160D01*
X16213130Y5950910D01*
X16177690Y5972090D01*
X16130450Y5982670D01*
X16102890Y6003830D01*
X16091080Y6040870D01*
X16098960Y6077920D01*
X16118640Y6104370D01*
X16146200Y6120250D01*
X16173760D01*
X16201320Y6109670D01*
X16224940Y6083210D01*
G01X16425730Y6120250D02*
X16520210D01*
G01X16472970D02*
Y5802750D01*
G01X16425730D02*
X16520210D01*
G01X16713120Y6120250D02*
X16862740D01*
X16713120Y5802750D01*
X16862740D01*
G01X17181630D02*
X17024150D01*
Y6120250D01*
X17181630D01*
G01X17118640Y5966800D02*
X17024150D01*
G01X15319430Y-1711420D02*
X15421790D01*
G01X15319430Y-1076420D02*
X15421790D01*
G01X15319430Y-441420D02*
X15421790D01*
G01X15319430Y193580D02*
X15421790D01*
G01X15319430Y828580D02*
X15421790D01*
G01X15319430Y1463580D02*
X15421790D01*
G01X15319430Y2098580D02*
X15421790D01*
G01X15319430Y2733580D02*
X15421790D01*
G01X15319430Y3368580D02*
X15421790D01*
G01X15319430Y4003580D02*
X15421790D01*
G01X15319430Y4638580D02*
X15421790D01*
G01X15319430Y5273580D02*
X15421790D01*
G01X17929660Y6279000D02*
Y-1976000D01*
G01X18035960Y-1817250D02*
Y-1499750D01*
X18217060Y-1817250D01*
Y-1499750D01*
G01X18441470Y-1817250D02*
X18409970Y-1811960D01*
X18382420Y-1790800D01*
X18358790Y-1759040D01*
X18343040Y-1722000D01*
X18335170Y-1679670D01*
Y-1637330D01*
X18343040Y-1595000D01*
X18358790Y-1557960D01*
X18382420Y-1526210D01*
X18409970Y-1505040D01*
X18441470Y-1499750D01*
X18472960Y-1505040D01*
X18500520Y-1526210D01*
X18524150Y-1557960D01*
X18539900Y-1595000D01*
X18547770Y-1637330D01*
Y-1679670D01*
X18539900Y-1722000D01*
X18524150Y-1759040D01*
X18500520Y-1790800D01*
X18472960Y-1811960D01*
X18441470Y-1817250D01*
G01X18665880D02*
Y-1499750D01*
X18846980Y-1817250D01*
Y-1499750D01*
G01X19020210Y-1711420D02*
X19122570D01*
G01X19307610Y-1817250D02*
Y-1499750D01*
X19402100D01*
X19433590Y-1515630D01*
X19457220Y-1552670D01*
X19465090Y-1595000D01*
X19457220Y-1637330D01*
X19437530Y-1669090D01*
X19402100Y-1684970D01*
X19307610D01*
G01X19622570Y-1499750D02*
Y-1817250D01*
X19780050D01*
G01X19917840D02*
X20016270Y-1499750D01*
X20114700Y-1817250D01*
G01X20079260Y-1706130D02*
X19953270D01*
G01X20331230Y-1499750D02*
Y-1817250D01*
G01X20240680Y-1499750D02*
X20421780D01*
G01X20724930Y-1817250D02*
X20567450D01*
Y-1499750D01*
X20724930D01*
G01X20661940Y-1653200D02*
X20567450D01*
G01X20874540Y-1817250D02*
Y-1499750D01*
X20953270D01*
X20984770Y-1515630D01*
X21008390Y-1536790D01*
X21028080Y-1568540D01*
X21043830Y-1605590D01*
X21047760Y-1658500D01*
X21043830Y-1711420D01*
X21028080Y-1748460D01*
X21008390Y-1780220D01*
X20984770Y-1801380D01*
X20953270Y-1817250D01*
X20874540D01*
G01X18035960Y-1182250D02*
Y-864750D01*
X18217060Y-1182250D01*
Y-864750D01*
G01X18441470Y-1182250D02*
X18409970Y-1176960D01*
X18382420Y-1155800D01*
X18358790Y-1124040D01*
X18343040Y-1087000D01*
X18335170Y-1044670D01*
Y-1002330D01*
X18343040Y-960000D01*
X18358790Y-922960D01*
X18382420Y-891210D01*
X18409970Y-870040D01*
X18441470Y-864750D01*
X18472960Y-870040D01*
X18500520Y-891210D01*
X18524150Y-922960D01*
X18539900Y-960000D01*
X18547770Y-1002330D01*
Y-1044670D01*
X18539900Y-1087000D01*
X18524150Y-1124040D01*
X18500520Y-1155800D01*
X18472960Y-1176960D01*
X18441470Y-1182250D01*
G01X18665880D02*
Y-864750D01*
X18846980Y-1182250D01*
Y-864750D01*
G01X19020210Y-1076420D02*
X19122570D01*
G01X19307610Y-1182250D02*
Y-864750D01*
X19402100D01*
X19433590Y-880630D01*
X19457220Y-917670D01*
X19465090Y-960000D01*
X19457220Y-1002330D01*
X19437530Y-1034090D01*
X19402100Y-1049970D01*
X19307610D01*
G01X19622570Y-864750D02*
Y-1182250D01*
X19780050D01*
G01X19917840D02*
X20016270Y-864750D01*
X20114700Y-1182250D01*
G01X20079260Y-1071130D02*
X19953270D01*
G01X20331230Y-864750D02*
Y-1182250D01*
G01X20240680Y-864750D02*
X20421780D01*
G01X20724930Y-1182250D02*
X20567450D01*
Y-864750D01*
X20724930D01*
G01X20661940Y-1018200D02*
X20567450D01*
G01X20874540Y-1182250D02*
Y-864750D01*
X20953270D01*
X20984770Y-880630D01*
X21008390Y-901790D01*
X21028080Y-933540D01*
X21043830Y-970590D01*
X21047760Y-1023500D01*
X21043830Y-1076420D01*
X21028080Y-1113460D01*
X21008390Y-1145220D01*
X20984770Y-1166380D01*
X20953270Y-1182250D01*
X20874540D01*
G01X18677690Y-547250D02*
Y-229750D01*
X18772180D01*
X18803670Y-245630D01*
X18827300Y-282670D01*
X18835170Y-325000D01*
X18827300Y-367330D01*
X18807610Y-399090D01*
X18772180Y-414970D01*
X18677690D01*
G01X18992650Y-229750D02*
Y-547250D01*
X19150130D01*
G01X19287920D02*
X19386350Y-229750D01*
X19484780Y-547250D01*
G01X19449340Y-436130D02*
X19323350D01*
G01X19701310Y-229750D02*
Y-547250D01*
G01X19610760Y-229750D02*
X19791860D01*
G01X20095010Y-547250D02*
X19937530D01*
Y-229750D01*
X20095010D01*
G01X20032020Y-383200D02*
X19937530D01*
G01X20244620Y-547250D02*
Y-229750D01*
X20323350D01*
X20354850Y-245630D01*
X20378470Y-266790D01*
X20398160Y-298540D01*
X20413910Y-335590D01*
X20417840Y-388500D01*
X20413910Y-441420D01*
X20398160Y-478460D01*
X20378470Y-510220D01*
X20354850Y-531380D01*
X20323350Y-547250D01*
X20244620D01*
G01X18677690Y87750D02*
Y405250D01*
X18772180D01*
X18803670Y389370D01*
X18827300Y352330D01*
X18835170Y310000D01*
X18827300Y267670D01*
X18807610Y235910D01*
X18772180Y220030D01*
X18677690D01*
G01X18992650Y405250D02*
Y87750D01*
X19150130D01*
G01X19287920D02*
X19386350Y405250D01*
X19484780Y87750D01*
G01X19449340Y198870D02*
X19323350D01*
G01X19701310Y405250D02*
Y87750D01*
G01X19610760Y405250D02*
X19791860D01*
G01X20095010Y87750D02*
X19937530D01*
Y405250D01*
X20095010D01*
G01X20032020Y251800D02*
X19937530D01*
G01X20244620Y87750D02*
Y405250D01*
X20323350D01*
X20354850Y389370D01*
X20378470Y368210D01*
X20398160Y336460D01*
X20413910Y299410D01*
X20417840Y246500D01*
X20413910Y193580D01*
X20398160Y156540D01*
X20378470Y124780D01*
X20354850Y103620D01*
X20323350Y87750D01*
X20244620D01*
G01X18677690Y722750D02*
Y1040250D01*
X18772180D01*
X18803670Y1024370D01*
X18827300Y987330D01*
X18835170Y945000D01*
X18827300Y902670D01*
X18807610Y870910D01*
X18772180Y855030D01*
X18677690D01*
G01X18992650Y1040250D02*
Y722750D01*
X19150130D01*
G01X19287920D02*
X19386350Y1040250D01*
X19484780Y722750D01*
G01X19449340Y833870D02*
X19323350D01*
G01X19701310Y1040250D02*
Y722750D01*
G01X19610760Y1040250D02*
X19791860D01*
G01X20095010Y722750D02*
X19937530D01*
Y1040250D01*
X20095010D01*
G01X20032020Y886800D02*
X19937530D01*
G01X20244620Y722750D02*
Y1040250D01*
X20323350D01*
X20354850Y1024370D01*
X20378470Y1003210D01*
X20398160Y971460D01*
X20413910Y934410D01*
X20417840Y881500D01*
X20413910Y828580D01*
X20398160Y791540D01*
X20378470Y759780D01*
X20354850Y738620D01*
X20323350Y722750D01*
X20244620D01*
G01X18677690Y1357750D02*
Y1675250D01*
X18772180D01*
X18803670Y1659370D01*
X18827300Y1622330D01*
X18835170Y1580000D01*
X18827300Y1537670D01*
X18807610Y1505910D01*
X18772180Y1490030D01*
X18677690D01*
G01X18992650Y1675250D02*
Y1357750D01*
X19150130D01*
G01X19287920D02*
X19386350Y1675250D01*
X19484780Y1357750D01*
G01X19449340Y1468870D02*
X19323350D01*
G01X19701310Y1675250D02*
Y1357750D01*
G01X19610760Y1675250D02*
X19791860D01*
G01X20095010Y1357750D02*
X19937530D01*
Y1675250D01*
X20095010D01*
G01X20032020Y1521800D02*
X19937530D01*
G01X20244620Y1357750D02*
Y1675250D01*
X20323350D01*
X20354850Y1659370D01*
X20378470Y1638210D01*
X20398160Y1606460D01*
X20413910Y1569410D01*
X20417840Y1516500D01*
X20413910Y1463580D01*
X20398160Y1426540D01*
X20378470Y1394780D01*
X20354850Y1373620D01*
X20323350Y1357750D01*
X20244620D01*
G01X18677690Y1992750D02*
Y2310250D01*
X18772180D01*
X18803670Y2294370D01*
X18827300Y2257330D01*
X18835170Y2215000D01*
X18827300Y2172670D01*
X18807610Y2140910D01*
X18772180Y2125030D01*
X18677690D01*
G01X18992650Y2310250D02*
Y1992750D01*
X19150130D01*
G01X19287920D02*
X19386350Y2310250D01*
X19484780Y1992750D01*
G01X19449340Y2103870D02*
X19323350D01*
G01X19701310Y2310250D02*
Y1992750D01*
G01X19610760Y2310250D02*
X19791860D01*
G01X20095010Y1992750D02*
X19937530D01*
Y2310250D01*
X20095010D01*
G01X20032020Y2156800D02*
X19937530D01*
G01X20244620Y1992750D02*
Y2310250D01*
X20323350D01*
X20354850Y2294370D01*
X20378470Y2273210D01*
X20398160Y2241460D01*
X20413910Y2204410D01*
X20417840Y2151500D01*
X20413910Y2098580D01*
X20398160Y2061540D01*
X20378470Y2029780D01*
X20354850Y2008620D01*
X20323350Y1992750D01*
X20244620D01*
G01X18677690Y2627750D02*
Y2945250D01*
X18772180D01*
X18803670Y2929370D01*
X18827300Y2892330D01*
X18835170Y2850000D01*
X18827300Y2807670D01*
X18807610Y2775910D01*
X18772180Y2760030D01*
X18677690D01*
G01X18992650Y2945250D02*
Y2627750D01*
X19150130D01*
G01X19287920D02*
X19386350Y2945250D01*
X19484780Y2627750D01*
G01X19449340Y2738870D02*
X19323350D01*
G01X19701310Y2945250D02*
Y2627750D01*
G01X19610760Y2945250D02*
X19791860D01*
G01X20095010Y2627750D02*
X19937530D01*
Y2945250D01*
X20095010D01*
G01X20032020Y2791800D02*
X19937530D01*
G01X20244620Y2627750D02*
Y2945250D01*
X20323350D01*
X20354850Y2929370D01*
X20378470Y2908210D01*
X20398160Y2876460D01*
X20413910Y2839410D01*
X20417840Y2786500D01*
X20413910Y2733580D01*
X20398160Y2696540D01*
X20378470Y2664780D01*
X20354850Y2643620D01*
X20323350Y2627750D01*
X20244620D01*
G01X18677690Y3262750D02*
Y3580250D01*
X18772180D01*
X18803670Y3564370D01*
X18827300Y3527330D01*
X18835170Y3485000D01*
X18827300Y3442670D01*
X18807610Y3410910D01*
X18772180Y3395030D01*
X18677690D01*
G01X18992650Y3580250D02*
Y3262750D01*
X19150130D01*
G01X19287920D02*
X19386350Y3580250D01*
X19484780Y3262750D01*
G01X19449340Y3373870D02*
X19323350D01*
G01X19701310Y3580250D02*
Y3262750D01*
G01X19610760Y3580250D02*
X19791860D01*
G01X20095010Y3262750D02*
X19937530D01*
Y3580250D01*
X20095010D01*
G01X20032020Y3426800D02*
X19937530D01*
G01X20244620Y3262750D02*
Y3580250D01*
X20323350D01*
X20354850Y3564370D01*
X20378470Y3543210D01*
X20398160Y3511460D01*
X20413910Y3474410D01*
X20417840Y3421500D01*
X20413910Y3368580D01*
X20398160Y3331540D01*
X20378470Y3299780D01*
X20354850Y3278620D01*
X20323350Y3262750D01*
X20244620D01*
G01X18677690Y3897750D02*
Y4215250D01*
X18772180D01*
X18803670Y4199370D01*
X18827300Y4162330D01*
X18835170Y4120000D01*
X18827300Y4077670D01*
X18807610Y4045910D01*
X18772180Y4030030D01*
X18677690D01*
G01X18992650Y4215250D02*
Y3897750D01*
X19150130D01*
G01X19287920D02*
X19386350Y4215250D01*
X19484780Y3897750D01*
G01X19449340Y4008870D02*
X19323350D01*
G01X19701310Y4215250D02*
Y3897750D01*
G01X19610760Y4215250D02*
X19791860D01*
G01X20095010Y3897750D02*
X19937530D01*
Y4215250D01*
X20095010D01*
G01X20032020Y4061800D02*
X19937530D01*
G01X20244620Y3897750D02*
Y4215250D01*
X20323350D01*
X20354850Y4199370D01*
X20378470Y4178210D01*
X20398160Y4146460D01*
X20413910Y4109410D01*
X20417840Y4056500D01*
X20413910Y4003580D01*
X20398160Y3966540D01*
X20378470Y3934780D01*
X20354850Y3913620D01*
X20323350Y3897750D01*
X20244620D01*
G01X18677690Y4532750D02*
Y4850250D01*
X18772180D01*
X18803670Y4834370D01*
X18827300Y4797330D01*
X18835170Y4755000D01*
X18827300Y4712670D01*
X18807610Y4680910D01*
X18772180Y4665030D01*
X18677690D01*
G01X18992650Y4850250D02*
Y4532750D01*
X19150130D01*
G01X19287920D02*
X19386350Y4850250D01*
X19484780Y4532750D01*
G01X19449340Y4643870D02*
X19323350D01*
G01X19701310Y4850250D02*
Y4532750D01*
G01X19610760Y4850250D02*
X19791860D01*
G01X20095010Y4532750D02*
X19937530D01*
Y4850250D01*
X20095010D01*
G01X20032020Y4696800D02*
X19937530D01*
G01X20244620Y4532750D02*
Y4850250D01*
X20323350D01*
X20354850Y4834370D01*
X20378470Y4813210D01*
X20398160Y4781460D01*
X20413910Y4744410D01*
X20417840Y4691500D01*
X20413910Y4638580D01*
X20398160Y4601540D01*
X20378470Y4569780D01*
X20354850Y4548620D01*
X20323350Y4532750D01*
X20244620D01*
G01X18677690Y5167750D02*
Y5485250D01*
X18772180D01*
X18803670Y5469370D01*
X18827300Y5432330D01*
X18835170Y5390000D01*
X18827300Y5347670D01*
X18807610Y5315910D01*
X18772180Y5300030D01*
X18677690D01*
G01X18992650Y5485250D02*
Y5167750D01*
X19150130D01*
G01X19287920D02*
X19386350Y5485250D01*
X19484780Y5167750D01*
G01X19449340Y5278870D02*
X19323350D01*
G01X19701310Y5485250D02*
Y5167750D01*
G01X19610760Y5485250D02*
X19791860D01*
G01X20095010Y5167750D02*
X19937530D01*
Y5485250D01*
X20095010D01*
G01X20032020Y5331800D02*
X19937530D01*
G01X20244620Y5167750D02*
Y5485250D01*
X20323350D01*
X20354850Y5469370D01*
X20378470Y5448210D01*
X20398160Y5416460D01*
X20413910Y5379410D01*
X20417840Y5326500D01*
X20413910Y5273580D01*
X20398160Y5236540D01*
X20378470Y5204780D01*
X20354850Y5183620D01*
X20323350Y5167750D01*
X20244620D01*
G01X18677690Y5802750D02*
Y6120250D01*
X18772180D01*
X18803670Y6104370D01*
X18827300Y6067330D01*
X18835170Y6025000D01*
X18827300Y5982670D01*
X18807610Y5950910D01*
X18772180Y5935030D01*
X18677690D01*
G01X18992650Y6120250D02*
Y5802750D01*
X19150130D01*
G01X19287920D02*
X19386350Y6120250D01*
X19484780Y5802750D01*
G01X19449340Y5913870D02*
X19323350D01*
G01X19701310Y6120250D02*
Y5802750D01*
G01X19610760Y6120250D02*
X19791860D01*
G01X20095010Y5802750D02*
X19937530D01*
Y6120250D01*
X20095010D01*
G01X20032020Y5966800D02*
X19937530D01*
G01X20244620Y5802750D02*
Y6120250D01*
X20323350D01*
X20354850Y6104370D01*
X20378470Y6083210D01*
X20398160Y6051460D01*
X20413910Y6014410D01*
X20417840Y5961500D01*
X20413910Y5908580D01*
X20398160Y5871540D01*
X20378470Y5839780D01*
X20354850Y5818620D01*
X20323350Y5802750D01*
X20244620D01*
G01X21158000Y6279000D02*
Y-1976000D01*
G01X21752480Y5432330D02*
X21776110Y5464080D01*
X21803670Y5479960D01*
X21835170Y5485250D01*
X21874530Y5474670D01*
X21902100Y5448210D01*
X21909970Y5416460D01*
X21906030Y5384700D01*
X21890280Y5358250D01*
X21811540Y5305330D01*
X21776110Y5268290D01*
X21752480Y5215360D01*
X21744610Y5167750D01*
X21909970D01*
G01X22075320Y5204780D02*
X22102880Y5178330D01*
X22134370Y5167750D01*
X22165870Y5178330D01*
X22193430Y5210070D01*
X22213120Y5257710D01*
X22220990Y5305330D01*
Y5363540D01*
X22213120Y5411160D01*
X22193430Y5453500D01*
X22169810Y5474670D01*
X22142250Y5485250D01*
X22110750Y5474670D01*
X22087130Y5453500D01*
X22071380Y5421750D01*
X22063510Y5379410D01*
X22071380Y5342380D01*
X22091070Y5305330D01*
X22114690Y5284160D01*
X22142250Y5278870D01*
X22173740Y5289450D01*
X22197370Y5315910D01*
X22220990Y5363540D01*
G01X22370600Y5231250D02*
X22394210Y5194200D01*
X22425710Y5173040D01*
X22461150Y5167750D01*
X22492650Y5173040D01*
X22524140Y5199490D01*
X22543820Y5231250D01*
X22547760Y5263000D01*
X22539890Y5300030D01*
X22512330Y5326500D01*
X22484770Y5337090D01*
X22449330D01*
G01X22484770D02*
X22508390Y5352960D01*
X22528080Y5379410D01*
X22535950Y5411160D01*
X22528080Y5442920D01*
X22508390Y5469370D01*
X22472960Y5485250D01*
X22437530Y5479960D01*
X22402090Y5458790D01*
G01X21827290Y5802750D02*
X21795790Y5808040D01*
X21768240Y5829200D01*
X21744610Y5860960D01*
X21728860Y5898000D01*
X21720990Y5940330D01*
Y5982670D01*
X21728860Y6025000D01*
X21744610Y6062040D01*
X21768240Y6093790D01*
X21795790Y6114960D01*
X21827290Y6120250D01*
X21858780Y6114960D01*
X21886340Y6093790D01*
X21909970Y6062040D01*
X21925720Y6025000D01*
X21933590Y5982670D01*
Y5940330D01*
X21925720Y5898000D01*
X21909970Y5860960D01*
X21886340Y5829200D01*
X21858780Y5808040D01*
X21827290Y5802750D01*
G01X21858780Y5887420D02*
X21906030Y5802750D01*
G01X22142250Y6120250D02*
Y5802750D01*
G01X22051700Y6120250D02*
X22232800D01*
G01X22457210Y5802750D02*
Y5945620D01*
X22378470Y6120250D01*
G01X22535950D02*
X22457210Y5945620D01*
G01X22067440Y-1552670D02*
X22091070Y-1520920D01*
X22118630Y-1505040D01*
X22150130Y-1499750D01*
X22189490Y-1510330D01*
X22217060Y-1536790D01*
X22224930Y-1568540D01*
X22220990Y-1600300D01*
X22205240Y-1626750D01*
X22126500Y-1679670D01*
X22091070Y-1716710D01*
X22067440Y-1769640D01*
X22059570Y-1817250D01*
X22224930D01*
G01X22067440Y-917670D02*
X22091070Y-885920D01*
X22118630Y-870040D01*
X22150130Y-864750D01*
X22189490Y-875330D01*
X22217060Y-901790D01*
X22224930Y-933540D01*
X22220990Y-965300D01*
X22205240Y-991750D01*
X22126500Y-1044670D01*
X22091070Y-1081710D01*
X22067440Y-1134640D01*
X22059570Y-1182250D01*
X22224930D01*
G01X22067440Y-282670D02*
X22091070Y-250920D01*
X22118630Y-235040D01*
X22150130Y-229750D01*
X22189490Y-240330D01*
X22217060Y-266790D01*
X22224930Y-298540D01*
X22220990Y-330300D01*
X22205240Y-356750D01*
X22126500Y-409670D01*
X22091070Y-446710D01*
X22067440Y-499640D01*
X22059570Y-547250D01*
X22224930D01*
G01X22067440Y352330D02*
X22091070Y384080D01*
X22118630Y399960D01*
X22150130Y405250D01*
X22189490Y394670D01*
X22217060Y368210D01*
X22224930Y336460D01*
X22220990Y304700D01*
X22205240Y278250D01*
X22126500Y225330D01*
X22091070Y188290D01*
X22067440Y135360D01*
X22059570Y87750D01*
X22224930D01*
G01X22067440Y987330D02*
X22091070Y1019080D01*
X22118630Y1034960D01*
X22150130Y1040250D01*
X22189490Y1029670D01*
X22217060Y1003210D01*
X22224930Y971460D01*
X22220990Y939700D01*
X22205240Y913250D01*
X22126500Y860330D01*
X22091070Y823290D01*
X22067440Y770360D01*
X22059570Y722750D01*
X22224930D01*
G01X22189490Y1357750D02*
Y1675250D01*
X22043820Y1447710D01*
X22240680D01*
G01X22142250Y1992750D02*
X22169810Y1998040D01*
X22201300Y2013910D01*
X22220990Y2040360D01*
X22228860Y2077420D01*
X22220990Y2114450D01*
X22197370Y2146200D01*
X22161930Y2162090D01*
X22122570D01*
X22098940Y2172670D01*
X22079250Y2199120D01*
X22071380Y2236160D01*
X22083200Y2273210D01*
X22110750Y2299670D01*
X22142250Y2310250D01*
X22173740Y2299670D01*
X22201300Y2273210D01*
X22213120Y2236160D01*
X22205240Y2199120D01*
X22185560Y2172670D01*
X22161930Y2162090D01*
X22122570D01*
X22087130Y2146200D01*
X22063510Y2114450D01*
X22055640Y2077420D01*
X22063510Y2040360D01*
X22083200Y2013910D01*
X22114690Y1998040D01*
X22142250Y1992750D01*
G01Y2627750D02*
Y2945250D01*
X22095010Y2881750D01*
G01Y2627750D02*
X22189490D01*
G01X22142250Y3262750D02*
X22169810Y3268040D01*
X22201300Y3283910D01*
X22220990Y3310360D01*
X22228860Y3347420D01*
X22220990Y3384450D01*
X22197370Y3416200D01*
X22161930Y3432090D01*
X22122570D01*
X22098940Y3442670D01*
X22079250Y3469120D01*
X22071380Y3506160D01*
X22083200Y3543210D01*
X22110750Y3569670D01*
X22142250Y3580250D01*
X22173740Y3569670D01*
X22201300Y3543210D01*
X22213120Y3506160D01*
X22205240Y3469120D01*
X22185560Y3442670D01*
X22161930Y3432090D01*
X22122570D01*
X22087130Y3416200D01*
X22063510Y3384450D01*
X22055640Y3347420D01*
X22063510Y3310360D01*
X22083200Y3283910D01*
X22114690Y3268040D01*
X22142250Y3262750D01*
G01Y3897750D02*
Y4215250D01*
X22095010Y4151750D01*
G01Y3897750D02*
X22189490D01*
G01X22142250Y4532750D02*
X22169810Y4538040D01*
X22201300Y4553910D01*
X22220990Y4580360D01*
X22228860Y4617420D01*
X22220990Y4654450D01*
X22197370Y4686200D01*
X22161930Y4702090D01*
X22122570D01*
X22098940Y4712670D01*
X22079250Y4739120D01*
X22071380Y4776160D01*
X22083200Y4813210D01*
X22110750Y4839670D01*
X22142250Y4850250D01*
X22173740Y4839670D01*
X22201300Y4813210D01*
X22213120Y4776160D01*
X22205240Y4739120D01*
X22185560Y4712670D01*
X22161930Y4702090D01*
X22122570D01*
X22087130Y4686200D01*
X22063510Y4654450D01*
X22055640Y4617420D01*
X22063510Y4580360D01*
X22083200Y4553910D01*
X22114690Y4538040D01*
X22142250Y4532750D01*
G54D13*
X515000Y-20000D03*
X505000Y2885000D03*
X6551730Y-1658500D03*
G54D14*
X515000Y700000D03*
X505000Y3605000D03*
X6551730Y-1023500D03*
G54D15*
X1708000Y4445000D03*
X3022000D03*
X6551730Y-388500D03*
G54D16*
X1725000Y5162000D03*
X3005000D03*
X6551730Y881500D03*
G54D17*
X1813000Y-115000D03*
X3127000D03*
X6551730Y246500D03*
G54D18*
X2070000Y235000D03*
X2270000D03*
X2370000Y85000D03*
X2470000Y235000D03*
X2570000Y85000D03*
X2670000Y235000D03*
X2820000Y85000D03*
X2870000Y235000D03*
X6551730Y4691500D03*
G54D19*
X2015000Y4095000D03*
X6551730Y2786500D03*
M02*
