G04 ================== begin FILE IDENTIFICATION RECORD ==================*
G04 Layout Name:  C:/Users/Joser/parcial final victor/parcial2.brd*
G04 Film Name:    SPBT*
G04 File Format:  Gerber RS274X*
G04 File Origin:  Cadence Allegro 24.1-S006*
G04 Origin Date:  Mon Nov 10 14:40:56 2025*
G04 *
G04 Layer:  PACKAGE GEOMETRY/PASTEMASK_BOTTOM*
G04 Layer:  VIA CLASS/PASTEMASK_BOTTOM*
G04 Layer:  PIN/PASTEMASK_BOTTOM*
G04 *
G04 Offset:    (0.0000 0.0000)*
G04 Mirror:    No*
G04 Mode:      Positive*
G04 Rotation:  0*
G04 FullContactRelief:  No*
G04 UndefLineWidth:     0.1524*
G04 ================== end FILE IDENTIFICATION RECORD ====================*
%FSLAX25Y25*MOMM*%
%IR0*IPPOS*OFA0.00000B0.00000*MIA0B0*SFA1.00000B1.00000*%
%ADD12R,.5001X1.1001*%
%ADD10R,.3X.3*%
%ADD14R,2.7501X1.7501*%
%ADD13R,.685X.635*%
%ADD11R,.5999X.7*%
%LPD*%
G75*
G54D10*
X-145000Y50000D03*
X-85000D03*
X-95000Y135000D03*
X-145000D03*
X-10000Y45000D03*
X-40000Y1610000D03*
X-90000D03*
X40000Y45000D03*
X175000D03*
X125000D03*
X1100000Y-175000D03*
Y-125000D03*
X1345000Y130000D03*
X1405000D03*
X1430000Y305000D03*
Y255000D03*
X1255000Y300000D03*
Y250000D03*
X1465000Y3685000D03*
X1515000D03*
X2565000Y1595000D03*
X2625000D03*
X2595000Y2655000D03*
X2645000D03*
X2715000Y1595000D03*
X2665000D03*
X2755000Y2640000D03*
Y2690000D03*
X2955000Y1610000D03*
X2905000D03*
X2935000Y2660000D03*
X2885000D03*
X3840000Y860000D03*
X3780000D03*
X3825000Y930000D03*
Y980000D03*
X3995000Y1135000D03*
Y1085000D03*
X4200000Y585000D03*
Y525000D03*
X4135000Y1155000D03*
X4070000D03*
X4135000Y1205000D03*
X4070000D03*
X4455000Y860000D03*
X4460000Y930000D03*
X4515000Y860000D03*
X4565000Y930000D03*
X4625000D03*
X4510000D03*
G54D11*
X-160000Y315000D03*
X30000D03*
X-65000Y515000D03*
G54D12*
X3645000Y565000D03*
Y795000D03*
G54D13*
X3705000Y923250D03*
Y1016750D03*
X4250000Y1088250D03*
Y1181750D03*
G54D14*
X4120000Y840000D03*
M02*
