G04 ================== begin FILE IDENTIFICATION RECORD ==================*
G04 Layout Name:  C:/Users/Joser/parcial final victor/parcial2.brd*
G04 Film Name:    SPTP*
G04 File Format:  Gerber RS274X*
G04 File Origin:  Cadence Allegro 24.1-S006*
G04 Origin Date:  Mon Nov 10 14:40:56 2025*
G04 *
G04 Layer:  PACKAGE GEOMETRY/PASTEMASK_TOP*
G04 Layer:  VIA CLASS/PASTEMASK_TOP*
G04 Layer:  PIN/PASTEMASK_TOP*
G04 *
G04 Offset:    (0.0000 0.0000)*
G04 Mirror:    No*
G04 Mode:      Positive*
G04 Rotation:  0*
G04 FullContactRelief:  No*
G04 UndefLineWidth:     0.1524*
G04 ================== end FILE IDENTIFICATION RECORD ====================*
%FSLAX25Y25*MOMM*%
%IR0*IPPOS*OFA0.00000B0.00000*MIA0B0*SFA1.00000B1.00000*%
%ADD12R,.3X.3*%
%ADD14R,.8999X1.*%
%ADD11R,1.5999X.5001*%
%ADD26R,1.2499X.5999*%
%ADD20R,.8151X.5001*%
%ADD23R,.5001X.8151*%
%ADD24R,4.3101X3.6551*%
%ADD18R,.765X.5001*%
%ADD25R,.5001X.765*%
%ADD19R,3.6551X4.3101*%
%ADD17R,8.03X8.03*%
%ADD22R,1.524X1.524*%
%ADD21R,.685X.635*%
%ADD13R,.635X.685*%
%ADD16O,.13X.9799*%
%ADD15O,.9799X.13*%
%ADD10R,.5999X.7*%
%LPD*%
G75*
G54D10*
X-35000Y4800000D03*
X-130000Y5000000D03*
X60000D03*
G54D20*
X4180000Y109500D03*
Y363500D03*
Y236500D03*
Y490500D03*
G54D11*
X175000Y1490000D03*
Y1570000D03*
Y1650000D03*
Y1730000D03*
Y1810000D03*
G54D21*
X4125000Y1958250D03*
Y2051750D03*
X4150000Y3093250D03*
Y3186750D03*
G54D12*
X225000Y4370000D03*
X275000D03*
X270000Y4525000D03*
Y4475000D03*
X335000Y4620000D03*
X385000D03*
X315000Y5120000D03*
X265000D03*
Y5225000D03*
X325000D03*
X410000D03*
X500000Y2540000D03*
X550000D03*
X615000Y4130000D03*
X635000Y4605000D03*
X505000Y4670000D03*
Y4620000D03*
X445000Y4670000D03*
Y4620000D03*
X570000Y5220000D03*
Y5170000D03*
X460000Y5225000D03*
X750000Y410000D03*
Y460000D03*
X765000Y630000D03*
Y680000D03*
X725000Y3305000D03*
X775000D03*
X675000Y4130000D03*
X750000Y4365000D03*
X800000D03*
X685000Y4605000D03*
X750000Y4485000D03*
Y4535000D03*
X790000Y5180000D03*
X840000D03*
X1555000Y2705000D03*
Y2765000D03*
X1815000Y1725000D03*
X1765000D03*
X2030000Y1345000D03*
X1930000Y1685000D03*
X1870000D03*
X1950000Y1760000D03*
X1900000D03*
X1930000Y1965000D03*
X1870000D03*
X1950000Y1850000D03*
X1900000D03*
X1950000Y1805000D03*
X1900000D03*
X1930000Y2325000D03*
X1870000D03*
X1950000Y2645000D03*
X1900000D03*
X2090000Y1345000D03*
X2170000Y2835000D03*
Y2895000D03*
X2120000Y2825000D03*
X2070000D03*
X2410000Y1485000D03*
Y1425000D03*
Y2830000D03*
Y2890000D03*
X2290000Y2825000D03*
Y2875000D03*
X2605000Y3205000D03*
Y3265000D03*
X2815000Y1230000D03*
X2770000Y1485000D03*
Y1425000D03*
X2730000Y2835000D03*
Y2895000D03*
X2875000Y1230000D03*
X2890000Y1435000D03*
Y1485000D03*
X2940000Y1435000D03*
Y1485000D03*
X2970000Y2835000D03*
Y2895000D03*
X3015000Y2835000D03*
Y2895000D03*
X3290000Y1765000D03*
X3350000D03*
X3290000Y1845000D03*
X3350000D03*
X3340000Y1965000D03*
X3290000D03*
Y2125000D03*
X3350000D03*
X3340000Y2050000D03*
X3290000D03*
X3455000Y2160000D03*
X3405000D03*
X3290000Y2325000D03*
X3350000D03*
X3325000Y2250000D03*
X3275000D03*
X3325000Y2205000D03*
X3275000D03*
X4020000Y1610000D03*
X3965000Y2170000D03*
X3915000D03*
Y2310000D03*
X3975000D03*
X3925000Y2410000D03*
Y2460000D03*
X4020000Y3135000D03*
Y3075000D03*
X3910000Y3135000D03*
Y3075000D03*
X4070000Y1610000D03*
X4225000Y4600000D03*
Y4700000D03*
X4315000Y2420000D03*
X4375000D03*
X4395000Y2900000D03*
X4455000D03*
X4385000Y3370000D03*
X4435000D03*
X4285000Y3335000D03*
Y3385000D03*
X4460000Y3450000D03*
X4285000Y3440000D03*
Y3490000D03*
X4275000Y4600000D03*
Y4700000D03*
X4450000Y4885000D03*
Y4835000D03*
X4400000Y4885000D03*
Y4835000D03*
X4615000Y3405000D03*
X4520000Y3575000D03*
Y3515000D03*
Y3450000D03*
X4615000Y3465000D03*
Y3515000D03*
X4570000Y4330000D03*
X4510000D03*
X4505000Y4885000D03*
Y4835000D03*
X4605000D03*
Y4885000D03*
X4770000Y2320000D03*
X4820000D03*
X4675000Y3405000D03*
X4735000Y4600000D03*
X4785000D03*
X4745000Y4710000D03*
Y4760000D03*
X4980000Y3410000D03*
Y3460000D03*
G54D13*
X288250Y3975000D03*
X381750D03*
X288250Y4085000D03*
X381750D03*
X613250Y4030000D03*
Y3920000D03*
X706750Y4030000D03*
Y3920000D03*
X3446750Y560000D03*
X3353250D03*
X3598250Y-200000D03*
Y-50000D03*
X3691750Y-200000D03*
Y-50000D03*
X4246750Y2195000D03*
X4153250D03*
X4293250Y4230000D03*
X4386750D03*
X4293250Y4340000D03*
X4386750D03*
X4493250Y4225000D03*
X4586750D03*
X4493250Y4115000D03*
X4586750D03*
X5046750Y2315000D03*
X4953250D03*
G54D22*
X4309800Y2005000D03*
X4640000D03*
G54D23*
X4624500Y-110000D03*
X4751500D03*
X5005500D03*
X4878500D03*
G54D14*
X1685000Y2790000D03*
Y2980000D03*
X1895000Y2790000D03*
Y2980000D03*
G54D15*
X2025000Y1685000D03*
Y1725000D03*
Y1765000D03*
Y1805000D03*
Y1845000D03*
Y1885000D03*
Y1925000D03*
Y1965000D03*
Y2005000D03*
Y2045000D03*
Y2085000D03*
Y2125000D03*
Y2165000D03*
Y2205000D03*
Y2245000D03*
Y2285000D03*
Y2325000D03*
Y2365000D03*
Y2405000D03*
Y2445000D03*
Y2485000D03*
Y2525000D03*
Y2565000D03*
Y2605000D03*
Y2645000D03*
X3195000Y1765000D03*
Y1725000D03*
Y1685000D03*
Y1965000D03*
Y1925000D03*
Y1885000D03*
Y1845000D03*
Y1805000D03*
Y2165000D03*
Y2125000D03*
Y2085000D03*
Y2045000D03*
Y2005000D03*
Y2365000D03*
Y2325000D03*
Y2285000D03*
Y2245000D03*
Y2205000D03*
Y2565000D03*
Y2525000D03*
Y2485000D03*
Y2445000D03*
Y2405000D03*
Y2645000D03*
Y2605000D03*
G54D24*
X4815000Y247800D03*
G54D16*
X2210000Y1580000D03*
X2170000D03*
X2130000D03*
Y2750000D03*
X2170000D03*
X2210000D03*
X2410000Y1580000D03*
X2370000D03*
X2330000D03*
X2290000D03*
X2250000D03*
Y2750000D03*
X2290000D03*
X2330000D03*
X2370000D03*
X2410000D03*
X2610000Y1580000D03*
X2570000D03*
X2530000D03*
X2490000D03*
X2450000D03*
Y2750000D03*
X2490000D03*
X2530000D03*
X2570000D03*
X2610000D03*
X2810000Y1580000D03*
X2770000D03*
X2730000D03*
X2690000D03*
X2650000D03*
Y2750000D03*
X2690000D03*
X2730000D03*
X2770000D03*
X2810000D03*
X3010000Y1580000D03*
X2970000D03*
X2930000D03*
X2890000D03*
X2850000D03*
Y2750000D03*
X2890000D03*
X2930000D03*
X2970000D03*
X3010000D03*
X3090000Y1580000D03*
X3050000D03*
Y2750000D03*
X3090000D03*
G54D25*
X4624500Y468800D03*
X4751500D03*
X4878500D03*
X5005500D03*
G54D17*
X2610000Y2165000D03*
G54D26*
X4995000Y3564500D03*
Y3755500D03*
X5205000Y3660000D03*
G54D18*
X3601200Y109500D03*
Y236500D03*
Y363500D03*
Y490500D03*
G54D19*
X3822200Y300000D03*
M02*
