G04 ================== begin FILE IDENTIFICATION RECORD ==================*
G04 Layout Name:  C:/Users/Joser/parcial final victor/parcial2.brd*
G04 Film Name:    SSBT*
G04 File Format:  Gerber RS274X*
G04 File Origin:  Cadence Allegro 24.1-S006*
G04 Origin Date:  Mon Nov 10 14:40:56 2025*
G04 *
G04 Layer:  REF DES/SILKSCREEN_BOTTOM*
G04 Layer:  PACKAGE GEOMETRY/SILKSCREEN_BOTTOM*
G04 Layer:  BOARD GEOMETRY/SILKSCREEN_BOTTOM*
G04 *
G04 Offset:    (0.0000 0.0000)*
G04 Mirror:    No*
G04 Mode:      Positive*
G04 Rotation:  0*
G04 FullContactRelief:  No*
G04 UndefLineWidth:     0.1524*
G04 ================== end FILE IDENTIFICATION RECORD ====================*
%FSLAX25Y25*MOMM*%
%IR0*IPPOS*OFA0.00000B0.00000*MIA0B0*SFA1.00000B1.00000*%
%ADD10C,.1*%
%ADD11C,.2*%
%ADD12C,.25*%
%ADD13C,.127*%
%ADD14C,.1524*%
G75*
%LPD*%
G75*
G54D10*
G01X35000Y245000D02*
G02Y235000I0J-5000D01*
G01D02*
G02Y245000I0J5000D01*
G54D11*
G01X-210000Y480000D02*
Y375000D01*
G01X-125000Y480000D02*
X-210000D01*
G01X-5000D02*
X80000D01*
G01D02*
Y375000D01*
G01X320000Y1275000D02*
Y2067500D01*
G01X755000Y-62500D02*
X1045000D01*
G01X755000Y-17500D02*
Y-62500D01*
G01X1045000Y-17500D02*
X755000D01*
G01X750000Y2005000D02*
Y1275000D01*
G01X1630000Y1215000D02*
X837500D01*
G01X900000Y1645000D02*
X1630000D01*
G01X1675000Y3160000D02*
X882500D01*
G01X1685000Y3745000D02*
X955000D01*
G01X945000Y3590000D02*
X1675000D01*
G01X955000Y4175000D02*
X1747500D01*
G01X1050000Y-202500D02*
Y-97500D01*
G01X1045000Y-62500D02*
Y-17500D01*
G01X2562000Y1872500D02*
X3088000D01*
G01X2562000Y2377500D02*
Y1872500D01*
G01X2564500Y2567500D02*
Y2412500D01*
G01X3088000Y2377500D02*
X2562000D01*
G01X3088000Y1872500D02*
Y2377500D01*
G01X4315000Y-245000D02*
X3585000D01*
G01Y185000D02*
X4377500D01*
G01X3582500Y595000D02*
Y765000D01*
G01X3707500Y510000D02*
Y765000D01*
G54D12*
G01X3932500Y1030000D02*
G02I-12500J0D01*
G54D13*
G01X-136080Y135000D02*
Y262000D01*
X-176290D01*
X-189160Y255650D01*
X-197200Y247180D01*
X-200420Y230250D01*
X-197200Y213320D01*
X-187550Y202730D01*
X-176290Y196380D01*
X-136080D01*
G01X-176290D02*
X-200420Y135000D01*
G01X-317050D02*
Y262000D01*
X-257540Y170980D01*
X-337960D01*
G01X-391870Y160400D02*
X-401510Y145580D01*
X-414380Y137120D01*
X-428860Y135000D01*
X-441730Y137120D01*
X-454590Y147700D01*
X-462630Y160400D01*
X-464240Y173100D01*
X-461030Y187910D01*
X-449770Y198500D01*
X-438510Y202730D01*
X-424030D01*
G01X-438510D02*
X-448160Y209080D01*
X-456200Y219660D01*
X-459420Y232370D01*
X-456200Y245070D01*
X-448160Y255650D01*
X-433680Y262000D01*
X-419210Y259880D01*
X-404730Y251420D01*
G01X-81080Y1610000D02*
Y1737000D01*
X-121290D01*
X-134160Y1730650D01*
X-142200Y1722180D01*
X-145420Y1705250D01*
X-142200Y1688320D01*
X-132550Y1677730D01*
X-121290Y1671380D01*
X-81080D01*
G01X-121290D02*
X-145420Y1610000D01*
G01X-207370Y1629050D02*
X-217010Y1618460D01*
X-228270Y1612120D01*
X-242750Y1610000D01*
X-257230Y1614230D01*
X-268480Y1622700D01*
X-276530Y1637510D01*
X-278130Y1654450D01*
X-274920Y1671380D01*
X-266870Y1681970D01*
X-255620Y1690430D01*
X-244360Y1692550D01*
X-233100Y1690430D01*
X-218630Y1681970D01*
X-223450Y1737000D01*
X-266870D01*
G01X-341690Y1662910D02*
X-352950Y1677730D01*
X-362600Y1686200D01*
X-375470Y1690430D01*
X-386730Y1686200D01*
X-394770Y1677730D01*
X-401200Y1665030D01*
X-402810Y1650220D01*
X-401200Y1637510D01*
X-394770Y1624810D01*
X-385120Y1614230D01*
X-373860Y1610000D01*
X-360990Y1614230D01*
X-349730Y1626930D01*
X-343300Y1645980D01*
X-341690Y1667150D01*
X-344910Y1694660D01*
X-349730Y1709490D01*
X-357770Y1724300D01*
X-369030Y1734880D01*
X-380290Y1737000D01*
X-391550Y1732770D01*
X-399590Y1722180D01*
G01X133920Y45000D02*
Y172000D01*
X93710D01*
X80840Y165650D01*
X72800Y157180D01*
X69580Y140250D01*
X72800Y123320D01*
X82450Y112730D01*
X93710Y106380D01*
X133920D01*
G01X93710D02*
X69580Y45000D01*
G01X-47050D02*
Y172000D01*
X12460Y80980D01*
X-67960D01*
G01X-176550Y45000D02*
Y172000D01*
X-117040Y80980D01*
X-197460D01*
G01X-31370Y-66420D02*
X-41020Y-72770D01*
X-52270Y-77000D01*
X-65140D01*
X-79620Y-70650D01*
X-90870Y-60070D01*
X-98920Y-47370D01*
X-105350Y-26200D01*
X-106960Y-7150D01*
X-103740Y11900D01*
X-98920Y24600D01*
X-89270Y37300D01*
X-78010Y45770D01*
X-66750Y50000D01*
X-55490D01*
X-44230Y45770D01*
X-34580Y39420D01*
X-26540Y30950D01*
G01X27370Y24600D02*
X37010Y39420D01*
X49880Y47880D01*
X64360Y50000D01*
X77230Y47880D01*
X90090Y37300D01*
X98130Y24600D01*
X99740Y11900D01*
X96530Y-2910D01*
X85270Y-13500D01*
X74010Y-17730D01*
X59530D01*
G01X74010D02*
X83660Y-24080D01*
X91700Y-34660D01*
X94920Y-47370D01*
X91700Y-60070D01*
X83660Y-70650D01*
X69180Y-77000D01*
X54710Y-74880D01*
X40230Y-66420D01*
G01X156870Y30950D02*
X166510Y41540D01*
X177770Y47880D01*
X192250Y50000D01*
X206730Y45770D01*
X217980Y37300D01*
X226030Y22490D01*
X227630Y5550D01*
X224420Y-11380D01*
X216370Y-21970D01*
X205120Y-30430D01*
X193860Y-32550D01*
X182600Y-30430D01*
X168130Y-21970D01*
X172950Y-77000D01*
X216370D01*
G01X31080Y45000D02*
Y-82000D01*
X71290D01*
X84160Y-75650D01*
X92200Y-67180D01*
X95420Y-50250D01*
X92200Y-33320D01*
X82550Y-22730D01*
X71290Y-16380D01*
X31080D01*
G01X71290D02*
X95420Y45000D01*
G01X212050D02*
Y-82000D01*
X152540Y9020D01*
X232960D01*
G01X291690Y-60830D02*
X301340Y-73530D01*
X312600Y-79880D01*
X325470Y-82000D01*
X341550Y-77770D01*
X352810Y-67180D01*
X356030Y-54490D01*
X354420Y-41780D01*
X347980Y-31200D01*
X315820Y-10030D01*
X301340Y4780D01*
X291690Y25950D01*
X288470Y45000D01*
X356030D01*
G01X1255000Y258920D02*
X1128000D01*
Y218710D01*
X1134350Y205840D01*
X1142820Y197800D01*
X1159750Y194580D01*
X1176680Y197800D01*
X1187270Y207450D01*
X1193620Y218710D01*
Y258920D01*
G01Y218710D02*
X1255000Y194580D01*
G01X1149170Y127810D02*
X1136470Y118160D01*
X1130120Y106900D01*
X1128000Y94030D01*
X1132230Y77950D01*
X1142820Y66690D01*
X1155510Y63470D01*
X1168220Y65080D01*
X1178800Y71520D01*
X1199970Y103680D01*
X1214780Y118160D01*
X1235950Y127810D01*
X1255000Y131030D01*
Y63470D01*
G01Y-29030D02*
X1227490Y-32250D01*
X1204200Y-37080D01*
X1183030Y-43510D01*
X1159750Y-51550D01*
X1128000Y-64420D01*
Y-80D01*
G01X1100000Y-133920D02*
X1227000D01*
Y-93710D01*
X1220650Y-80840D01*
X1212180Y-72800D01*
X1195250Y-69580D01*
X1178320Y-72800D01*
X1167730Y-82450D01*
X1161380Y-93710D01*
Y-133920D01*
G01Y-93710D02*
X1100000Y-69580D01*
G01Y47050D02*
X1227000D01*
X1135980Y-12460D01*
Y67960D01*
G01X1119050Y121870D02*
X1108460Y131510D01*
X1102120Y142770D01*
X1100000Y157250D01*
X1104230Y171730D01*
X1112700Y182980D01*
X1127510Y191030D01*
X1144450Y192630D01*
X1161380Y189420D01*
X1171970Y181370D01*
X1180430Y170120D01*
X1182550Y158860D01*
X1180430Y147600D01*
X1171970Y133130D01*
X1227000Y137950D01*
Y181370D01*
G01X1430000Y263920D02*
X1303000D01*
Y223710D01*
X1309350Y210840D01*
X1317820Y202800D01*
X1334750Y199580D01*
X1351680Y202800D01*
X1362270Y212450D01*
X1368620Y223710D01*
Y263920D01*
G01Y223710D02*
X1430000Y199580D01*
G01X1324170Y132810D02*
X1311470Y123160D01*
X1305120Y111900D01*
X1303000Y99030D01*
X1307230Y82950D01*
X1317820Y71690D01*
X1330510Y68470D01*
X1343220Y70080D01*
X1353800Y76520D01*
X1374970Y108680D01*
X1389780Y123160D01*
X1410950Y132810D01*
X1430000Y136030D01*
Y68470D01*
G01X1377090Y3310D02*
X1362270Y-7950D01*
X1353800Y-17600D01*
X1349570Y-30470D01*
X1353800Y-41730D01*
X1362270Y-49770D01*
X1374970Y-56200D01*
X1389780Y-57810D01*
X1402490Y-56200D01*
X1415190Y-49770D01*
X1425770Y-40120D01*
X1430000Y-28860D01*
X1425770Y-15990D01*
X1413070Y-4730D01*
X1394020Y1700D01*
X1372850Y3310D01*
X1345340Y90D01*
X1330510Y-4730D01*
X1315700Y-12770D01*
X1305120Y-24030D01*
X1303000Y-35290D01*
X1307230Y-46550D01*
X1317820Y-54590D01*
G01X1458630Y13580D02*
X1448980Y7230D01*
X1437730Y3000D01*
X1424860D01*
X1410380Y9350D01*
X1399130Y19930D01*
X1391080Y32630D01*
X1384650Y53800D01*
X1383040Y72850D01*
X1386260Y91900D01*
X1391080Y104600D01*
X1400730Y117300D01*
X1411990Y125770D01*
X1423250Y130000D01*
X1434510D01*
X1445770Y125770D01*
X1455420Y119420D01*
X1463460Y110950D01*
G01X1522190Y24170D02*
X1531840Y11470D01*
X1543100Y5120D01*
X1555970Y3000D01*
X1572050Y7230D01*
X1583310Y17820D01*
X1586530Y30510D01*
X1584920Y43220D01*
X1578480Y53800D01*
X1546320Y74970D01*
X1531840Y89780D01*
X1522190Y110950D01*
X1518970Y130000D01*
X1586530D01*
G01X1682250Y3000D02*
X1669380Y7230D01*
X1659730Y17820D01*
X1653300Y30510D01*
X1648470Y47450D01*
X1646870Y66500D01*
X1648470Y85550D01*
X1653300Y102490D01*
X1659730Y115190D01*
X1669380Y125770D01*
X1682250Y130000D01*
X1695120Y125770D01*
X1704770Y115190D01*
X1711200Y102490D01*
X1716030Y85550D01*
X1717630Y66500D01*
X1716030Y47450D01*
X1711200Y30510D01*
X1704770Y17820D01*
X1695120Y7230D01*
X1682250Y3000D01*
G01X1506080Y3685000D02*
Y3558000D01*
X1546290D01*
X1559160Y3564350D01*
X1567200Y3572820D01*
X1570420Y3589750D01*
X1567200Y3606680D01*
X1557550Y3617270D01*
X1546290Y3623620D01*
X1506080D01*
G01X1546290D02*
X1570420Y3685000D01*
G01X1632370Y3665950D02*
X1642010Y3676540D01*
X1653270Y3682880D01*
X1667750Y3685000D01*
X1682230Y3680770D01*
X1693480Y3672300D01*
X1701530Y3657490D01*
X1703130Y3640550D01*
X1699920Y3623620D01*
X1691870Y3613030D01*
X1680620Y3604570D01*
X1669360Y3602450D01*
X1658100Y3604570D01*
X1643630Y3613030D01*
X1648450Y3558000D01*
X1691870D01*
G01X1794030Y3685000D02*
X1797250Y3657490D01*
X1802080Y3634200D01*
X1808510Y3613030D01*
X1816550Y3589750D01*
X1829420Y3558000D01*
X1765080D01*
G01X2673920Y1595000D02*
Y1722000D01*
X2633710D01*
X2620840Y1715650D01*
X2612800Y1707180D01*
X2609580Y1690250D01*
X2612800Y1673320D01*
X2622450Y1662730D01*
X2633710Y1656380D01*
X2673920D01*
G01X2633710D02*
X2609580Y1595000D01*
G01X2512250D02*
Y1722000D01*
X2531550Y1696600D01*
G01Y1595000D02*
X2492950D01*
G01X2363450D02*
Y1722000D01*
X2422960Y1630980D01*
X2342540D01*
G01X2678630Y1478580D02*
X2668980Y1472230D01*
X2657730Y1468000D01*
X2644860D01*
X2630380Y1474350D01*
X2619130Y1484930D01*
X2611080Y1497630D01*
X2604650Y1518800D01*
X2603040Y1537850D01*
X2606260Y1556900D01*
X2611080Y1569600D01*
X2620730Y1582300D01*
X2631990Y1590770D01*
X2643250Y1595000D01*
X2654510D01*
X2665770Y1590770D01*
X2675420Y1584420D01*
X2683460Y1575950D01*
G01X2769530Y1595000D02*
X2772750Y1567490D01*
X2777580Y1544200D01*
X2784010Y1523030D01*
X2792050Y1499750D01*
X2804920Y1468000D01*
X2740580D01*
G01X2921550Y1595000D02*
Y1468000D01*
X2862040Y1559020D01*
X2942460D01*
G01X2913920Y1610000D02*
Y1737000D01*
X2873710D01*
X2860840Y1730650D01*
X2852800Y1722180D01*
X2849580Y1705250D01*
X2852800Y1688320D01*
X2862450Y1677730D01*
X2873710Y1671380D01*
X2913920D01*
G01X2873710D02*
X2849580Y1610000D01*
G01X2752250D02*
Y1737000D01*
X2771550Y1711600D01*
G01Y1610000D02*
X2732950D01*
G01X2625970D02*
X2622750Y1637510D01*
X2617920Y1660800D01*
X2611490Y1681970D01*
X2603450Y1705250D01*
X2590580Y1737000D01*
X2654920D01*
G01X2636080Y2655000D02*
Y2528000D01*
X2676290D01*
X2689160Y2534350D01*
X2697200Y2542820D01*
X2700420Y2559750D01*
X2697200Y2576680D01*
X2687550Y2587270D01*
X2676290Y2593620D01*
X2636080D01*
G01X2676290D02*
X2700420Y2655000D01*
G01X2797750D02*
Y2528000D01*
X2778450Y2553400D01*
G01Y2655000D02*
X2817050D01*
G01X2927250D02*
X2938510Y2652880D01*
X2951370Y2646540D01*
X2959420Y2635950D01*
X2962630Y2621130D01*
X2959420Y2606320D01*
X2949770Y2593620D01*
X2935290Y2587270D01*
X2919210D01*
X2909560Y2583030D01*
X2901510Y2572450D01*
X2898300Y2557630D01*
X2903130Y2542820D01*
X2914380Y2532230D01*
X2927250Y2528000D01*
X2940120Y2532230D01*
X2951370Y2542820D01*
X2956200Y2557630D01*
X2952980Y2572450D01*
X2944940Y2583030D01*
X2935290Y2587270D01*
X2919210D01*
X2904730Y2593620D01*
X2895080Y2606320D01*
X2891870Y2621130D01*
X2895080Y2635950D01*
X2903130Y2646540D01*
X2915990Y2652880D01*
X2927250Y2655000D01*
G01X2893920Y2660000D02*
Y2787000D01*
X2853710D01*
X2840840Y2780650D01*
X2832800Y2772180D01*
X2829580Y2755250D01*
X2832800Y2738320D01*
X2842450Y2727730D01*
X2853710Y2721380D01*
X2893920D01*
G01X2853710D02*
X2829580Y2660000D01*
G01X2732250D02*
Y2787000D01*
X2751550Y2761600D01*
G01Y2660000D02*
X2712950D01*
G01X2638130Y2679050D02*
X2628490Y2668460D01*
X2617230Y2662120D01*
X2602750Y2660000D01*
X2588270Y2664230D01*
X2577020Y2672700D01*
X2568970Y2687510D01*
X2567370Y2704450D01*
X2570580Y2721380D01*
X2578630Y2731970D01*
X2589880Y2740430D01*
X2601140Y2742550D01*
X2612400Y2740430D01*
X2626870Y2731970D01*
X2622050Y2787000D01*
X2578630D01*
G01X2755000Y2681080D02*
X2882000D01*
Y2721290D01*
X2875650Y2734160D01*
X2867180Y2742200D01*
X2850250Y2745420D01*
X2833320Y2742200D01*
X2822730Y2732550D01*
X2816380Y2721290D01*
Y2681080D01*
G01Y2721290D02*
X2755000Y2745420D01*
G01Y2842750D02*
X2882000D01*
X2856600Y2823450D01*
G01X2755000D02*
Y2862050D01*
G01X2807910Y2941690D02*
X2822730Y2952950D01*
X2831200Y2962600D01*
X2835430Y2975470D01*
X2831200Y2986730D01*
X2822730Y2994770D01*
X2810030Y3001200D01*
X2795220Y3002810D01*
X2782510Y3001200D01*
X2769810Y2994770D01*
X2759230Y2985120D01*
X2755000Y2973860D01*
X2759230Y2960990D01*
X2771930Y2949730D01*
X2790980Y2943300D01*
X2812150Y2941690D01*
X2839660Y2944910D01*
X2854490Y2949730D01*
X2869300Y2957770D01*
X2879880Y2969030D01*
X2882000Y2980290D01*
X2877770Y2991550D01*
X2867180Y2999590D01*
G01X3726370Y976420D02*
X3736020Y982770D01*
X3747270Y987000D01*
X3760140D01*
X3774620Y980650D01*
X3785870Y970070D01*
X3793920Y957370D01*
X3800350Y936200D01*
X3801960Y917150D01*
X3798740Y898100D01*
X3793920Y885400D01*
X3784270Y872700D01*
X3773010Y864230D01*
X3761750Y860000D01*
X3750490D01*
X3739230Y864230D01*
X3729580Y870580D01*
X3721540Y879050D01*
G01X3662810Y912910D02*
X3651550Y927730D01*
X3641900Y936200D01*
X3629030Y940430D01*
X3617770Y936200D01*
X3609730Y927730D01*
X3603300Y915030D01*
X3601690Y900220D01*
X3603300Y887510D01*
X3609730Y874810D01*
X3619380Y864230D01*
X3630640Y860000D01*
X3643510Y864230D01*
X3654770Y876930D01*
X3661200Y895980D01*
X3662810Y917150D01*
X3659590Y944660D01*
X3654770Y959490D01*
X3646730Y974300D01*
X3635470Y984880D01*
X3624210Y987000D01*
X3612950Y982770D01*
X3604910Y972180D01*
G01X3502750Y987000D02*
X3515620Y982770D01*
X3525270Y972180D01*
X3531700Y959490D01*
X3536530Y942550D01*
X3538130Y923500D01*
X3536530Y904450D01*
X3531700Y887510D01*
X3525270Y874810D01*
X3515620Y864230D01*
X3502750Y860000D01*
X3489880Y864230D01*
X3480230Y874810D01*
X3473800Y887510D01*
X3468970Y904450D01*
X3467370Y923500D01*
X3468970Y942550D01*
X3473800Y959490D01*
X3480230Y972180D01*
X3489880Y982770D01*
X3502750Y987000D01*
G01X3825000Y971080D02*
X3952000D01*
Y1011290D01*
X3945650Y1024160D01*
X3937180Y1032200D01*
X3920250Y1035420D01*
X3903320Y1032200D01*
X3892730Y1022550D01*
X3886380Y1011290D01*
Y971080D01*
G01Y1011290D02*
X3825000Y1035420D01*
G01X3877910Y1102190D02*
X3892730Y1113450D01*
X3901200Y1123100D01*
X3905430Y1135970D01*
X3901200Y1147230D01*
X3892730Y1155270D01*
X3880030Y1161700D01*
X3865220Y1163310D01*
X3852510Y1161700D01*
X3839810Y1155270D01*
X3829230Y1145620D01*
X3825000Y1134360D01*
X3829230Y1121490D01*
X3841930Y1110230D01*
X3860980Y1103800D01*
X3882150Y1102190D01*
X3909660Y1105410D01*
X3924490Y1110230D01*
X3939300Y1118270D01*
X3949880Y1129530D01*
X3952000Y1140790D01*
X3947770Y1152050D01*
X3937180Y1160090D01*
G01X3844050Y1226870D02*
X3833460Y1236510D01*
X3827120Y1247770D01*
X3825000Y1262250D01*
X3829230Y1276730D01*
X3837700Y1287980D01*
X3852510Y1296030D01*
X3869450Y1297630D01*
X3886380Y1294420D01*
X3896970Y1286370D01*
X3905430Y1275120D01*
X3907550Y1263860D01*
X3905430Y1252600D01*
X3896970Y1238130D01*
X3952000Y1242950D01*
Y1286370D01*
G01X3995000Y1093920D02*
X3868000D01*
Y1053710D01*
X3874350Y1040840D01*
X3882820Y1032800D01*
X3899750Y1029580D01*
X3916680Y1032800D01*
X3927270Y1042450D01*
X3933620Y1053710D01*
Y1093920D01*
G01Y1053710D02*
X3995000Y1029580D01*
G01Y935470D02*
X3967490Y932250D01*
X3944200Y927420D01*
X3923030Y920990D01*
X3899750Y912950D01*
X3868000Y900080D01*
Y964420D01*
G01Y802750D02*
X3872230Y815620D01*
X3882820Y825270D01*
X3895510Y831700D01*
X3912450Y836530D01*
X3931500Y838130D01*
X3950550Y836530D01*
X3967490Y831700D01*
X3980190Y825270D01*
X3990770Y815620D01*
X3995000Y802750D01*
X3990770Y789880D01*
X3980190Y780230D01*
X3967490Y773800D01*
X3950550Y768970D01*
X3931500Y767370D01*
X3912450Y768970D01*
X3895510Y773800D01*
X3882820Y780230D01*
X3872230Y789880D01*
X3868000Y802750D01*
G01X4135000Y1163920D02*
X4008000D01*
Y1123710D01*
X4014350Y1110840D01*
X4022820Y1102800D01*
X4039750Y1099580D01*
X4056680Y1102800D01*
X4067270Y1112450D01*
X4073620Y1123710D01*
Y1163920D01*
G01Y1123710D02*
X4135000Y1099580D01*
G01Y1005470D02*
X4107490Y1002250D01*
X4084200Y997420D01*
X4063030Y990990D01*
X4039750Y982950D01*
X4008000Y970080D01*
Y1034420D01*
G01X4109600Y908130D02*
X4124420Y898490D01*
X4132880Y885620D01*
X4135000Y871140D01*
X4132880Y858270D01*
X4122300Y845410D01*
X4109600Y837370D01*
X4096900Y835760D01*
X4082090Y838970D01*
X4071500Y850230D01*
X4067270Y861490D01*
Y875970D01*
G01Y861490D02*
X4060920Y851840D01*
X4050340Y843800D01*
X4037630Y840580D01*
X4024930Y843800D01*
X4014350Y851840D01*
X4008000Y866320D01*
X4010120Y880790D01*
X4018580Y895270D01*
G01X4070000Y1196080D02*
X4197000D01*
Y1236290D01*
X4190650Y1249160D01*
X4182180Y1257200D01*
X4165250Y1260420D01*
X4148320Y1257200D01*
X4137730Y1247550D01*
X4131380Y1236290D01*
Y1196080D01*
G01Y1236290D02*
X4070000Y1260420D01*
G01Y1354530D02*
X4097510Y1357750D01*
X4120800Y1362580D01*
X4141970Y1369010D01*
X4165250Y1377050D01*
X4197000Y1389920D01*
Y1325580D01*
G01X4070000Y1506550D02*
X4197000D01*
X4105980Y1447040D01*
Y1527460D01*
G01X4083580Y471370D02*
X4077230Y481020D01*
X4073000Y492270D01*
Y505140D01*
X4079350Y519620D01*
X4089930Y530870D01*
X4102630Y538920D01*
X4123800Y545350D01*
X4142850Y546960D01*
X4161900Y543740D01*
X4174600Y538920D01*
X4187300Y529270D01*
X4195770Y518010D01*
X4200000Y506750D01*
Y495490D01*
X4195770Y484230D01*
X4189420Y474580D01*
X4180950Y466540D01*
G01X4147090Y407810D02*
X4132270Y396550D01*
X4123800Y386900D01*
X4119570Y374030D01*
X4123800Y362770D01*
X4132270Y354730D01*
X4144970Y348300D01*
X4159780Y346690D01*
X4172490Y348300D01*
X4185190Y354730D01*
X4195770Y364380D01*
X4200000Y375640D01*
X4195770Y388510D01*
X4183070Y399770D01*
X4164020Y406200D01*
X4142850Y407810D01*
X4115340Y404590D01*
X4100510Y399770D01*
X4085700Y391730D01*
X4075120Y380470D01*
X4073000Y369210D01*
X4077230Y357950D01*
X4087820Y349910D01*
G01X4200000Y250970D02*
X4172490Y247750D01*
X4149200Y242920D01*
X4128030Y236490D01*
X4104750Y228450D01*
X4073000Y215580D01*
Y279920D01*
G01X4568630Y743580D02*
X4558980Y737230D01*
X4547730Y733000D01*
X4534860D01*
X4520380Y739350D01*
X4509130Y749930D01*
X4501080Y762630D01*
X4494650Y783800D01*
X4493040Y802850D01*
X4496260Y821900D01*
X4501080Y834600D01*
X4510730Y847300D01*
X4521990Y855770D01*
X4533250Y860000D01*
X4544510D01*
X4555770Y855770D01*
X4565420Y849420D01*
X4573460Y840950D01*
G01X4632190Y807090D02*
X4643450Y792270D01*
X4653100Y783800D01*
X4665970Y779570D01*
X4677230Y783800D01*
X4685270Y792270D01*
X4691700Y804970D01*
X4693310Y819780D01*
X4691700Y832490D01*
X4685270Y845190D01*
X4675620Y855770D01*
X4664360Y860000D01*
X4651490Y855770D01*
X4640230Y843070D01*
X4633800Y824020D01*
X4632190Y802850D01*
X4635410Y775340D01*
X4640230Y760510D01*
X4648270Y745700D01*
X4659530Y735120D01*
X4670790Y733000D01*
X4682050Y737230D01*
X4690090Y747820D01*
G01X4792250Y860000D02*
Y733000D01*
X4772950Y758400D01*
G01Y860000D02*
X4811550D01*
G01X4678630Y813580D02*
X4668980Y807230D01*
X4657730Y803000D01*
X4644860D01*
X4630380Y809350D01*
X4619130Y819930D01*
X4611080Y832630D01*
X4604650Y853800D01*
X4603040Y872850D01*
X4606260Y891900D01*
X4611080Y904600D01*
X4620730Y917300D01*
X4631990Y925770D01*
X4643250Y930000D01*
X4654510D01*
X4665770Y925770D01*
X4675420Y919420D01*
X4683460Y910950D01*
G01X4742190Y877090D02*
X4753450Y862270D01*
X4763100Y853800D01*
X4775970Y849570D01*
X4787230Y853800D01*
X4795270Y862270D01*
X4801700Y874970D01*
X4803310Y889780D01*
X4801700Y902490D01*
X4795270Y915190D01*
X4785620Y925770D01*
X4774360Y930000D01*
X4761490Y925770D01*
X4750230Y913070D01*
X4743800Y894020D01*
X4742190Y872850D01*
X4745410Y845340D01*
X4750230Y830510D01*
X4758270Y815700D01*
X4769530Y805120D01*
X4780790Y803000D01*
X4792050Y807230D01*
X4800090Y817820D01*
G01X4871690Y824170D02*
X4881340Y811470D01*
X4892600Y805120D01*
X4905470Y803000D01*
X4921550Y807230D01*
X4932810Y817820D01*
X4936030Y830510D01*
X4934420Y843220D01*
X4927980Y853800D01*
X4895820Y874970D01*
X4881340Y889780D01*
X4871690Y910950D01*
X4868470Y930000D01*
X4936030D01*
G01X4501080D02*
Y803000D01*
X4541290D01*
X4554160Y809350D01*
X4562200Y817820D01*
X4565420Y834750D01*
X4562200Y851680D01*
X4552550Y862270D01*
X4541290Y868620D01*
X4501080D01*
G01X4541290D02*
X4565420Y930000D01*
G01X4632190Y877090D02*
X4643450Y862270D01*
X4653100Y853800D01*
X4665970Y849570D01*
X4677230Y853800D01*
X4685270Y862270D01*
X4691700Y874970D01*
X4693310Y889780D01*
X4691700Y902490D01*
X4685270Y915190D01*
X4675620Y925770D01*
X4664360Y930000D01*
X4651490Y925770D01*
X4640230Y913070D01*
X4633800Y894020D01*
X4632190Y872850D01*
X4635410Y845340D01*
X4640230Y830510D01*
X4648270Y815700D01*
X4659530Y805120D01*
X4670790Y803000D01*
X4682050Y807230D01*
X4690090Y817820D01*
G01X4811550Y930000D02*
Y803000D01*
X4752040Y894020D01*
X4832460D01*
G54D14*
G01X3650000Y1030000D02*
Y910000D01*
G01X3760000D02*
Y1030000D01*
G01X4195000Y1195000D02*
Y1075000D01*
G01X4305000D02*
Y1195000D01*
G01X-72790Y415000D02*
Y493740D01*
X-92260D01*
X-100050Y489800D01*
X-105890Y484550D01*
X-110760Y476680D01*
X-114660Y467490D01*
X-115630Y454370D01*
X-114660Y441250D01*
X-110760Y432060D01*
X-105890Y424180D01*
X-100050Y418940D01*
X-92260Y415000D01*
X-72790D01*
G01X-154450Y480620D02*
X-160290Y488490D01*
X-167110Y492430D01*
X-174900Y493740D01*
X-184630Y491120D01*
X-191450Y484550D01*
X-193400Y476680D01*
X-192420Y468800D01*
X-188530Y462240D01*
X-169060Y449120D01*
X-160290Y439930D01*
X-154450Y426810D01*
X-152500Y415000D01*
X-193400D01*
G01X462820Y1589370D02*
X458880Y1595210D01*
X456260Y1602030D01*
Y1609820D01*
X460200Y1618580D01*
X466760Y1625390D01*
X474630Y1630260D01*
X487760Y1634160D01*
X499570Y1635130D01*
X511380Y1633180D01*
X519250Y1630260D01*
X527130Y1624420D01*
X532380Y1617610D01*
X535000Y1610790D01*
Y1603970D01*
X532380Y1597160D01*
X528440Y1591320D01*
X523190Y1586450D01*
G01X535000Y1534000D02*
X517940Y1532050D01*
X503510Y1529130D01*
X490380Y1525230D01*
X475950Y1520370D01*
X456260Y1512580D01*
Y1551520D01*
G01Y1453310D02*
X458880Y1461100D01*
X465450Y1466940D01*
X473320Y1470840D01*
X483820Y1473760D01*
X495630Y1474730D01*
X507440Y1473760D01*
X517940Y1470840D01*
X525820Y1466940D01*
X532380Y1461100D01*
X535000Y1453310D01*
X532380Y1445520D01*
X525820Y1439680D01*
X517940Y1435780D01*
X507440Y1432860D01*
X495630Y1431890D01*
X483820Y1432860D01*
X473320Y1435780D01*
X465450Y1439680D01*
X458880Y1445520D01*
X456260Y1453310D01*
G01X900000Y-10790D02*
X901310Y-18580D01*
X906560Y-25390D01*
X914430Y-31240D01*
X923620Y-35130D01*
X934120Y-37080D01*
X944620D01*
X955120Y-35130D01*
X964310Y-31240D01*
X972180Y-25390D01*
X977430Y-18580D01*
X978740Y-10790D01*
X977430Y-3000D01*
X972180Y3810D01*
X964310Y9660D01*
X955120Y13550D01*
X944620Y15500D01*
X934120D01*
X923620Y13550D01*
X914430Y9660D01*
X906560Y3810D01*
X901310Y-3000D01*
X900000Y-10790D01*
G01X921000Y-3000D02*
X900000Y8680D01*
G01X965620Y49450D02*
X973490Y55290D01*
X977430Y62110D01*
X978740Y69900D01*
X976120Y79630D01*
X969550Y86450D01*
X961680Y88400D01*
X953800Y87420D01*
X947240Y83530D01*
X934120Y64060D01*
X924930Y55290D01*
X911810Y49450D01*
X900000Y47500D01*
Y88400D01*
G01X1269370Y4032180D02*
X1275210Y4036120D01*
X1282030Y4038740D01*
X1289820D01*
X1298580Y4034800D01*
X1305390Y4028240D01*
X1310260Y4020370D01*
X1314160Y4007240D01*
X1315130Y3995430D01*
X1313180Y3983620D01*
X1310260Y3975750D01*
X1304420Y3967870D01*
X1297610Y3962620D01*
X1290790Y3960000D01*
X1283970D01*
X1277160Y3962620D01*
X1271320Y3966560D01*
X1266450Y3971810D01*
G01X1214000Y3960000D02*
X1212050Y3977060D01*
X1209130Y3991490D01*
X1205230Y4004620D01*
X1200370Y4019050D01*
X1192580Y4038740D01*
X1231520D01*
G01X1133310Y3960000D02*
Y4038740D01*
X1144990Y4022990D01*
G01Y3960000D02*
X1121630D01*
G01X1315630Y1357820D02*
X1309790Y1353880D01*
X1302970Y1351260D01*
X1295180D01*
X1286420Y1355200D01*
X1279610Y1361760D01*
X1274740Y1369630D01*
X1270840Y1382760D01*
X1269870Y1394570D01*
X1271820Y1406380D01*
X1274740Y1414250D01*
X1280580Y1422130D01*
X1287390Y1427380D01*
X1294210Y1430000D01*
X1301030D01*
X1307840Y1427380D01*
X1313680Y1423440D01*
X1318550Y1418190D01*
G01X1371000Y1430000D02*
X1372950Y1412940D01*
X1375870Y1398510D01*
X1379770Y1385380D01*
X1384630Y1370950D01*
X1392420Y1351260D01*
X1353480D01*
G01X1433190Y1364380D02*
X1439030Y1356510D01*
X1445850Y1352570D01*
X1453640Y1351260D01*
X1463370Y1353880D01*
X1470190Y1360450D01*
X1472140Y1368320D01*
X1471160Y1376200D01*
X1467270Y1382760D01*
X1447800Y1395880D01*
X1439030Y1405070D01*
X1433190Y1418190D01*
X1431240Y1430000D01*
X1472140D01*
G01X1360630Y3302820D02*
X1354790Y3298880D01*
X1347970Y3296260D01*
X1340180D01*
X1331420Y3300200D01*
X1324610Y3306760D01*
X1319740Y3314630D01*
X1315840Y3327760D01*
X1314870Y3339570D01*
X1316820Y3351380D01*
X1319740Y3359250D01*
X1325580Y3367130D01*
X1332390Y3372380D01*
X1339210Y3375000D01*
X1346030D01*
X1352840Y3372380D01*
X1358680Y3368440D01*
X1363550Y3363190D01*
G01X1416000Y3375000D02*
X1417950Y3357940D01*
X1420870Y3343510D01*
X1424770Y3330380D01*
X1429630Y3315950D01*
X1437420Y3296260D01*
X1398480D01*
G01X1475270Y3359250D02*
X1481110Y3368440D01*
X1488900Y3373690D01*
X1497660Y3375000D01*
X1505450Y3373690D01*
X1513240Y3367130D01*
X1518110Y3359250D01*
X1519080Y3351380D01*
X1517140Y3342190D01*
X1510320Y3335630D01*
X1503510Y3333000D01*
X1494740D01*
G01X1503510D02*
X1509350Y3329070D01*
X1514220Y3322510D01*
X1516160Y3314630D01*
X1514220Y3306760D01*
X1509350Y3300200D01*
X1500580Y3296260D01*
X1491820Y3297570D01*
X1483060Y3302820D01*
G01X2746260Y2107470D02*
Y2084110D01*
G01Y2095790D02*
X2825000D01*
G01Y2107470D02*
Y2084110D01*
G01X2752820Y1995630D02*
X2748880Y2001470D01*
X2746260Y2008290D01*
Y2016080D01*
X2750200Y2024840D01*
X2756760Y2031650D01*
X2764630Y2036520D01*
X2777760Y2040420D01*
X2789570Y2041390D01*
X2801380Y2039440D01*
X2809250Y2036520D01*
X2817130Y2030680D01*
X2822380Y2023870D01*
X2825000Y2017050D01*
Y2010230D01*
X2822380Y2003420D01*
X2818440Y1997580D01*
X2813190Y1992710D01*
G01X2825000Y1938310D02*
X2746260D01*
X2762010Y1949990D01*
G01X2825000D02*
Y1926630D01*
G01X3645000Y687790D02*
X3723740D01*
Y707260D01*
X3719800Y715050D01*
X3714550Y720890D01*
X3706680Y725760D01*
X3697490Y729660D01*
X3684370Y730630D01*
X3671250Y729660D01*
X3662060Y725760D01*
X3654180Y720890D01*
X3648940Y715050D01*
X3645000Y707260D01*
Y687790D01*
G01X3660750Y766530D02*
X3651560Y772370D01*
X3646310Y780160D01*
X3645000Y788920D01*
X3646310Y796710D01*
X3652870Y804500D01*
X3660750Y809370D01*
X3668620Y810340D01*
X3677810Y808400D01*
X3684370Y801580D01*
X3687000Y794770D01*
Y786000D01*
G01Y794770D02*
X3690930Y800610D01*
X3697490Y805480D01*
X3705370Y807420D01*
X3713240Y805480D01*
X3719800Y800610D01*
X3723740Y791840D01*
X3722430Y783080D01*
X3717180Y774320D01*
G01X3899370Y42180D02*
X3905210Y46120D01*
X3912030Y48740D01*
X3919820D01*
X3928580Y44800D01*
X3935390Y38240D01*
X3940260Y30370D01*
X3944160Y17240D01*
X3945130Y5430D01*
X3943180Y-6380D01*
X3940260Y-14250D01*
X3934420Y-22130D01*
X3927610Y-27380D01*
X3920790Y-30000D01*
X3913970D01*
X3907160Y-27380D01*
X3901320Y-23440D01*
X3896450Y-18190D01*
G01X3860550Y2810D02*
X3853730Y12000D01*
X3847890Y17240D01*
X3840100Y19870D01*
X3833290Y17240D01*
X3828420Y12000D01*
X3824520Y4120D01*
X3823550Y-5070D01*
X3824520Y-12940D01*
X3828420Y-20820D01*
X3834260Y-27380D01*
X3841080Y-30000D01*
X3848870Y-27380D01*
X3855680Y-19500D01*
X3859580Y-7690D01*
X3860550Y5430D01*
X3858600Y22490D01*
X3855680Y31680D01*
X3850810Y40870D01*
X3844000Y47430D01*
X3837180Y48740D01*
X3830370Y46120D01*
X3825500Y39550D01*
G01X3779860Y-20820D02*
X3773050Y-27380D01*
X3765260Y-30000D01*
X3757470Y-27380D01*
X3750650Y-19500D01*
X3745780Y-7690D01*
X3743840Y4120D01*
Y18560D01*
X3745780Y30370D01*
X3750650Y40870D01*
X3756490Y46120D01*
X3763310Y48740D01*
X3771100Y46120D01*
X3776940Y40870D01*
X3780840Y32990D01*
X3782780Y22490D01*
X3780840Y13310D01*
X3775970Y4120D01*
X3770130Y-1130D01*
X3763310Y-2440D01*
X3755520Y180D01*
X3749680Y6740D01*
X3743840Y18560D01*
G01X3652080Y1064430D02*
X3645730Y1074130D01*
X3641500Y1085450D01*
Y1098380D01*
X3647850Y1112940D01*
X3658430Y1124250D01*
X3671130Y1132330D01*
X3692300Y1138800D01*
X3711350Y1140420D01*
X3730400Y1137180D01*
X3743100Y1132330D01*
X3755800Y1122630D01*
X3764270Y1111320D01*
X3768500Y1100000D01*
Y1088680D01*
X3764270Y1077370D01*
X3757920Y1067670D01*
X3749450Y1059580D01*
G01X3715590Y1000720D02*
X3700770Y989400D01*
X3692300Y979700D01*
X3688070Y966770D01*
X3692300Y955450D01*
X3700770Y947370D01*
X3713470Y940900D01*
X3728280Y939280D01*
X3740990Y940900D01*
X3753690Y947370D01*
X3764270Y957070D01*
X3768500Y968380D01*
X3764270Y981320D01*
X3751570Y992630D01*
X3732520Y999100D01*
X3711350Y1000720D01*
X3683840Y997480D01*
X3669010Y992630D01*
X3654200Y984550D01*
X3643620Y973230D01*
X3641500Y961920D01*
X3645730Y950600D01*
X3656320Y942520D01*
G01X3715590Y870720D02*
X3700770Y859400D01*
X3692300Y849700D01*
X3688070Y836770D01*
X3692300Y825450D01*
X3700770Y817370D01*
X3713470Y810900D01*
X3728280Y809280D01*
X3740990Y810900D01*
X3753690Y817370D01*
X3764270Y827070D01*
X3768500Y838380D01*
X3764270Y851320D01*
X3751570Y862630D01*
X3732520Y869100D01*
X3711350Y870720D01*
X3683840Y867480D01*
X3669010Y862630D01*
X3654200Y854550D01*
X3643620Y843230D01*
X3641500Y831920D01*
X3645730Y820600D01*
X3656320Y812520D01*
G01X4041260Y822470D02*
Y799110D01*
G01Y810790D02*
X4120000D01*
G01Y822470D02*
Y799110D01*
G01X4047820Y710630D02*
X4043880Y716470D01*
X4041260Y723290D01*
Y731080D01*
X4045200Y739840D01*
X4051760Y746650D01*
X4059630Y751520D01*
X4072760Y755420D01*
X4084570Y756390D01*
X4096380Y754440D01*
X4104250Y751520D01*
X4112130Y745680D01*
X4117380Y738870D01*
X4120000Y732050D01*
Y725230D01*
X4117380Y718420D01*
X4113440Y712580D01*
X4108190Y707710D01*
G01X4087190Y671810D02*
X4078000Y664990D01*
X4072760Y659150D01*
X4070130Y651360D01*
X4072760Y644550D01*
X4078000Y639680D01*
X4085880Y635780D01*
X4095070Y634810D01*
X4102940Y635780D01*
X4110820Y639680D01*
X4117380Y645520D01*
X4120000Y652340D01*
X4117380Y660130D01*
X4109500Y666940D01*
X4097690Y670840D01*
X4084570Y671810D01*
X4067510Y669860D01*
X4058320Y666940D01*
X4049130Y662070D01*
X4042570Y655260D01*
X4041260Y648440D01*
X4043880Y641630D01*
X4050450Y636760D01*
G01X4197080Y1229430D02*
X4190730Y1239130D01*
X4186500Y1250450D01*
Y1263380D01*
X4192850Y1277940D01*
X4203430Y1289250D01*
X4216130Y1297330D01*
X4237300Y1303800D01*
X4256350Y1305420D01*
X4275400Y1302180D01*
X4288100Y1297330D01*
X4300800Y1287630D01*
X4309270Y1276320D01*
X4313500Y1265000D01*
Y1253680D01*
X4309270Y1242370D01*
X4302920Y1232670D01*
X4294450Y1224580D01*
G01X4260590Y1165720D02*
X4245770Y1154400D01*
X4237300Y1144700D01*
X4233070Y1131770D01*
X4237300Y1120450D01*
X4245770Y1112370D01*
X4258470Y1105900D01*
X4273280Y1104280D01*
X4285990Y1105900D01*
X4298690Y1112370D01*
X4309270Y1122070D01*
X4313500Y1133380D01*
X4309270Y1146320D01*
X4296570Y1157630D01*
X4277520Y1164100D01*
X4256350Y1165720D01*
X4228840Y1162480D01*
X4214010Y1157630D01*
X4199200Y1149550D01*
X4188620Y1138230D01*
X4186500Y1126920D01*
X4190730Y1115600D01*
X4201320Y1107520D01*
G01X4294450Y1040570D02*
X4305040Y1030870D01*
X4311380Y1019550D01*
X4313500Y1005000D01*
X4309270Y990450D01*
X4300800Y979130D01*
X4285990Y971050D01*
X4269050Y969430D01*
X4252120Y972670D01*
X4241530Y980750D01*
X4233070Y992070D01*
X4230950Y1003380D01*
X4233070Y1014700D01*
X4241530Y1029250D01*
X4186500Y1024400D01*
Y980750D01*
M02*
