G04 ================== begin FILE IDENTIFICATION RECORD ==================*
G04 Layout Name:  C:/Users/Joser/parcial final victor/parcial2.brd*
G04 Film Name:    TOP*
G04 File Format:  Gerber RS274X*
G04 File Origin:  Cadence Allegro 24.1-S006*
G04 Origin Date:  Mon Nov 10 14:00:51 2025*
G04 *
G04 Layer:  ETCH/TOP*
G04 Layer:  PIN/TOP*
G04 Layer:  VIA CLASS/TOP*
G04 *
G04 Offset:    (0.0000 0.0000)*
G04 Mirror:    No*
G04 Mode:      Positive*
G04 Rotation:  0*
G04 FullContactRelief:  No*
G04 UndefLineWidth:     0.0000*
G04 ================== end FILE IDENTIFICATION RECORD ====================*
%FSLAX25Y25*MOMM*%
%IR0*IPPOS*OFA0.00000B0.00000*MIA0B0*SFA1.00000B1.00000*%
%AMMACRO24*
4,1,21,.175,-.1499,
-.0249,-.1499,
-.050947,-.147621,
-.076203,-.140854,
-.0999,-.129804,
-.121318,-.114807,
-.139807,-.096318,
-.154804,-.0749,
-.165854,-.051203,
-.172621,-.025947,
-.1749,.0001,
-.172621,.026147,
-.165854,.051403,
-.154804,.0751,
-.139807,.096518,
-.121318,.115007,
-.0999,.130004,
-.076203,.141054,
-.050947,.147821,
-.0249,.1501,
.175,.1501,
.175,-.1499,
0.0*
%
%ADD24MACRO24*%
%AMMACRO46*
4,1,21,-.1499,-.4,
-.1499,.2499,
-.147621,.275947,
-.140854,.301203,
-.129804,.3249,
-.114807,.346318,
-.096318,.364807,
-.0749,.379804,
-.051203,.390854,
-.025947,.397621,
.0001,.3999,
.026147,.397621,
.051403,.390854,
.0751,.379804,
.096518,.364807,
.115007,.346318,
.130004,.3249,
.141054,.301203,
.147821,.275947,
.1501,.2499,
.1501,-.4,
-.1499,-.4,
0.0*
%
%ADD46MACRO46*%
%AMMACRO18*
4,1,21,-.1499,-.175,
-.1499,.0249,
-.147621,.050947,
-.140854,.076203,
-.129804,.0999,
-.114807,.121318,
-.096318,.139807,
-.0749,.154804,
-.051203,.165854,
-.025947,.172621,
.0001,.1749,
.026147,.172621,
.051403,.165854,
.0751,.154804,
.096518,.139807,
.115007,.121318,
.130004,.0999,
.141054,.076203,
.147821,.050947,
.1501,.0249,
.1501,-.175,
-.1499,-.175,
0.0*
%
%ADD18MACRO18*%
%ADD10C,.4*%
%ADD45R,.9401X2.5001*%
%ADD15R,.3X.3*%
%ADD22C,.65*%
%ADD33O,.1999X1.05*%
%ADD30O,1.05X.1999*%
%ADD28R,.8999X1.*%
%ADD23R,.5999X1.05*%
%ADD14R,1.5999X.5001*%
%ADD49R,2.X1.1*%
%ADD48R,1.1X2.*%
%ADD50R,1.2499X.5999*%
%AMMACRO47*
4,1,21,.1499,.4,
.1499,-.2499,
.147621,-.275947,
.140854,-.301203,
.129804,-.3249,
.114807,-.346318,
.096318,-.364807,
.0749,-.379804,
.051203,-.390854,
.025947,-.397621,
-.0001,-.3999,
-.026147,-.397621,
-.051403,-.390854,
-.0751,-.379804,
-.096518,-.364807,
-.115007,-.346318,
-.130004,-.3249,
-.141054,-.301203,
-.147821,-.275947,
-.1501,-.2499,
-.1501,.4,
.1499,.4,
0.0*
%
%ADD47MACRO47*%
%AMMACRO20*
4,1,21,.1499,.175,
.1499,-.0249,
.147621,-.050947,
.140854,-.076203,
.129804,-.0999,
.114807,-.121318,
.096318,-.139807,
.0749,-.154804,
.051203,-.165854,
.025947,-.172621,
-.0001,-.1749,
-.026147,-.172621,
-.051403,-.165854,
-.0751,-.154804,
-.096518,-.139807,
-.115007,-.121318,
-.130004,-.0999,
-.141054,-.076203,
-.147821,-.050947,
-.1501,-.0249,
-.1501,.175,
.1499,.175,
0.0*
%
%ADD20MACRO20*%
%AMMACRO19*
4,1,21,-.175,.1499,
.0249,.1499,
.050947,.147621,
.076203,.140854,
.0999,.129804,
.121318,.114807,
.139807,.096318,
.154804,.0749,
.165854,.051203,
.172621,.025947,
.1749,-.0001,
.172621,-.026147,
.165854,-.051403,
.154804,-.0751,
.139807,-.096518,
.121318,-.115007,
.0999,-.130004,
.076203,-.141054,
.050947,-.147821,
.0249,-.1501,
-.175,-.1501,
-.175,.1499,
0.0*
%
%ADD19MACRO19*%
%ADD16R,.7X.3*%
%ADD21C,1.1501*%
%ADD27C,2.7*%
%ADD40R,2.4501X1.7501*%
%ADD37R,.8151X.5001*%
%ADD41R,.5001X.8151*%
%ADD42R,4.3101X3.6551*%
%ADD35R,.765X.5001*%
%ADD43R,.5001X.765*%
%ADD36R,3.6551X4.3101*%
%ADD11C,1.8151*%
%ADD34R,8.1001X8.1001*%
%ADD32C,1.286*%
%ADD39R,1.524X1.524*%
%ADD26C,2.856*%
%ADD44R,4.X3.8499*%
%ADD12C,2.3099*%
%ADD38R,.685X.635*%
%ADD25C,3.9291*%
%ADD17R,.635X.685*%
%ADD29C,1.1999*%
%ADD13R,.5999X.7*%
%ADD31R,1.1999X1.1999*%
%ADD51C,.15*%
%ADD52C,.127*%
%ADD53C,.6544*%
G75*
%LPD*%
G75*
G36*
G01X1530000Y3070000D02*
X1760000D01*
X1790000Y3040000D01*
Y2725000D01*
X1735000Y2670000D01*
X1640000D01*
X1582720Y2727280D01*
Y2780000D01*
G03X1570000Y2792720I-12720J0D01*
G01X1540000D01*
G03X1527280Y2780000I0J-12720D01*
G01Y2740000D01*
X1510000D01*
X1450000Y2800000D01*
Y2990000D01*
X1530000Y3070000D01*
G37*
G36*
G01X3405000Y665000D02*
X3485000D01*
X3595000Y555000D01*
X4035000D01*
X4055000Y535000D01*
Y90000D01*
X4015000Y50000D01*
X3675000D01*
X3645000Y20000D01*
Y6610D01*
G02X3632690Y-3320I-10160J0D01*
G03X3630000Y-3030I-2701J-12429D01*
G01X3566500D01*
G03X3553780Y-15750I0J-12720D01*
G01Y-84250D01*
G03X3566500Y-96970I12720J0D01*
G01X3630000D01*
G03X3632690Y-96680I-11J12719D01*
G02X3645000Y-106610I2150J-9930D01*
G01Y-143390D01*
G02X3632690Y-153320I-10160J0D01*
G03X3630000Y-153030I-2701J-12429D01*
G01X3566500D01*
G03X3553780Y-165750I0J-12720D01*
G01Y-234250D01*
G03X3566500Y-246970I12720J0D01*
G01X3630000D01*
G03X3632690Y-246680I-11J12719D01*
G02X3644010Y-260990I2151J-9931D01*
G01X3620000Y-285000D01*
X3540000D01*
X3405000Y-150000D01*
Y513030D01*
X3478500D01*
G03X3491220Y525750I0J12720D01*
G01Y594250D01*
G03X3478500Y606970I-12720J0D01*
G01X3405000D01*
Y665000D01*
G37*
G36*
G01X3994630Y2345000D02*
X4005000D01*
X4015000Y2335000D01*
Y2140000D01*
X3995000Y2120000D01*
X3955000D01*
X3940000Y2135000D01*
Y2142280D01*
X3980000D01*
G03X3992720Y2155000I0J12720D01*
G01Y2185000D01*
G03X3980000Y2197720I-12720J0D01*
G01X3940000D01*
Y2282280D01*
X3990000D01*
G03X4002720Y2295000I0J12720D01*
G01Y2325000D01*
G03X3996940Y2335660I-12720J0D01*
G01X3994630Y2337160D01*
Y2345000D01*
G37*
G36*
G01X4430000Y1090000D02*
X5060000D01*
X5235000Y915000D01*
Y145000D01*
X5045000Y-45000D01*
X4150000D01*
X4110000Y-5000D01*
Y425000D01*
X4310000D01*
X4348530Y463530D01*
X4348880Y463780D01*
G03X4356720Y471620I-18880J26720D01*
G01X4356970Y471970D01*
X4405000Y520000D01*
Y544770D01*
G02X4418680Y554300I10160J0D01*
G03X4430000Y552280I11320J30708D01*
G03Y617720I0J32720D01*
G03X4418680Y615700I0J-32728D01*
G02X4405000Y625230I-3520J9530D01*
G01Y785920D01*
G03X4422720Y815000I-15001J29080D01*
G03X4409070Y841590I-32723J0D01*
G01Y1069070D01*
X4430000Y1090000D01*
G37*
G36*
G01X4225000Y2265000D02*
X4300000D01*
X4440000Y2125000D01*
Y1900000D01*
X4415000Y1875000D01*
X4225000D01*
X4210000Y1890000D01*
Y1975000D01*
X4171970Y2013030D01*
Y2083500D01*
G03X4159250Y2096220I-12720J0D01*
G01X4090750D01*
G03X4078030Y2083500I0J-12720D01*
G01Y2036500D01*
G02X4060690Y2029310I-10160J-2D01*
G01X4035000Y2055000D01*
Y2130000D01*
X4040000Y2135000D01*
X4075000D01*
X4090000Y2120000D01*
X4170000D01*
X4203570Y2153570D01*
X4207120Y2150770D01*
G03X4215000Y2148030I7886J9978D01*
G01X4278500D01*
G03X4291220Y2160750I0J12720D01*
G01Y2229250D01*
G03X4278500Y2241970I-12720J0D01*
G01X4226500D01*
G02X4219310Y2259310I-2J10160D01*
G01X4225000Y2265000D01*
G37*
%LPC*%
G75*
G36*
G01X1627280Y2930000D02*
Y3030000D01*
G02X1640000Y3042720I12720J0D01*
G01X1730000D01*
G02X1742720Y3030000I0J-12720D01*
G01Y2930000D01*
G02X1730000Y2917280I-12720J0D01*
G01X1640000D01*
G02X1627280Y2930000I0J12720D01*
G37*
G36*
G01Y2740000D02*
Y2840000D01*
G02X1640000Y2852720I12720J0D01*
G01X1730000D01*
G02X1742720Y2840000I0J-12720D01*
G01Y2740000D01*
G02X1730000Y2727280I-12720J0D01*
G01X1640000D01*
G02X1627280Y2740000I0J12720D01*
G37*
G36*
G01X3550230Y465500D02*
Y515500D01*
G02X3562950Y528220I12720J0D01*
G01X4004960D01*
G02X4017680Y515500I0J-12720D01*
G01Y84500D01*
G02X4004960Y71780I-12720J0D01*
G01X3562950D01*
G02X3550230Y84500I0J12720D01*
G01Y134500D01*
G02X3562950Y147220I12720J0D01*
G01X3626720D01*
Y198780D01*
X3562950D01*
G02X3550230Y211500I0J12720D01*
G01Y261500D01*
G02X3562950Y274220I12720J0D01*
G01X3626720D01*
Y325780D01*
X3562950D01*
G02X3550230Y338500I0J12720D01*
G01Y388500D01*
G02X3562950Y401220I12720J0D01*
G01X3626720D01*
Y452780D01*
X3562950D01*
G02X3550230Y465500I0J12720D01*
G37*
G36*
G01X4462280Y655000D02*
Y1040000D01*
G02X4475000Y1052720I12720J0D01*
G01X4875000D01*
G02X4887720Y1040000I0J-12720D01*
G01Y655000D01*
G02X4875000Y642280I-12720J0D01*
G01X4475000D01*
G02X4462280Y655000I0J12720D01*
G37*
G36*
G01X4126520Y211500D02*
Y261500D01*
G02X4139240Y274220I12720J0D01*
G01X4220760D01*
G02X4233480Y261500I0J-12720D01*
G01Y211500D01*
G02X4220760Y198780I-12720J0D01*
G01X4139240D01*
G02X4126520Y211500I0J12720D01*
G37*
G36*
G01Y338500D02*
Y388500D01*
G02X4139240Y401220I12720J0D01*
G01X4220760D01*
G02X4233480Y388500I0J-12720D01*
G01Y338500D01*
G02X4220760Y325780I-12720J0D01*
G01X4139240D01*
G02X4126520Y338500I0J12720D01*
G37*
G36*
G01Y84500D02*
Y134500D01*
G02X4139240Y147220I12720J0D01*
G01X4220760D01*
G02X4233480Y134500I0J-12720D01*
G01Y84500D01*
G02X4220760Y71780I-12720J0D01*
G01X4139240D01*
G02X4126520Y84500I0J12720D01*
G37*
G36*
G01X4967780Y443280D02*
Y507050D01*
G02X4980500Y519770I12720J0D01*
G01X5030500D01*
G02X5043220Y507050I0J-12720D01*
G01Y65040D01*
G02X5030500Y52320I-12720J0D01*
G01X4599500D01*
G02X4586780Y65040I0J12720D01*
G01Y507050D01*
G02X4599500Y519770I12720J0D01*
G01X4649500D01*
G02X4662220Y507050I0J-12720D01*
G01Y443280D01*
X4713780D01*
Y507050D01*
G02X4726500Y519770I12720J0D01*
G01X4776500D01*
G02X4789220Y507050I0J-12720D01*
G01Y443280D01*
X4840780D01*
Y507050D01*
G02X4853500Y519770I12720J0D01*
G01X4903500D01*
G02X4916220Y507050I0J-12720D01*
G01Y443280D01*
X4967780D01*
G37*
G36*
G01X4220880Y1928800D02*
Y2081200D01*
G02X4233600Y2093920I12720J0D01*
G01X4386000D01*
G02X4398720Y2081200I0J-12720D01*
G01Y1928800D01*
G02X4386000Y1916080I-12720J0D01*
G01X4233600D01*
G02X4220880Y1928800I0J12720D01*
G37*
G54D53*
X3455000Y-10000D03*
X4375000Y290000D03*
%LPD*%
G75*
G54D10*
X-205000Y-230000D03*
X-255000Y595000D03*
X-205000Y1020000D03*
X-215000Y1610000D03*
Y2635000D03*
Y3935000D03*
X-65000Y1030000D03*
X-55000Y1415000D03*
X-165000Y1490000D03*
X-40000Y1680000D03*
X-55000Y2175000D03*
X-25000Y2275000D03*
X5000Y2975000D03*
X190000Y120000D03*
X215000Y270000D03*
X179290Y985000D03*
X100710D03*
X75000Y1420000D03*
X110000Y2170000D03*
X204900Y3096320D03*
X126320D03*
X190000Y4085000D03*
X165000Y4370000D03*
X65000Y4420000D03*
X170000Y4430000D03*
X337500Y77500D03*
X300000Y480000D03*
X420000Y1605000D03*
X430000Y2600000D03*
X250000Y3775000D03*
X315000Y4865000D03*
X500000Y-183000D03*
X477500Y627500D03*
X581000Y639000D03*
X505000Y805000D03*
X535000Y1160000D03*
X540000Y2710000D03*
X600000Y4680000D03*
X510000Y4735000D03*
X652500Y52500D03*
X690000Y460000D03*
X810710Y415000D03*
X715000Y630000D03*
X640000Y795000D03*
X785000Y2730000D03*
X725710Y3175000D03*
X804290D03*
X755000Y3375000D03*
X747500Y3507500D03*
X745000Y3670000D03*
X790000Y3790000D03*
X765000Y4185000D03*
X755000Y4130000D03*
X765000Y4275000D03*
X1020000Y70000D03*
X889290Y415000D03*
X880000Y1060000D03*
X955000Y1760000D03*
X994290Y2020000D03*
X915710D03*
X994290Y2670000D03*
X915710D03*
X985000Y3205000D03*
X845000Y3675000D03*
X975000Y4535000D03*
X845000Y4420000D03*
X950000Y4660000D03*
X905000Y4850000D03*
X960000Y5120000D03*
X1100000Y-60000D03*
X1080710Y1100000D03*
X1159290D03*
X1154290Y2225000D03*
X1075710D03*
X1155000Y2490000D03*
X1185200Y2645000D03*
X1160000Y2945000D03*
X1065000Y4735000D03*
Y4950000D03*
X1135000Y5190000D03*
X1290000Y130000D03*
X1255000Y190000D03*
X1430000Y440000D03*
X1261920Y895000D03*
X1340500D03*
X1261920Y1080000D03*
X1340500D03*
X1330710Y1970000D03*
X1409290D03*
X1263780Y2645000D03*
X1260000Y3050000D03*
X1370000Y3885000D03*
X1620000Y2260000D03*
X1555000Y2660000D03*
X1620000Y3165000D03*
X1465000Y3735000D03*
X1670710Y535000D03*
X1749290D03*
X1765000Y1335000D03*
X1805000Y1395000D03*
X1810000Y1550000D03*
X1750000Y1615000D03*
X1655000Y1725000D03*
X1717500Y1982500D03*
X1810000Y1965000D03*
X1780000Y1850000D03*
X1730000Y2165000D03*
X1780000Y2205000D03*
X1795000Y2325000D03*
X1750000Y2575000D03*
X1660000Y2625000D03*
X1795000Y3080000D03*
Y3165000D03*
X1780710Y3323140D03*
X1835000Y4645000D03*
X1985000Y-115000D03*
X1845000Y85000D03*
X1975710Y585570D03*
X1950000Y1345000D03*
X1870000Y1615000D03*
X1940000Y1595000D03*
X1845000Y2645000D03*
X1971130Y2750000D03*
X1870000Y3085000D03*
X2009290Y3375000D03*
X1930710D03*
X1859290Y3323140D03*
X1955000Y3935000D03*
X1935000Y5115000D03*
X2054290Y585570D03*
X2140000Y1494800D03*
X2210000Y1515000D03*
X2115000Y1725000D03*
X2120000Y1985000D03*
X2160000Y1815000D03*
X2120000Y2165000D03*
Y2325000D03*
Y2395000D03*
X2080230Y2775000D03*
X2230000Y2610000D03*
X2070000Y2872700D03*
X2145000Y2895000D03*
X2085000Y3345000D03*
X2160000Y3210000D03*
X2200710Y3295000D03*
X2200000Y3460000D03*
X2380000Y1335000D03*
X2410000Y1651560D03*
X2353590Y2650000D03*
X2410000Y2920000D03*
X2290000Y2930000D03*
X2390000Y3275000D03*
X2279290Y3295000D03*
X2365000Y4365000D03*
X2605000Y330000D03*
X2550710Y1335000D03*
X2629290D03*
X2530000Y1450000D03*
X2525000Y1695000D03*
X2610000Y2165000D03*
X2510000Y2655000D03*
X2470000Y3250000D03*
X2605000Y3310000D03*
X2500000Y3805000D03*
X2760000Y-25000D03*
X2680000Y1270000D03*
X2805000Y1390000D03*
X2835000Y2650000D03*
X2730000Y2935000D03*
X2815710Y3680000D03*
X2795000Y4640000D03*
X2805000Y5080000D03*
X2945000Y-155000D03*
X2890000Y1370000D03*
X2990000Y1270000D03*
X3005000Y1475000D03*
X3030000Y2600000D03*
X2970000Y2950000D03*
X3015000D03*
X3045000Y3060000D03*
X2894290Y3680000D03*
X2920000Y4145000D03*
X3155000Y2730000D03*
X3055000Y2655000D03*
X3100000Y2850000D03*
X3220000Y2905000D03*
X3080000Y3335000D03*
X3115000Y3555000D03*
X3205000Y3770000D03*
X3455000Y-10000D03*
X3353250Y661750D03*
X3400000Y1585000D03*
X3335710Y1450000D03*
X3414290D03*
X3400000Y1765000D03*
X3300000Y1610000D03*
X3405000Y1965000D03*
X3440000Y1910000D03*
X3395000Y1845000D03*
X3420000Y2085000D03*
X3375000Y2265940D03*
X3420000Y2325000D03*
X3375000Y2420000D03*
X3300000Y2735000D03*
X3410000Y3415000D03*
X3330000Y3795000D03*
X3585000Y3675000D03*
X3525000Y4135000D03*
X3790000Y745000D03*
X3810000Y650000D03*
X3825000Y1050000D03*
X3785000Y1115000D03*
X3665000Y1960000D03*
X3794310Y3260000D03*
X3715730D03*
X3775000Y3865000D03*
X3755000Y4225000D03*
X3720000Y4760000D03*
X4055000Y610000D03*
X3915000Y605000D03*
X3995000D03*
X4030000Y860000D03*
X3875000Y1085000D03*
X4000000Y1380000D03*
X3925000Y1300000D03*
X3975000Y1320000D03*
X3950000Y1460000D03*
X4045000Y1880750D03*
X3950000Y2005000D03*
X4055000Y2195000D03*
X3925000Y2570000D03*
X4015000Y3375000D03*
X3960000Y3435000D03*
X3995000Y4515000D03*
X4245000Y585000D03*
X4110000Y600000D03*
X4075000Y1080000D03*
X4250000Y1295000D03*
X4195000Y1310000D03*
X4070000Y1260000D03*
X4075000Y1420000D03*
X4240000Y2320000D03*
X4225000Y2420000D03*
X4110000Y2860000D03*
X4185000Y2935000D03*
Y3335000D03*
X4195000Y4340000D03*
X4165000Y4600000D03*
X4100000Y4700000D03*
X4455000Y-88440D03*
X4375000Y290000D03*
X4330000Y490500D03*
X4285000Y540000D03*
X4430000Y585000D03*
X4390000Y815000D03*
Y1120000D03*
X4325000Y1795000D03*
X4375000Y2320000D03*
X4310000Y2580000D03*
X4395000Y2830000D03*
X4305000Y3225000D03*
X4320000Y3585000D03*
X4450000Y3550000D03*
X4400000Y3510000D03*
X4330000Y4115000D03*
X4275000Y4650000D03*
X4624500Y-240000D03*
X4470000Y-155000D03*
Y2585000D03*
X4505000Y2895000D03*
X4620000D03*
X4530000Y3375000D03*
X4545000Y3645000D03*
X4495000Y3610000D03*
X4660000Y4330000D03*
X4590000Y4965000D03*
X4505000Y4970000D03*
X4751500Y-226500D03*
X4725000Y2230000D03*
X4780000Y2470000D03*
X4765000Y3135000D03*
X4735000Y3405000D03*
X4830000Y3670000D03*
X4840000Y4060000D03*
X4835000Y4665000D03*
X4745000Y4975000D03*
X5015000Y-280000D03*
X4878500Y-216500D03*
X4910000Y2470000D03*
X4953250Y2401750D03*
X5245000Y3355000D03*
X5085000Y3410000D03*
X5095000Y4195000D03*
G54D11*
X-205000Y-109000D03*
Y789000D03*
X-215000Y2796000D03*
Y3694000D03*
X390000Y-73000D03*
Y753000D03*
X380000Y2832000D03*
Y3658000D03*
G54D20*
X410010Y4535000D03*
X460010D03*
X510010D03*
X560010D03*
X610010D03*
X4405010Y4770000D03*
X4455010D03*
X4505010D03*
X4555010D03*
X4605010D03*
G54D12*
X-115000Y1285000D03*
Y2015000D03*
X175000Y1285000D03*
Y2015000D03*
G54D21*
X515000Y-20000D03*
X505000Y2885000D03*
G54D30*
X2025000Y1685000D03*
Y1725000D03*
Y1765000D03*
Y1805000D03*
Y1845000D03*
Y1885000D03*
Y1925000D03*
Y1965000D03*
Y2005000D03*
Y2045000D03*
Y2085000D03*
Y2125000D03*
Y2165000D03*
Y2205000D03*
Y2245000D03*
Y2285000D03*
Y2325000D03*
Y2365000D03*
Y2405000D03*
Y2445000D03*
Y2485000D03*
Y2525000D03*
Y2565000D03*
Y2605000D03*
Y2645000D03*
X3195000Y1765000D03*
Y1725000D03*
Y1685000D03*
Y1965000D03*
Y1925000D03*
Y1885000D03*
Y1845000D03*
Y1805000D03*
Y2165000D03*
Y2125000D03*
Y2085000D03*
Y2045000D03*
Y2005000D03*
Y2365000D03*
Y2325000D03*
Y2285000D03*
Y2245000D03*
Y2205000D03*
Y2565000D03*
Y2525000D03*
Y2485000D03*
Y2445000D03*
Y2405000D03*
Y2645000D03*
Y2605000D03*
G54D31*
X2015000Y4095000D03*
X2120000Y85000D03*
G54D13*
X-35000Y4800000D03*
X-130000Y5000000D03*
X60000D03*
G54D40*
X4555000Y3135000D03*
G54D22*
X515000Y700000D03*
X505000Y3605000D03*
G54D32*
X1965000Y4245000D03*
X2265000Y4095000D03*
X2165000Y4245000D03*
X2465000Y4095000D03*
X2365000Y4245000D03*
X2565000D03*
X2715000Y4095000D03*
X2765000Y4245000D03*
G54D41*
X4624500Y-110000D03*
X4751500D03*
X5005500D03*
X4878500D03*
G54D50*
X4995000Y3564500D03*
Y3755500D03*
X5205000Y3660000D03*
G54D14*
X175000Y1490000D03*
Y1570000D03*
Y1650000D03*
Y1730000D03*
Y1810000D03*
G54D23*
X590000Y5070000D03*
X685000Y4850000D03*
X780000Y5070000D03*
G54D51*
G01X401000Y3432500D02*
X370390D01*
X360390Y3442500D01*
X334710D01*
X-65000Y3042790D01*
Y2712430D01*
X467430Y2180000D01*
X1614800D01*
X1710000Y2275200D01*
X2004590D01*
X2014390Y2285000D01*
X2025000D01*
G01X401000Y3482500D02*
X370390D01*
X360390Y3472500D01*
X322280D01*
X-95000Y3055220D01*
Y2700000D01*
X455000Y2150000D01*
X1627230D01*
X1722430Y2245200D01*
X2024800D01*
X2025000Y2245000D01*
G01X100710Y985000D02*
X125000Y960710D01*
Y380070D01*
X167570Y337500D01*
X370390D01*
X380390Y327500D01*
X411000D01*
G01X179290Y985000D02*
X155000Y960710D01*
Y392500D01*
X180000Y367500D01*
X370390D01*
X380390Y377500D01*
X411000D01*
G01X2025000Y2125000D02*
X2020000Y2120000D01*
X800000D01*
X385000Y1705000D01*
X265600D01*
X240600Y1730000D01*
X175000D01*
G01X2025000Y2085000D02*
X2020000Y2090000D01*
X812430D01*
X397430Y1675000D01*
X265600D01*
X240600Y1650000D01*
X175000D01*
G01X1154290Y2225000D02*
X1130000Y2249290D01*
Y2277430D01*
X1097430Y2310000D01*
X600000D01*
X165000Y2745000D01*
Y2885220D01*
X322280Y3042500D01*
X360390D01*
X370390Y3032500D01*
X401000D01*
G01X418790Y2448780D02*
X135000Y2732570D01*
Y2897650D01*
X309850Y3072500D01*
X360390D01*
X370390Y3082500D01*
X401000D01*
G01X204900Y3096320D02*
X180610Y3120610D01*
Y3123180D01*
X299930Y3242500D01*
X360390D01*
X370390Y3232500D01*
X401000D01*
G01X126320Y3096320D02*
X150610Y3120610D01*
Y3135610D01*
X287500Y3272500D01*
X360390D01*
X370390Y3282500D01*
X401000D01*
G01X1670710Y535000D02*
X1695000Y510710D01*
Y307440D01*
X1142560Y-245000D01*
X335000D01*
X250000Y-160000D01*
Y55220D01*
X332280Y137500D01*
X370390D01*
X380390Y127500D01*
X411000D01*
G01X1749290Y535000D02*
X1725000Y510710D01*
Y295010D01*
X1154990Y-275000D01*
X322570D01*
X220000Y-172430D01*
Y67650D01*
X319850Y167500D01*
X370390D01*
X380390Y177500D01*
X411000D01*
G01Y527500D02*
X380390D01*
X370390Y537500D01*
X332570D01*
X249040Y621030D01*
Y869040D01*
X375000Y995000D01*
X2030000D01*
X2295000Y1260000D01*
X2430000D01*
X2465000Y1295000D01*
Y1415710D01*
X2459800Y1420910D01*
Y1479090D01*
X2465000Y1484290D01*
Y1495000D01*
X2450000Y1510000D01*
Y1580000D01*
G01X411000Y577500D02*
X380390D01*
X370390Y567500D01*
X345000D01*
X279040Y633460D01*
Y856610D01*
X387430Y965000D01*
X2042430D01*
X2307430Y1230000D01*
X2442430D01*
X2495000Y1282570D01*
Y1428140D01*
X2489800Y1433340D01*
Y1466660D01*
X2495000Y1471860D01*
Y1575000D01*
X2490000Y1580000D01*
G01X2054290Y585570D02*
X2030000Y609860D01*
Y732430D01*
X1942430Y820000D01*
X1620010D01*
X952510Y152500D01*
X581000D01*
G01X1975710Y585570D02*
X2000000Y609860D01*
Y720000D01*
X1930000Y790000D01*
X1632440D01*
X964940Y122500D01*
X631610D01*
X611610Y102500D01*
X581000D01*
G01X889290Y415000D02*
X865000Y390710D01*
Y357060D01*
X820440Y312500D01*
X621610D01*
X611610Y302500D01*
X581000D01*
G01X810710Y415000D02*
X835000Y390710D01*
Y369490D01*
X808010Y342500D01*
X621610D01*
X611610Y352500D01*
X581000D01*
G01X1261920Y895000D02*
X1286210Y870710D01*
Y713650D01*
X1115060Y542500D01*
X621610D01*
X611610Y552500D01*
X581000D01*
G01X1340500Y895000D02*
X1316210Y870710D01*
Y701220D01*
X1127490Y512500D01*
X621610D01*
X611610Y502500D01*
X581000D01*
G01X1075710Y2225000D02*
X1100000Y2249290D01*
Y2265000D01*
X1085000Y2280000D01*
X587570D01*
X450500Y2417070D01*
G01X418790Y2448780D02*
Y2448770D01*
X450500Y2417070D01*
G01X418790Y2448780D02*
X450500Y2417070D01*
G01X994290Y2670000D02*
X970000Y2694290D01*
Y2727230D01*
X649730Y3047500D01*
X611610D01*
X601610Y3057500D01*
X571000D01*
G01X915710Y2670000D02*
X940000Y2694290D01*
Y2714800D01*
X637300Y3017500D01*
X611610D01*
X601610Y3007500D01*
X571000D01*
G01X725710Y3175000D02*
X682070D01*
X599570Y3257500D01*
X571000D01*
G01X804290Y3175000D02*
X764090Y3134800D01*
X679840D01*
X607140Y3207500D01*
X571000D01*
G01X2025000Y2405000D02*
X1120000D01*
X1045000Y2480000D01*
Y2621420D01*
X1064490Y2640910D01*
Y3245510D01*
X862500Y3447500D01*
X611610D01*
X601610Y3457500D01*
X571000D01*
G01Y3407500D02*
X601610D01*
X611610Y3417500D01*
X850070D01*
X1034490Y3233080D01*
Y2653340D01*
X1015000Y2633850D01*
Y2467570D01*
X1107570Y2375000D01*
X1962520D01*
X1972520Y2365000D01*
X2025000D01*
G01X994290Y2020000D02*
X970000Y1995710D01*
Y1974490D01*
X1024290Y1920200D01*
X1809090D01*
X1809290Y1920000D01*
X1967520D01*
X1972520Y1925000D01*
X2025000D01*
G01X915710Y2020000D02*
X940000Y1995710D01*
Y1962060D01*
X1011860Y1890200D01*
X1796660D01*
X1796860Y1890000D01*
X1967520D01*
X1972520Y1885000D01*
X2025000D01*
G01X1080710Y1100000D02*
X1105000Y1124290D01*
Y1210000D01*
G01X1159290Y1100000D02*
X1135000Y1124290D01*
Y1197570D01*
X1192430Y1255000D01*
X2132430D01*
X2285000Y1407570D01*
Y1453280D01*
X2285010Y1453290D01*
Y1478130D01*
X2279800Y1483340D01*
Y1485510D01*
X2280200Y1485910D01*
Y1517060D01*
X2285000Y1521860D01*
Y1522520D01*
X2290000Y1527520D01*
Y1580000D01*
G01X1100000Y1205000D02*
X1105000Y1210000D01*
G01X2250000Y1580000D02*
Y1531860D01*
X2250200Y1531660D01*
Y1498340D01*
X2249800Y1497940D01*
Y1470910D01*
X2255000Y1465710D01*
Y1420000D01*
X2120000Y1285000D01*
X1180000D01*
X1105000Y1210000D01*
G01X1185200Y2645000D02*
X1209490Y2620710D01*
Y2569790D01*
X1334280Y2445000D01*
X2025000D01*
G01X2650000Y2750000D02*
Y2802480D01*
X2655000Y2807480D01*
Y2923140D01*
X2655200Y2923340D01*
Y2956660D01*
X2655000Y2956860D01*
Y3350000D01*
X2425000Y3580000D01*
X1350000D01*
X1215000Y3715000D01*
Y4735000D01*
X1302700Y4822700D01*
X2220950D01*
X2680000Y4363650D01*
Y4330000D01*
X2765000Y4245000D01*
G01X2330000Y1580000D02*
Y1546860D01*
X2339800Y1537060D01*
Y1524990D01*
X2344800Y1519990D01*
Y1467940D01*
X2335000Y1458140D01*
Y1400000D01*
X2155000Y1220000D01*
X1368270D01*
X1286210Y1137940D01*
Y1104290D01*
X1261920Y1080000D01*
G01X2370000Y1580000D02*
Y1549290D01*
X2379800Y1539490D01*
Y1524990D01*
X2385610Y1519180D01*
X2374800Y1508370D01*
Y1461630D01*
X2377860Y1458570D01*
X2365000Y1445710D01*
Y1387570D01*
X2167430Y1190000D01*
X1380700D01*
X1316210Y1125510D01*
Y1104290D01*
X1340500Y1080000D01*
G01X1330710Y1970000D02*
X1355000Y1994290D01*
Y2027940D01*
X1387570Y2060510D01*
X1947010D01*
X1967520Y2040000D01*
X1972520Y2045000D01*
X2025000D01*
G01X1409290Y1970000D02*
X1385000Y1994290D01*
Y2015510D01*
X1400000Y2030510D01*
X1934570D01*
X1955090Y2009990D01*
X1967510D01*
X1967520Y2010000D01*
X1972520Y2005000D01*
X2025000D01*
G01X1263780Y2645000D02*
X1239490Y2620710D01*
Y2582220D01*
X1346710Y2475000D01*
X1962520D01*
X1972520Y2485000D01*
X2025000D01*
G01X1965000Y4245000D02*
X2050000Y4330000D01*
Y4634980D01*
X1949980Y4735000D01*
X1345000D01*
X1305000Y4695000D01*
Y3760000D01*
X1395000Y3670000D01*
X2465000D01*
X2805000Y3330000D01*
Y2807480D01*
X2810000Y2802480D01*
Y2750000D01*
G01X2165000Y4245000D02*
X2080000Y4330000D01*
Y4647410D01*
X1962410Y4765000D01*
X1332570D01*
X1275000Y4707430D01*
Y3747570D01*
X1382570Y3640000D01*
X2452570D01*
X2775000Y3317570D01*
Y2807480D01*
X2770000Y2802480D01*
Y2750000D01*
G01X2690000D02*
Y2802480D01*
X2685000Y2807480D01*
Y2910710D01*
X2685200Y2910910D01*
Y2969090D01*
X2685000Y2969290D01*
Y3362430D01*
X2437430Y3610000D01*
X1362430D01*
X1245000Y3727430D01*
Y4722570D01*
X1315130Y4792700D01*
X2208520D01*
X2650000Y4351220D01*
Y4330000D01*
X2565000Y4245000D01*
G01X1780710Y3323140D02*
X1805000Y3298850D01*
Y3235000D01*
X2033450Y3006550D01*
X2271020D01*
X2335000Y2942570D01*
Y2807480D01*
X2330000Y2802480D01*
Y2750000D01*
G01X2450000D02*
Y2802480D01*
X2455000Y2807480D01*
Y2943390D01*
X2334140Y3064250D01*
X2133320D01*
X1955000Y3242570D01*
Y3350710D01*
X1930710Y3375000D01*
G01X1859290Y3323140D02*
X1835000Y3298850D01*
Y3247430D01*
X2045880Y3036550D01*
X2283450D01*
X2365000Y2955000D01*
Y2807480D01*
X2370000Y2802480D01*
Y2750000D01*
G01X2490000D02*
Y2802480D01*
X2485000Y2807480D01*
Y2955820D01*
X2346570Y3094250D01*
X2145750D01*
X1985000Y3255000D01*
Y3350710D01*
X2009290Y3375000D01*
G01X2894290Y3680000D02*
X3347570D01*
X3565000Y3462570D01*
Y1317430D01*
X3432570Y1185000D01*
X2312570D01*
X2155000Y1027430D01*
Y320000D01*
X2070000Y235000D01*
G01X2815710Y3680000D02*
X2855910Y3720200D01*
X3349800D01*
X3595000Y3475000D01*
Y1305000D01*
X3445000Y1155000D01*
X2325000D01*
X2185000Y1015000D01*
Y320000D01*
X2270000Y235000D01*
G01X2200710Y3295000D02*
Y3256890D01*
X2225000Y3232600D01*
Y3205170D01*
X2257570Y3172600D01*
X2307400D01*
X2535000Y2945000D01*
Y2807480D01*
X2530000Y2802480D01*
Y2750000D01*
G01X2279290Y3295000D02*
Y3256890D01*
X2255000Y3232600D01*
Y3217600D01*
X2270000Y3202600D01*
X2319830D01*
X2565000Y2957430D01*
Y2807480D01*
X2570000Y2802480D01*
Y2750000D01*
G01X2265000Y4095000D02*
X2335000D01*
X2350000Y4080000D01*
Y3827570D01*
X2855000Y3322570D01*
Y2807480D01*
X2850000Y2802480D01*
Y2750000D01*
G01X2465000Y4095000D02*
X2395000D01*
X2380000Y4080000D01*
Y3840000D01*
X2885000Y3335000D01*
Y2807480D01*
X2890000Y2802480D01*
Y2750000D01*
G01X2550710Y1335000D02*
X2575000Y1359290D01*
Y1522520D01*
X2570000Y1527520D01*
Y1580000D01*
G01X2629290Y1335000D02*
X2605000Y1359290D01*
Y1522520D01*
X2610000Y1527520D01*
Y1580000D01*
G01X3794310Y3260000D02*
X3770020Y3235710D01*
Y1265020D01*
X3560000Y1055000D01*
X2895000D01*
X2785000Y945000D01*
Y320000D01*
X2870000Y235000D01*
G01X3715730Y3260000D02*
X3740020Y3235710D01*
Y1277450D01*
X3547570Y1085000D01*
X2882570D01*
X2755000Y957430D01*
Y320000D01*
X2670000Y235000D01*
G01X3335710Y1450000D02*
X3360000Y1474290D01*
Y1505000D01*
X3345000Y1520000D01*
X3157640D01*
X2921420Y1283780D01*
X2798770D01*
X2700000Y1382550D01*
Y1517520D01*
X2690000Y1527520D01*
Y1580000D01*
G01X2730000D02*
Y1394980D01*
X2811200Y1313780D01*
X2908990D01*
X3145210Y1550000D01*
X3357430D01*
X3390000Y1517430D01*
Y1474290D01*
X3414290Y1450000D01*
G54D42*
X4815000Y247800D03*
G54D33*
X2210000Y1580000D03*
X2170000D03*
X2130000D03*
Y2750000D03*
X2170000D03*
X2210000D03*
X2410000Y1580000D03*
X2370000D03*
X2330000D03*
X2290000D03*
X2250000D03*
Y2750000D03*
X2290000D03*
X2330000D03*
X2370000D03*
X2410000D03*
X2610000Y1580000D03*
X2570000D03*
X2530000D03*
X2490000D03*
X2450000D03*
Y2750000D03*
X2490000D03*
X2530000D03*
X2570000D03*
X2610000D03*
X2810000Y1580000D03*
X2770000D03*
X2730000D03*
X2690000D03*
X2650000D03*
Y2750000D03*
X2690000D03*
X2730000D03*
X2770000D03*
X2810000D03*
X3010000Y1580000D03*
X2970000D03*
X2930000D03*
X2890000D03*
X2850000D03*
Y2750000D03*
X2890000D03*
X2930000D03*
X2970000D03*
X3010000D03*
X3090000Y1580000D03*
X3050000D03*
Y2750000D03*
X3090000D03*
G54D15*
X225000Y4370000D03*
X275000D03*
X270000Y4525000D03*
Y4475000D03*
X335000Y4620000D03*
X385000D03*
X315000Y5120000D03*
X265000D03*
Y5225000D03*
X325000D03*
X410000D03*
X500000Y2540000D03*
X550000D03*
X615000Y4130000D03*
X635000Y4605000D03*
X505000Y4670000D03*
Y4620000D03*
X445000Y4670000D03*
Y4620000D03*
X570000Y5220000D03*
Y5170000D03*
X460000Y5225000D03*
X750000Y410000D03*
Y460000D03*
X765000Y630000D03*
Y680000D03*
X725000Y3305000D03*
X775000D03*
X675000Y4130000D03*
X750000Y4365000D03*
X800000D03*
X685000Y4605000D03*
X750000Y4485000D03*
Y4535000D03*
X790000Y5180000D03*
X840000D03*
X1555000Y2705000D03*
Y2765000D03*
X1815000Y1725000D03*
X1765000D03*
X2030000Y1345000D03*
X1930000Y1685000D03*
X1870000D03*
X1950000Y1760000D03*
X1900000D03*
X1930000Y1965000D03*
X1870000D03*
X1950000Y1850000D03*
X1900000D03*
X1950000Y1805000D03*
X1900000D03*
X1930000Y2325000D03*
X1870000D03*
X1950000Y2645000D03*
X1900000D03*
X2090000Y1345000D03*
X2170000Y2835000D03*
Y2895000D03*
X2120000Y2825000D03*
X2070000D03*
X2410000Y1485000D03*
Y1425000D03*
Y2830000D03*
Y2890000D03*
X2290000Y2825000D03*
Y2875000D03*
X2605000Y3205000D03*
Y3265000D03*
X2815000Y1230000D03*
X2770000Y1485000D03*
Y1425000D03*
X2730000Y2835000D03*
Y2895000D03*
X2875000Y1230000D03*
X2890000Y1435000D03*
Y1485000D03*
X2940000Y1435000D03*
Y1485000D03*
X2970000Y2835000D03*
Y2895000D03*
X3015000Y2835000D03*
Y2895000D03*
X3290000Y1765000D03*
X3350000D03*
X3290000Y1845000D03*
X3350000D03*
X3340000Y1965000D03*
X3290000D03*
Y2125000D03*
X3350000D03*
X3340000Y2050000D03*
X3290000D03*
X3455000Y2160000D03*
X3405000D03*
X3290000Y2325000D03*
X3350000D03*
X3325000Y2250000D03*
X3275000D03*
X3325000Y2205000D03*
X3275000D03*
X4020000Y1610000D03*
X3965000Y2170000D03*
X3915000D03*
Y2310000D03*
X3975000D03*
X3925000Y2410000D03*
Y2460000D03*
X4020000Y3135000D03*
Y3075000D03*
X3910000Y3135000D03*
Y3075000D03*
X4070000Y1610000D03*
X4225000Y4600000D03*
Y4700000D03*
X4315000Y2420000D03*
X4375000D03*
X4395000Y2900000D03*
X4455000D03*
X4385000Y3370000D03*
X4435000D03*
X4285000Y3335000D03*
Y3385000D03*
X4460000Y3450000D03*
X4285000Y3440000D03*
Y3490000D03*
X4275000Y4600000D03*
Y4700000D03*
X4450000Y4885000D03*
Y4835000D03*
X4400000Y4885000D03*
Y4835000D03*
X4615000Y3405000D03*
X4520000Y3575000D03*
Y3515000D03*
Y3450000D03*
X4615000Y3465000D03*
Y3515000D03*
X4570000Y4330000D03*
X4510000D03*
X4505000Y4885000D03*
Y4835000D03*
X4605000D03*
Y4885000D03*
X4770000Y2320000D03*
X4820000D03*
X4675000Y3405000D03*
X4735000Y4600000D03*
X4785000D03*
X4745000Y4710000D03*
Y4760000D03*
X4980000Y3410000D03*
Y3460000D03*
G54D24*
X680000Y4364990D03*
Y4314990D03*
Y4264990D03*
Y4464990D03*
Y4414990D03*
X4675000Y4549990D03*
Y4499990D03*
Y4699990D03*
Y4649990D03*
Y4599990D03*
G54D52*
G01X-205000Y-109000D02*
Y-230000D01*
G01Y789000D02*
Y1020000D01*
G01X-25000Y2275000D02*
X-65000Y2235000D01*
X-200000D01*
X-270000Y2165000D01*
Y1940000D01*
X-140000Y1810000D01*
X175000D01*
G01X-215000Y2796000D02*
Y2635000D01*
G01Y3694000D02*
Y3935000D01*
G01X1135000Y5190000D02*
X1050000Y5275000D01*
X-90000D01*
X-255000Y5110000D01*
Y4635000D01*
X100000Y4280000D01*
X322500D01*
G01X175000Y1490000D02*
X-165000D01*
G01X-115000Y2015000D02*
Y2149560D01*
X-89560Y2175000D01*
X-55000D01*
G01X401000Y3182500D02*
X327500D01*
X290000Y3145000D01*
Y3120000D01*
X145000Y2975000D01*
X5000D01*
G01X65000Y4420000D02*
X-165000Y4650000D01*
Y4825000D01*
X10000Y5000000D01*
X60000D01*
G01X-35000Y4800000D02*
X3990D01*
X315000Y5111010D01*
G01X265000Y5120000D02*
X255000Y5130000D01*
X-90000D01*
X-130000Y5090000D01*
Y5000000D01*
G01X411000Y227500D02*
X297500D01*
X190000Y120000D01*
G01X175000Y1285000D02*
Y1320000D01*
X75000Y1420000D01*
G01X175000Y2015000D02*
Y2149560D01*
X154560Y2170000D01*
X110000D01*
G01X288250Y4085000D02*
X190000D01*
G01X225000Y4370000D02*
X165000D01*
G01X270000Y4525000D02*
X120000D01*
X80000Y4565000D01*
Y4605000D01*
X115000Y4640000D01*
X185000D01*
X319050Y4774050D01*
X655950D01*
X770000Y4660000D01*
X950000D01*
G01X322500Y4430000D02*
X170000D01*
G01X390000Y-73000D02*
X500000Y-183000D01*
G01X411000Y77500D02*
X337500D01*
G01X215000Y270000D02*
X349440D01*
X356940Y277500D01*
X411000D01*
G01X300000Y480000D02*
X408500D01*
X411000Y477500D01*
G01X390000Y753000D02*
X453000D01*
X505000Y805000D01*
G01X785000Y2730000D02*
X715000Y2660000D01*
X320000D01*
X215000Y2765000D01*
Y2875000D01*
X322500Y2982500D01*
X401000D01*
G01X380000Y2832000D02*
X502000Y2710000D01*
X540000D01*
G01X401000Y3132500D02*
X427950D01*
X510000Y3214550D01*
G01Y3357500D02*
X452950D01*
X427950Y3382500D01*
X401000D01*
G01Y3532500D02*
X491940D01*
X516940Y3507500D01*
X571000D01*
G01X380000Y3658000D02*
X263000Y3775000D01*
X250000D01*
G01X381750Y4085000D02*
Y3975000D01*
G01X288250Y4085000D02*
Y3975000D01*
G01X381750Y4085000D02*
Y4150000D01*
G01D02*
Y4164250D01*
X395000Y4177500D01*
G01X445000D02*
Y4170550D01*
X424450Y4150000D01*
X381750D01*
G01X322500Y4280000D02*
Y4330000D01*
G01Y4380000D02*
X285000D01*
X275000Y4370000D01*
G01X335000Y4620000D02*
X290000D01*
X270000Y4600000D01*
Y4525000D01*
G01X322500Y4480000D02*
X275000D01*
X270000Y4475000D01*
G01X425000Y4552500D02*
Y4580000D01*
X385000Y4620000D01*
G01X315000Y4865000D02*
Y5111010D01*
G01Y5120000D02*
Y5215000D01*
X325000Y5225000D01*
G01X315000Y5111010D02*
Y5120000D01*
G01X265000Y5225000D02*
Y5120000D01*
G01X325000Y5225000D02*
X410000D01*
G01X581000Y52500D02*
X652500D01*
G01X411000Y227500D02*
X437950D01*
X515000Y304550D01*
G01D02*
Y452500D01*
G01X581000Y202500D02*
X554050D01*
X515000Y241550D01*
Y304550D01*
G01X581000Y452500D02*
X515000D01*
G01D02*
X462950D01*
X437950Y477500D01*
X411000D01*
G01X581000Y402500D02*
X708440D01*
X715940Y410000D01*
X750000D01*
G01X411000Y627500D02*
X477500D01*
G01X581000Y602500D02*
Y639000D01*
G01X500000Y2540000D02*
X440000Y2600000D01*
X430000D01*
G01X1620000Y2260000D02*
X1535000Y2345000D01*
X1090000D01*
X1055000Y2380000D01*
X875000D01*
X715000Y2540000D01*
X550000D01*
G01X571000Y2957500D02*
X591000D01*
X785000Y2763500D01*
Y2730000D01*
G01X571000Y3107500D02*
X544050D01*
X510000Y3141550D01*
Y3214550D01*
G01X571000Y3357500D02*
X510000D01*
G01Y3214550D02*
Y3357500D01*
G01X571000D02*
X737500D01*
X755000Y3375000D01*
G01X725000Y3305000D02*
X573500D01*
X571000Y3307500D01*
G01Y3507500D02*
X747500D01*
G01X4330000Y4115000D02*
X4280000Y4165000D01*
X3895000D01*
X3810000Y4250000D01*
Y4425000D01*
X3985000Y4600000D01*
Y4815000D01*
X3860000Y4940000D01*
X1365000D01*
X1185000Y4760000D01*
Y4400000D01*
X1135000Y4350000D01*
Y3710000D01*
X995000Y3570000D01*
X780000D01*
X613250Y3736750D01*
Y3920000D01*
G01X595000Y4177500D02*
Y4150000D01*
G01D02*
X600000Y4145000D01*
G01X545000Y4177500D02*
X567500D01*
X595000Y4150000D01*
G01X600000Y4145000D02*
X615000Y4130000D01*
G01X600000Y4145000D02*
X525000D01*
X495000Y4175000D01*
Y4177500D01*
G01X613250Y4030000D02*
Y4086550D01*
X615000Y4088300D01*
Y4130000D01*
G01X765000Y4185000D02*
X654070D01*
X644070Y4195000D01*
X612500D01*
X595000Y4177500D01*
G01X525000Y4552500D02*
X505000Y4572500D01*
Y4620000D01*
G01X475000Y4552500D02*
Y4590000D01*
X445000Y4620000D01*
G01X575000Y4552500D02*
Y4655000D01*
X600000Y4680000D01*
G01X445000Y4670000D02*
X505000D01*
G01D02*
Y4730000D01*
X510000Y4735000D01*
G01X570000Y5170000D02*
Y5090000D01*
X590000Y5070000D01*
G01X570000Y5220000D02*
X465000D01*
X460000Y5225000D01*
G01X1022500Y5187500D02*
X990000Y5220000D01*
X570000D01*
G01X750000Y460000D02*
X690000D01*
G01X765000Y630000D02*
X715000D01*
G01X765000Y680000D02*
X695000D01*
X640000Y735000D01*
Y795000D01*
G01X985000Y3205000D02*
X875000D01*
X775000Y3305000D01*
G01X613250Y3920000D02*
Y4030000D01*
G01X706750Y3920000D02*
Y4030000D01*
G01X675000Y4130000D02*
X706750Y4098250D01*
Y4030000D01*
G01X675000Y4130000D02*
X755000D01*
G01X697500Y4250000D02*
Y4300000D01*
G01Y4250000D02*
X697470D01*
X710980Y4236490D01*
X748280D01*
X748820Y4235950D01*
X781180D01*
X781720Y4236490D01*
X826490D01*
X1065000Y4475000D01*
Y4735000D01*
G01X697500Y4350000D02*
X735000D01*
X750000Y4365000D01*
G01X800000D02*
Y4310000D01*
X765000Y4275000D01*
G01X685000Y4605000D02*
X737300D01*
X750000Y4592300D01*
Y4535000D01*
G01X975000D02*
X750000D01*
G01X625000Y4552500D02*
Y4595000D01*
X635000Y4605000D01*
G01X697500Y4450000D02*
X715000D01*
X750000Y4485000D01*
G01X697500Y4400000D02*
X825000D01*
X845000Y4420000D01*
G01X685000Y4850000D02*
X905000D01*
G01X790000Y5180000D02*
Y5080000D01*
X780000Y5070000D01*
G01X1065000Y4950000D02*
X877500D01*
X780000Y5047500D01*
Y5070000D01*
G01X1022500Y5187500D02*
X1160000Y5050000D01*
Y4770930D01*
X1159600Y4770530D01*
Y4444600D01*
X950000Y4235000D01*
X875000D01*
X845000Y4205000D01*
Y3675000D01*
G01X840000Y5180000D02*
X900000D01*
X960000Y5120000D01*
G01X2025000Y2525000D02*
X1580000D01*
X1160000Y2945000D01*
G01X1135000Y5190000D02*
X1025000D01*
X1022500Y5187500D01*
G01X1525000Y3050000D02*
X1260000D01*
G01X2015000Y4095000D02*
X1580000D01*
X1370000Y3885000D01*
G01X1555000Y2765000D02*
Y2797800D01*
G01X1522200Y2765000D02*
X1555000D01*
G01D02*
X1587800D01*
G01X1555000Y2705000D02*
Y2660000D01*
G01X1535000Y3040000D02*
X1525000Y3050000D01*
G01X1813000Y-115000D02*
X1985000D01*
G01X1805000Y1395000D02*
X1750000Y1450000D01*
Y1615000D01*
G01X2025000Y1725000D02*
X1815000D01*
G01X1765000D02*
X1655000D01*
G01X1870000Y1965000D02*
X1810000D01*
G01X1835000Y1850000D02*
X1780000D01*
G01X1730000Y2165000D02*
X2025000D01*
G01Y2205000D02*
X1780000D01*
G01X1870000Y2325000D02*
X1795000D01*
G01X1670000Y2695000D02*
X1660000Y2685000D01*
G01X1765000Y2705000D02*
X2048590D01*
X2141690Y2611900D01*
X2176670D01*
X2213820Y2649050D01*
X2246180D01*
X2283330Y2611900D01*
X2336460D01*
X2337410Y2610950D01*
X2369770D01*
X2370720Y2611900D01*
X2817870D01*
X2818820Y2610950D01*
X2851180D01*
X2852130Y2611900D01*
X2960340D01*
X2984220Y2635780D01*
Y2664220D01*
X2970000Y2678440D01*
Y2750000D01*
G01X1725000Y2680000D02*
X1750000Y2655000D01*
Y2575000D01*
G01X1660000Y2685000D02*
Y2625000D01*
G01X1685000Y2722200D02*
Y2790000D01*
G01X1790000Y2885000D02*
X2015000D01*
X2064050Y2934050D01*
X2187900D01*
X2204050Y2917900D01*
Y2872100D01*
X2170000Y2838050D01*
Y2835000D01*
G01X1685000Y2912200D02*
Y2980000D01*
G01Y2790000D02*
Y2857800D01*
G01X1622200Y2790000D02*
X1685000D01*
G01D02*
X1747800D01*
G01X1765000Y3055000D02*
X1770000D01*
G01X1635000Y3065000D02*
X1735000Y3165000D01*
X1795000D01*
G01X1770000Y3055000D02*
X1795000Y3080000D01*
G01X1685000Y2980000D02*
Y3047800D01*
G01X1622200Y2980000D02*
X1685000D01*
G01D02*
X1747800D01*
G01X1708000Y4445000D02*
Y4518000D01*
X1835000Y4645000D01*
G01X1725000Y5162000D02*
X1888000D01*
X1935000Y5115000D01*
G01X1845000Y85000D02*
X2120000D01*
G01X2030000Y1345000D02*
X1950000D01*
G01X2525000Y1695000D02*
X2155000D01*
X2035000Y1575000D01*
Y1567700D01*
X2022300Y1555000D01*
X1902700D01*
X1890000Y1542300D01*
Y1472700D01*
X1902700Y1460000D01*
X1975000D01*
X2090000Y1345000D01*
G01X1950000Y1760000D02*
X2020000D01*
X2025000Y1765000D01*
G01X1930000Y1685000D02*
X2025000D01*
G01X1870000D02*
Y1615000D01*
G01X1900000Y1760000D02*
Y1785000D01*
X1880000Y1805000D01*
G01X2025000Y1845000D02*
X1955000D01*
X1950000Y1850000D01*
G01X2025000Y1805000D02*
X1950000D01*
G01X2025000Y1965000D02*
X1930000D01*
G01X1900000Y1850000D02*
X1835000D01*
G01X1900000Y1805000D02*
X1880000D01*
G01D02*
X1835000Y1850000D01*
G01X2025000Y2325000D02*
X1930000D01*
G01X2025000Y2645000D02*
X1950000D01*
G01X1900000D02*
X1845000D01*
G01X1895000Y2790000D02*
X1935000Y2750000D01*
X1971130D01*
G01X2210000D02*
Y2842120D01*
X2229450Y2861570D01*
Y2928430D01*
X2177880Y2980000D01*
X1895000D01*
G01X2015000Y4095000D02*
Y3995000D01*
X1955000Y3935000D01*
G01X2090000Y1345000D02*
Y1569060D01*
X2100940Y1580000D01*
X2130000D01*
G01X2140000Y1494800D02*
X2145200Y1500000D01*
X2157300D01*
X2170000Y1512700D01*
Y1580000D01*
G01X2210000D02*
Y1515000D01*
G01X2025000Y1685000D02*
X2096560D01*
X2115000Y1703440D01*
Y1725000D01*
G01X2120000Y1985000D02*
X2100000Y1965000D01*
X2025000D01*
G01X2160000Y1815000D02*
Y2285000D01*
X2120000Y2325000D01*
G01X2025000D02*
X2120000D01*
G01X2170000Y2750000D02*
Y2835000D01*
G01X2130000Y2750000D02*
Y2815000D01*
X2120000Y2825000D01*
G01X2170000Y2895000D02*
X2145000D01*
G01X2070000Y2825000D02*
Y2872700D01*
G01X2410000Y1425000D02*
Y1365000D01*
X2380000Y1335000D01*
G01X2410000Y1485000D02*
Y1502450D01*
X2416750Y1509200D01*
Y1540090D01*
X2410000Y1546840D01*
Y1580000D01*
G01D02*
Y1651560D01*
G01Y2750000D02*
Y2830000D01*
G01Y2750000D02*
Y2706410D01*
X2353590Y2650000D01*
G01X2290000Y2750000D02*
Y2825000D01*
G01X2410000Y2890000D02*
Y2920000D01*
G01X2290000Y2875000D02*
Y2930000D01*
G01X2365000Y4245000D02*
Y4365000D01*
G01X2470000Y235000D02*
X2510000D01*
X2605000Y330000D01*
G01X2530000Y1580000D02*
Y1450000D01*
G01X2828440Y1710000D02*
X2823440Y1715000D01*
X2760000D01*
X2740000Y1695000D01*
X2525000D01*
G01X2610000Y2750000D02*
Y3165940D01*
G01D02*
X2605000Y3170940D01*
Y3205000D01*
G01X2610000Y3165940D02*
X2609060Y3165000D01*
X2555000D01*
X2470000Y3250000D01*
G01X2605000Y3265000D02*
Y3310000D01*
G01X2500000Y3805000D02*
X3020000D01*
X3440000Y4225000D01*
X3755000D01*
G01X2820000Y85000D02*
Y35000D01*
X2760000Y-25000D01*
G01X2650000Y1580000D02*
Y1395000D01*
X2815000Y1230000D01*
G01D02*
X2720000D01*
X2680000Y1270000D01*
G01X2770000Y1485000D02*
Y1580000D01*
G01Y1425000D02*
X2805000Y1390000D01*
G01X3095000Y1793440D02*
X3040000Y1738440D01*
Y1722700D01*
X3027300Y1710000D01*
X2828440D01*
G01D02*
X2770000Y1651560D01*
Y1580000D01*
G01X2730000Y2750000D02*
Y2835000D01*
G01X2835000Y2650000D02*
X2825000Y2660000D01*
X2748440D01*
X2730000Y2678440D01*
Y2750000D01*
G01Y2895000D02*
Y2935000D01*
G01X2715000Y4095000D02*
X2870000D01*
X2920000Y4145000D01*
G01X3022000Y4445000D02*
X2990000D01*
X2795000Y4640000D01*
G01X3005000Y5162000D02*
X2887000D01*
X2805000Y5080000D01*
G01X3127000Y-115000D02*
X2985000D01*
X2945000Y-155000D01*
G01X2875000Y1230000D02*
X2950000D01*
X2990000Y1270000D01*
G01X2890000Y1580000D02*
Y1485000D01*
G01X2940000D02*
Y1570000D01*
X2930000Y1580000D01*
G01X2890000Y1435000D02*
Y1370000D01*
G01X3005000Y1475000D02*
Y1465000D01*
X2975000Y1435000D01*
X2940000D01*
G01X2970000Y2835000D02*
Y2750000D01*
G01X3015000Y2835000D02*
Y2755000D01*
X3010000Y2750000D01*
G01D02*
Y2678440D01*
X3033440Y2655000D01*
X3055000D01*
G01X3045000Y3060000D02*
X3017380Y3032380D01*
X2997150D01*
X2930000Y2965230D01*
Y2750000D01*
G01X2970000Y2895000D02*
Y2950000D01*
G01X3015000Y2895000D02*
Y2950000D01*
G01X3290000Y1765000D02*
X3195000D01*
G01X3095000Y1793440D02*
X3123440Y1765000D01*
X3195000D01*
G01X3110000Y2138440D02*
X3095000Y2123440D01*
Y1793440D01*
G01X3290000Y1965000D02*
X3195000D01*
G01X3290000Y1845000D02*
X3195000D01*
G01X3440000Y1910000D02*
X3400940D01*
X3375940Y1885000D01*
X3195000D01*
G01Y2005000D02*
X3409070D01*
X3409470Y2004600D01*
X3464600D01*
X3530000Y2070000D01*
Y3295000D01*
X3410000Y3415000D01*
G01X3405000Y2160000D02*
X3271560D01*
X3266560Y2165000D01*
X3195000D01*
G01X3151410Y2325000D02*
X3123440D01*
X3110000Y2311560D01*
Y2138440D01*
G01X3290000Y2125000D02*
X3195000D01*
G01X3110000Y2138440D02*
X3123440Y2125000D01*
X3195000D01*
G01X3290000Y2050000D02*
X3200000D01*
X3195000Y2045000D01*
G01X3275000Y2205000D02*
X3195000D01*
G01X3275000Y2250000D02*
X3200000D01*
X3195000Y2245000D01*
G01X3290000Y2325000D02*
X3195000D01*
G01X3151410D02*
X3195000D01*
G01X3151410D02*
X3120000Y2356410D01*
Y2625000D01*
X3110000Y2635000D01*
Y2685000D01*
X3155000Y2730000D01*
G01X3195000Y2365000D02*
X3320000D01*
X3375000Y2420000D01*
G01X3100000Y2850000D02*
X3266550Y2683450D01*
Y2512960D01*
X3238590Y2485000D01*
X3195000D01*
G01X3220000Y2905000D02*
X3320000D01*
X3360000Y2865000D01*
Y2498440D01*
X3266560Y2405000D01*
X3195000D01*
G01X3300000Y2735000D02*
Y2478440D01*
X3266560Y2445000D01*
X3195000D01*
G01X3115000Y3555000D02*
X3495000Y3175000D01*
Y2095000D01*
X3433980Y2033980D01*
X3416020D01*
X3400000Y2050000D01*
X3340000D01*
G01X3205000Y3770000D02*
Y3810000D01*
X3400000Y4005000D01*
G01X3353250Y560000D02*
Y661750D01*
G01X3400000Y1585000D02*
X3462500Y1647500D01*
Y1772500D01*
X3429050Y1805950D01*
X3329050D01*
X3290000Y1845000D01*
G01X3350000Y1765000D02*
X3400000D01*
G01X3340000Y1965000D02*
X3405000D01*
G01X3350000Y1845000D02*
X3395000D01*
G01X3350000Y2125000D02*
X3380000D01*
X3420000Y2085000D01*
G01X3325000Y2250000D02*
Y2205000D01*
G01Y2250000D02*
X3359060D01*
X3375000Y2265940D01*
G01X3325000Y2205000D02*
X3444060D01*
X3455000Y2194060D01*
Y2160000D01*
G01X3325000Y2250000D02*
Y2290000D01*
X3290000Y2325000D01*
G01X3350000D02*
X3420000D01*
G01X3775000Y3865000D02*
X3400000D01*
X3330000Y3795000D01*
G01X3400000Y4005000D02*
X4945000D01*
X4995000Y4055000D01*
Y4285000D01*
X4745000Y4535000D01*
X4692500D01*
G01X3525000Y4135000D02*
X3400000Y4010000D01*
Y4005000D01*
G01X3598250Y-252050D02*
Y-200000D01*
G01D02*
Y-147950D01*
G01X3548700Y-200000D02*
X3598250D01*
G01Y-102050D02*
Y-50000D01*
G01D02*
Y2050D01*
G01X3548700Y-50000D02*
X3598250D01*
G01X3601200Y66690D02*
Y109500D01*
G01D02*
Y152310D01*
G01X3545150Y109500D02*
X3601200D01*
G01X3621640Y300000D02*
X3822200D01*
G01X3601200Y193690D02*
Y236500D01*
G01D02*
Y279310D01*
G01X3545150Y236500D02*
X3601200D01*
G01Y320690D02*
Y363500D01*
G01X3446750Y507950D02*
Y560000D01*
G01X3601200Y447690D02*
Y490500D01*
G01D02*
Y533310D01*
G01X3545150Y490500D02*
X3601200D01*
G01Y363500D02*
Y406310D01*
G01X3545150Y363500D02*
X3601200D01*
G01X3446750Y560000D02*
Y612050D01*
G01Y560000D02*
X3496300D01*
G01X3585000Y3675000D02*
X3615000Y3645000D01*
X4005000D01*
X4295000Y3935000D01*
X5100000D01*
X5205000Y3830000D01*
Y3660000D01*
G01X4175000Y-155000D02*
X4070000Y-50000D01*
X3691750D01*
G01Y-200000D02*
X4130000D01*
X4175000Y-155000D01*
G01X3822200Y66690D02*
Y300000D01*
G01D02*
Y533310D01*
G01Y300000D02*
X4022760D01*
G01X3810000Y650000D02*
X3870000D01*
X3915000Y605000D01*
G01X4015000Y60000D02*
X4163440Y-88440D01*
X4455000D01*
G01X3930000Y545000D02*
X3915000Y560000D01*
Y605000D01*
G01X3975000Y1320000D02*
Y665000D01*
X3915000Y605000D01*
G01X4075000Y1420000D02*
X3965000D01*
X3925000Y1380000D01*
Y1300000D01*
G01X4020000Y1610000D02*
Y1472700D01*
X4007300Y1460000D01*
X3950000D01*
G01X4050000Y2055000D02*
Y2005000D01*
X3980000Y1935000D01*
X3900000D01*
X3870000Y1965000D01*
Y2580000D01*
X3910000Y2620000D01*
Y3075000D01*
G01X3965000Y2137200D02*
Y2170000D01*
G01X4045000Y2105000D02*
X4015000Y2135000D01*
X4000000D01*
G01X3915000Y2170000D02*
Y2090000D01*
X3950000Y2055000D01*
Y2005000D01*
G01X4009050Y2311250D02*
Y2332900D01*
G01X3965000Y2170000D02*
Y2275950D01*
G01X4009050Y2311250D02*
X4050000Y2352200D01*
Y2440000D01*
X4120000Y2510000D01*
X4175230D01*
X4590000Y2924770D01*
Y2950000D01*
G01X4009050Y2332900D02*
X3965000Y2376950D01*
Y3075000D01*
G01Y2275950D02*
X3997900D01*
X4009050Y2287100D01*
Y2311250D01*
G01X3965000Y2170000D02*
X3997800D01*
G01X3975000Y2277200D02*
Y2310000D01*
G01D02*
X4007800D01*
G01X3925000Y2410000D02*
Y2320000D01*
X3915000Y2310000D01*
G01Y2170000D02*
Y2310000D01*
G01X3925000Y2460000D02*
Y2570000D01*
G01X4020000Y3075000D02*
X4078440D01*
X4096690Y3093250D01*
X4150000D01*
G01X3910000Y3075000D02*
X3965000D01*
G01D02*
X4020000D01*
G01X3910000Y3135000D02*
X4020000D01*
G01X4150000Y3186750D02*
X4071750D01*
X4020000Y3135000D01*
G01X4285000Y3425000D02*
X4265000Y3445000D01*
X4195000D01*
X4145000Y3495000D01*
X4055000D01*
X4015000Y3455000D01*
Y3375000D01*
G01X4317500Y4515000D02*
X3995000D01*
G01X4470000Y-155000D02*
X4175000D01*
G01X4180000Y66690D02*
Y109500D01*
G01D02*
Y152310D01*
G01X4121440Y109500D02*
X4180000D01*
G01D02*
X4238560D01*
G01X4180000Y193690D02*
Y236500D01*
G01D02*
Y279310D01*
G01X4121440Y236500D02*
X4180000D01*
G01D02*
X4238560D01*
G01X4180000Y320690D02*
Y363500D01*
G01Y490500D02*
X4330000D01*
G01X4180000Y363500D02*
Y406310D01*
G01X4121440Y363500D02*
X4180000D01*
G01D02*
X4238560D01*
G01X4070000Y1610000D02*
X4453440D01*
X4455940Y1612500D01*
X4675000D01*
G01X4125000Y1958250D02*
X4122500D01*
X4045000Y1880750D01*
G01X4055000Y2060000D02*
X4050000Y2055000D01*
G01X4125000Y2051750D02*
Y2101300D01*
G01X4072950Y2051750D02*
X4125000D01*
G01D02*
X4177050D01*
G01X4215800Y2005000D02*
X4309800D01*
G01X4240000Y2320000D02*
X4295000Y2265000D01*
G01X4153250Y2195000D02*
X4055000D01*
G01X4315000Y2420000D02*
X4225000D01*
G01X4385000Y3370000D02*
Y3135000D01*
X4185000Y2935000D01*
G01D02*
X4110000Y2860000D01*
G01X4150000Y3093250D02*
X4228480D01*
X4345000Y3209770D01*
Y3529990D01*
X4501600Y3686590D01*
X4598420D01*
X4615400Y3669610D01*
Y3574470D01*
X4615000Y3574070D01*
Y3515000D01*
G01X4305000Y3225000D02*
X4266750Y3186750D01*
X4150000D01*
G01X4285000Y3335000D02*
X4185000D01*
G01X4293250Y4340000D02*
X4195000D01*
G01X4400000Y4885000D02*
X4391010D01*
X4225000Y4718990D01*
Y4700000D01*
G01X4100000D02*
X4225000D01*
G01Y4600000D02*
X4165000D01*
G01X4405000Y695000D02*
X4370000D01*
X4285000Y610000D01*
Y540000D01*
G01X4390000Y815000D02*
Y1120000D01*
G01X4320000Y1890000D02*
X4325000Y1885000D01*
G01D02*
Y1795000D01*
G01X4309800Y1911000D02*
Y2005000D01*
G01D02*
Y2099000D01*
G01Y2005000D02*
X4403800D01*
G01X4246750Y2142950D02*
Y2195000D01*
G01X4460000Y2370000D02*
X4425000D01*
X4375000Y2420000D01*
G01X4295000Y2255000D02*
Y2265000D01*
G01D02*
Y2340000D01*
X4375000Y2420000D01*
G01X4246750Y2195000D02*
Y2247050D01*
G01Y2195000D02*
X4296300D01*
G01X4460000Y2320000D02*
X4375000D01*
G01X4460000Y2270000D02*
X4425000D01*
X4375000Y2320000D01*
G01X4460000Y2420000D02*
X4375000D01*
G01X4310000Y2580000D02*
X4395000Y2665000D01*
X4470000D01*
X4800000Y2995000D01*
X4985000D01*
G01X4440000Y2950000D02*
Y2915000D01*
X4455000Y2900000D01*
G01X4395000D02*
Y2830000D01*
G01X4470000Y3320000D02*
Y3335000D01*
X4435000Y3370000D01*
G01X4285000Y3490000D02*
Y3550000D01*
X4320000Y3585000D01*
G01X4285000Y3385000D02*
Y3425000D01*
G01D02*
Y3440000D01*
G01X4460000Y3450000D02*
X4400000Y3510000D01*
G01X4493250Y4115000D02*
X4330000D01*
G01X4390000Y4412500D02*
Y4343250D01*
G01X4386750Y4230000D02*
Y4340000D01*
G01X4390000Y4343250D02*
X4386750Y4340000D01*
G01X4440000Y4412500D02*
Y4393250D01*
X4390000Y4343250D01*
G01X4293250Y4230000D02*
Y4340000D01*
G01X4317500Y4515000D02*
Y4565000D01*
G01Y4715000D02*
X4290000D01*
X4275000Y4700000D01*
G01X4420000Y4787500D02*
X4400000Y4807500D01*
Y4835000D01*
G01X4317500Y4615000D02*
X4295230D01*
X4291180Y4610950D01*
X4285950D01*
X4275000Y4600000D01*
G01X4317500Y4665000D02*
X4290000D01*
X4275000Y4650000D01*
G01X4624500Y-110000D02*
Y-240000D01*
G01X4581690Y247800D02*
X4815000D01*
G01X4624500Y468800D02*
Y524850D01*
G01X4581690Y468800D02*
X4624500D01*
G01D02*
X4667310D01*
G01X4457200Y847500D02*
X4675000D01*
G01Y1612500D02*
Y1970000D01*
X4640000Y2005000D01*
G01X4460000Y2470000D02*
Y2575000D01*
X4470000Y2585000D01*
G01X4540000Y2950000D02*
X4590000D01*
G01X4490000D02*
Y2910000D01*
X4505000Y2895000D01*
G01X4640000Y2950000D02*
Y2915000D01*
X4620000Y2895000D01*
G01X4555000Y3135000D02*
X4765000D01*
G01X4620000Y3320000D02*
Y3365940D01*
X4615000Y3370940D01*
Y3405000D01*
G01X4570000Y3320000D02*
Y3400000D01*
X4520000Y3450000D01*
G01Y3320000D02*
Y3365000D01*
X4530000Y3375000D01*
G01X4615000Y3405000D02*
Y3465000D01*
G01X4520000Y3450000D02*
Y3515000D01*
G01X4450000Y3550000D02*
X4485000Y3515000D01*
X4520000D01*
G01X4545000Y3645000D02*
X4570000D01*
X4590000Y3625000D01*
Y3585000D01*
X4520000Y3515000D01*
G01Y3575000D02*
Y3585000D01*
X4495000Y3610000D01*
G01X4493250Y4115000D02*
Y4225000D01*
G01X4586750Y4115000D02*
Y4225000D01*
G01X4490000Y4412500D02*
X4510000Y4392500D01*
Y4330000D01*
G01D02*
Y4295060D01*
X4493250Y4278310D01*
Y4225000D01*
G01X4586750D02*
Y4279190D01*
X4570000Y4295940D01*
Y4330000D01*
G01D02*
X4660000D01*
G01X4540000Y4412500D02*
X4590000D01*
G01X4840000Y4060000D02*
Y4310000D01*
X4737500Y4412500D01*
X4590000D01*
G01X4605000Y4835000D02*
Y4802500D01*
X4620000Y4787500D01*
G01X4470000D02*
Y4815000D01*
X4450000Y4835000D01*
G01X4520000Y4787500D02*
Y4820000D01*
X4505000Y4835000D01*
G01X4570000Y4787500D02*
Y4945000D01*
X4590000Y4965000D01*
G01X4610000Y4890000D02*
X4680000D01*
X4745000Y4825000D01*
Y4760000D01*
G01X4610000Y4890000D02*
X4605000Y4885000D01*
G01X4745000Y4975000D02*
X4695000D01*
X4610000Y4890000D01*
G01X4450000Y4885000D02*
X4505000D01*
G01D02*
Y4970000D01*
G01X4751500Y-110000D02*
Y-226500D01*
G01X4815000Y47240D02*
Y247800D01*
G01D02*
Y448360D01*
G01Y247800D02*
X5048310D01*
G01X4751500Y468800D02*
Y524850D01*
G01X4708690Y468800D02*
X4751500D01*
G01D02*
X4794310D01*
G01X4835690D02*
X4878500D01*
G01X4675000Y637200D02*
Y847500D01*
G01D02*
Y1057800D01*
G01Y847500D02*
X4892800D01*
G01X4820000Y2320000D02*
Y2380000D01*
X4910000Y2470000D01*
G01X4660000Y2320000D02*
X4770000D01*
G01X4660000Y2270000D02*
X4714060D01*
X4725000Y2259060D01*
Y2230000D01*
G01X4660000Y2470000D02*
X4780000D01*
G01X4660000Y2420000D02*
X4785000D01*
X4795950Y2430950D01*
X4796180D01*
X4819050Y2453820D01*
Y2454050D01*
X4835000Y2470000D01*
Y2590000D01*
X4720000Y2705000D01*
G01X4670000Y3320000D02*
X4730940D01*
X4865940Y3185000D01*
X4985000D01*
G01X4830000Y3670000D02*
Y3550000D01*
X4900000Y3480000D01*
Y3322700D01*
X4912700Y3310000D01*
X5135000D01*
X5190000Y3255000D01*
Y3080940D01*
X5104060Y2995000D01*
X4985000D01*
G01X4675000Y3405000D02*
X4735000D01*
G01X4995000Y3755500D02*
X4913440D01*
X4912940Y3755000D01*
X4855000D01*
X4830000Y3730000D01*
Y3670000D01*
G01X4692500Y4485000D02*
Y4535000D01*
G01Y4585000D02*
X4720000D01*
X4735000Y4600000D01*
G01X5095000Y4195000D02*
Y4375000D01*
X4870000Y4600000D01*
X4785000D01*
G01X4692500Y4685000D02*
X4720000D01*
X4745000Y4710000D01*
G01X4692500Y4635000D02*
X4805000D01*
X4835000Y4665000D01*
G01X5015000Y-280000D02*
Y-119500D01*
X5005500Y-110000D01*
G01X4878500D02*
Y-216500D01*
G01X5005500Y468800D02*
Y524850D01*
G01X4962690Y468800D02*
X5005500D01*
G01D02*
X5048310D01*
G01X4878500D02*
Y524850D01*
G01Y468800D02*
X4921310D01*
G01X4953250Y2315000D02*
Y2401750D01*
G01X4910000Y2470000D02*
Y2705000D01*
G01D02*
X4990000D01*
X5046750Y2648250D01*
Y2315000D01*
G01X5245000Y3355000D02*
Y3040000D01*
X5023480Y2818480D01*
X4978480D01*
X4910000Y2750000D01*
Y2705000D01*
G01X4980000Y3549500D02*
X4995000Y3564500D01*
G01D02*
Y3509060D01*
X4980000Y3494060D01*
Y3460000D01*
G01Y3410000D02*
X5085000D01*
G54D25*
X1708000Y4445000D03*
X3022000D03*
G54D34*
X2610000Y2165000D03*
G54D43*
X4624500Y468800D03*
X4751500D03*
X4878500D03*
X5005500D03*
G54D16*
X411000Y127500D03*
Y77500D03*
Y327500D03*
Y277500D03*
Y227500D03*
Y177500D03*
Y527500D03*
Y477500D03*
Y427500D03*
Y377500D03*
Y627500D03*
Y577500D03*
X401000Y2982500D03*
Y3182500D03*
Y3132500D03*
Y3082500D03*
Y3032500D03*
Y3382500D03*
Y3332500D03*
Y3282500D03*
Y3232500D03*
Y3532500D03*
Y3482500D03*
Y3432500D03*
X581000Y52500D03*
Y102500D03*
Y152500D03*
Y202500D03*
Y252500D03*
Y302500D03*
Y352500D03*
Y402500D03*
Y452500D03*
Y502500D03*
Y552500D03*
Y602500D03*
X571000Y2957500D03*
Y3007500D03*
Y3057500D03*
Y3107500D03*
Y3157500D03*
Y3207500D03*
Y3257500D03*
Y3307500D03*
Y3357500D03*
Y3407500D03*
Y3457500D03*
Y3507500D03*
X4460000Y2270000D03*
Y2320000D03*
Y2370000D03*
Y2420000D03*
Y2470000D03*
X4660000Y2370000D03*
Y2320000D03*
Y2270000D03*
Y2470000D03*
Y2420000D03*
G54D17*
X288250Y3975000D03*
X381750D03*
X288250Y4085000D03*
X381750D03*
X613250Y4030000D03*
Y3920000D03*
X706750Y4030000D03*
Y3920000D03*
X3446750Y560000D03*
X3353250D03*
X3598250Y-200000D03*
Y-50000D03*
X3691750Y-200000D03*
Y-50000D03*
X4246750Y2195000D03*
X4153250D03*
X4293250Y4230000D03*
X4386750D03*
X4293250Y4340000D03*
X4386750D03*
X4493250Y4225000D03*
X4586750D03*
X4493250Y4115000D03*
X4586750D03*
X5046750Y2315000D03*
X4953250D03*
G54D44*
X4675000Y847500D03*
Y1612500D03*
G54D26*
X1725000Y5162000D03*
X3005000D03*
G54D35*
X3601200Y109500D03*
Y236500D03*
Y363500D03*
Y490500D03*
G54D36*
X3822200Y300000D03*
G54D27*
X1813000Y-115000D03*
X3127000D03*
G54D45*
X4560000Y2370000D03*
G54D18*
X409990Y4195000D03*
X609990D03*
X559990D03*
X509990D03*
X459990D03*
X4404990Y4430000D03*
X4604990D03*
X4554990D03*
X4504990D03*
X4454990D03*
G54D37*
X4180000Y109500D03*
Y363500D03*
Y236500D03*
Y490500D03*
G54D19*
X340000Y4265010D03*
Y4315010D03*
Y4365010D03*
Y4415010D03*
Y4465010D03*
X4335000Y4500010D03*
Y4550010D03*
Y4600010D03*
Y4650010D03*
Y4700010D03*
G54D28*
X1685000Y2790000D03*
Y2980000D03*
X1895000Y2790000D03*
Y2980000D03*
G54D46*
X4604990Y2990000D03*
X4554990D03*
X4504990D03*
X4454990D03*
X4654990D03*
G54D29*
X2070000Y235000D03*
X2270000D03*
X2370000Y85000D03*
X2470000Y235000D03*
X2570000Y85000D03*
X2670000Y235000D03*
X2820000Y85000D03*
X2870000Y235000D03*
G54D38*
X4125000Y1958250D03*
Y2051750D03*
X4150000Y3093250D03*
Y3186750D03*
G54D47*
X4455010Y3280000D03*
X4505010D03*
X4555010D03*
X4605010D03*
X4655010D03*
G54D39*
X4309800Y2005000D03*
X4640000D03*
G54D48*
X4720000Y2705000D03*
X4910000D03*
G54D49*
X4985000Y2995000D03*
Y3185000D03*
M02*
